<svg xmlns="http://www.w3.org/2000/svg" viewBox="0 0 150 100"><defs><style>.b423e9e5-5d2e-4844-9afe-5a2e89b223e1{fill:#fdbbb9;}.b423e9e5-5d2e-4844-9afe-5a2e89b223e1,.f9fa9c1a-f389-4668-967f-a5f3bb5deacb{isolation:isolate;}.e75820d7-7dcc-45c7-83b1-68cfb0886c54{fill:#1e1e21;}</style></defs><title>added_security</title><g id="a39afa0a-ac95-49a1-9aff-c2ae35d27ac4" data-name="Diamonds"><rect class="b423e9e5-5d2e-4844-9afe-5a2e89b223e1" x="14.61" y="14.72" width="70.56" height="70.56" transform="translate(-20.74 49.93) rotate(-45)"/></g><g id="abbb9184-60de-49a3-aba0-b6d973dac18c" data-name="Layer 1"><path class="e75820d7-7dcc-45c7-83b1-68cfb0886c54" d="M112.79,79.39H66.25l1.5,1.5V37.82l-1.5,1.5h46.54l-1.5-1.5V80.89a1.5,1.5,0,0,0,3,0V37.82a1.52,1.52,0,0,0-1.5-1.5H66.25a1.52,1.52,0,0,0-1.5,1.5V80.89a1.52,1.52,0,0,0,1.5,1.5h46.54A1.5,1.5,0,0,0,112.79,79.39Z"/><path class="e75820d7-7dcc-45c7-83b1-68cfb0886c54" d="M74.83,37.44c0-6.72,2.67-13.74,9.55-16,5.71-1.9,12.65-.55,16.44,4.35,2.56,3.31,3.36,7.58,3.39,11.67a1.5,1.5,0,0,0,3,0c-.06-8.09-3.51-16.1-11.63-18.87-6.84-2.34-15.14-.5-19.66,5.31-3,3.86-4.06,8.75-4.09,13.56a1.5,1.5,0,0,0,3,0Z"/><path class="e75820d7-7dcc-45c7-83b1-68cfb0886c54" d="M85.3,58.84l-2.65,7.64a1.51,1.51,0,0,0,1.45,1.9H95.71a1.51,1.51,0,0,0,1.45-1.9L94.42,59l-.15,1.15a5.13,5.13,0,0,0-8.66-5.5A5.23,5.23,0,0,0,85.46,60c.91,1.71,3.5.19,2.59-1.51a2.19,2.19,0,0,1-.27-1.22,2,2,0,0,1,.29-.9,2.19,2.19,0,0,1,1.47-1,2.11,2.11,0,0,1,1.93.66,2.84,2.84,0,0,1,.44.72A2,2,0,0,1,92,57.87c-.12.61-.57,1-.49,1.7a1.27,1.27,0,0,0,.09.36c.12.38.27.74.4,1.11l1.35,3.69.93,2.54,1.44-1.89H84.1l1.44,1.89,2.66-7.64a1.5,1.5,0,0,0-2.9-.79Z"/><g class="f9fa9c1a-f389-4668-967f-a5f3bb5deacb"><path class="e75820d7-7dcc-45c7-83b1-68cfb0886c54" d="M59.06,24.43v8.51a1.5,1.5,0,0,0,3,0V24.43a1.5,1.5,0,0,0-3,0Z"/></g><g class="f9fa9c1a-f389-4668-967f-a5f3bb5deacb"><path class="e75820d7-7dcc-45c7-83b1-68cfb0886c54" d="M64.82,27.18H56.31a1.51,1.51,0,0,0-1.5,1.5,1.53,1.53,0,0,0,1.5,1.5h8.51a1.5,1.5,0,0,0,0-3Z"/></g><g class="f9fa9c1a-f389-4668-967f-a5f3bb5deacb"><path class="e75820d7-7dcc-45c7-83b1-68cfb0886c54" d="M46.89,47.41v8.51a1.51,1.51,0,0,0,1.5,1.5,1.53,1.53,0,0,0,1.5-1.5V47.41a1.5,1.5,0,0,0-3,0Z"/></g><g class="f9fa9c1a-f389-4668-967f-a5f3bb5deacb"><path class="e75820d7-7dcc-45c7-83b1-68cfb0886c54" d="M52.64,50.17H44.13a1.5,1.5,0,0,0,0,3h8.51a1.5,1.5,0,0,0,0-3Z"/></g><g class="f9fa9c1a-f389-4668-967f-a5f3bb5deacb"><path class="e75820d7-7dcc-45c7-83b1-68cfb0886c54" d="M74,42.81v8.51a1.5,1.5,0,0,0,3,0V42.81a1.5,1.5,0,0,0-3,0Z"/></g><g class="f9fa9c1a-f389-4668-967f-a5f3bb5deacb"><path class="e75820d7-7dcc-45c7-83b1-68cfb0886c54" d="M79.76,45.57H71.25a1.51,1.51,0,0,0-1.5,1.5,1.53,1.53,0,0,0,1.5,1.5h8.51a1.5,1.5,0,0,0,0-3Z"/></g></g></svg>