<svg xmlns="http://www.w3.org/2000/svg" viewBox="0 0 150 100"><defs><style>.acc07ea0-a98f-407e-a0a7-147dad6f2672{fill:#fdbbb9;isolation:isolate;}.ae3f0885-5932-4ad5-a113-4f60826eac95{fill:#1e1e21;}</style></defs><title>app_growth</title><g id="bccedf36-ff3c-4092-9ee9-29598b904cdf" data-name="Diamonds"><rect class="acc07ea0-a98f-407e-a0a7-147dad6f2672" x="14.61" y="14.72" width="70.56" height="70.56" transform="translate(-20.74 49.93) rotate(-45)"/></g><g id="b62fa5e5-7800-4652-a547-fd0a090cdca4" data-name="Layer 1"><path d="M89.75,27.06l8.3,8.31,5.17,5.17a17.39,17.39,0,0,1,3.41,4.09,10.27,10.27,0,0,1-.92,10.8,32.21,32.21,0,0,1-3,3.15L91.77,69.49a27.46,27.46,0,0,1-3.23,3.06,10.29,10.29,0,0,1-10.81.75,18.26,18.26,0,0,1-4-3.39l-5.2-5.2C65.8,62,63,59.26,60.32,56.49A10.32,10.32,0,0,1,58,45.69,13.53,13.53,0,0,1,61.45,41L72.16,30.25c1-1.05,2.08-2.11,3.14-3.14a10.29,10.29,0,0,1,9.37-2.81,10.54,10.54,0,0,1,5.08,2.76c1.38,1.35,3.51-.77,2.12-2.12A13.41,13.41,0,0,0,80,21.34a14,14,0,0,0-7.24,4.1L61.83,36.33c-1.19,1.2-2.41,2.38-3.59,3.59a13.37,13.37,0,0,0-3.88,10.22,13.64,13.64,0,0,0,4.1,8.73c1.38,1.4,2.77,2.78,4.16,4.17C66.08,66.5,69.53,70,73,73.43a13.38,13.38,0,0,0,18.92.14c3.33-3.26,6.59-6.58,9.88-9.87,3.53-3.53,7.89-6.93,8.74-12.16A13.38,13.38,0,0,0,106.89,40c-1-1-2-2-3-3L92.68,25.75l-.81-.81A1.5,1.5,0,0,0,89.75,27.06Z"/><path d="M82.35,65.94v27a1.5,1.5,0,0,0,3,0v-27a1.5,1.5,0,0,0-3,0Z"/><path d="M85.35,34.06v-27a1.5,1.5,0,0,0-3,0v27a1.5,1.5,0,0,0,3,0Z"/><path d="M67.9,48.5h-27a1.5,1.5,0,0,0,0,3h27a1.5,1.5,0,0,0,0-3Z"/><path d="M99.79,51.5h27a1.5,1.5,0,0,0,0-3h-27a1.5,1.5,0,0,0,0,3Z"/><path class="ae3f0885-5932-4ad5-a113-4f60826eac95" d="M118.69,61.48l10.42-10.42a1.53,1.53,0,0,0,0-2.12L118.69,38.52a1.5,1.5,0,0,0-2.12,2.13L127,51.06V48.94L116.57,59.35a1.5,1.5,0,0,0,2.12,2.13Z"/><path class="ae3f0885-5932-4ad5-a113-4f60826eac95" d="M48.57,38.52,38.16,48.94a1.51,1.51,0,0,0,0,2.12L48.57,61.48a1.5,1.5,0,0,0,2.12-2.13L40.28,48.94v2.12L50.69,40.65a1.5,1.5,0,0,0-2.12-2.13Z"/><path class="ae3f0885-5932-4ad5-a113-4f60826eac95" d="M95.11,14.94,84.69,4.52a1.53,1.53,0,0,0-2.12,0L72.16,14.94a1.5,1.5,0,0,0,2.12,2.12L84.69,6.65H82.57L93,17.06a1.5,1.5,0,0,0,2.12-2.12Z"/><path class="ae3f0885-5932-4ad5-a113-4f60826eac95" d="M72.16,85.06,82.57,95.48a1.53,1.53,0,0,0,2.12,0L95.11,85.06A1.5,1.5,0,0,0,93,82.94L82.57,93.35h2.12L74.28,82.94a1.5,1.5,0,0,0-2.12,2.12Z"/></g></svg>