<svg xmlns="http://www.w3.org/2000/svg" viewBox="0 0 150 100"><defs><style>.ae3aa431-c048-420f-8448-14aac9a6a521{fill:#fdbbb9;}.ae3aa431-c048-420f-8448-14aac9a6a521,.e44202d0-edeb-4caa-8fcd-d81db56b5f20{isolation:isolate;}.e1d7107d-bcc2-4416-abfb-10b5f07967b4{fill:#1e1e21;}</style></defs><title>apps</title><g id="af819437-7695-4929-8976-9a0fb1b97bfa" data-name="Diamonds"><rect class="ae3aa431-c048-420f-8448-14aac9a6a521" x="14.61" y="14.72" width="70.56" height="70.56" transform="translate(-20.74 49.93) rotate(-45)"/></g><g id="a24eafc6-ad53-49a2-90c7-07e21f8703f6" data-name="Layer 1"><path class="e1d7107d-bcc2-4416-abfb-10b5f07967b4" d="M111,83.66H65.79l1.5,1.5V40l-1.5,1.5H111L109.5,40V85.16a1.5,1.5,0,0,0,3,0V40a1.52,1.52,0,0,0-1.5-1.5H65.79a1.52,1.52,0,0,0-1.5,1.5V85.16a1.52,1.52,0,0,0,1.5,1.5H111A1.5,1.5,0,0,0,111,83.66Z"/><g class="e44202d0-edeb-4caa-8fcd-d81db56b5f20"><path class="e1d7107d-bcc2-4416-abfb-10b5f07967b4" d="M92.5,49l4.92,4.93,3.11,3.1a14.17,14.17,0,0,1,1.79,1.93,5.66,5.66,0,0,1-.19,6.59,20.6,20.6,0,0,1-1.72,1.78l-6.48,6.48c-.56.56-1.1,1.16-1.7,1.68a5.66,5.66,0,0,1-6.26.79,9.64,9.64,0,0,1-2.3-1.92l-3.08-3.08c-1.72-1.72-3.48-3.41-5.17-5.17A5.72,5.72,0,0,1,74,60.45a7.21,7.21,0,0,1,2.08-3l7-7a16.43,16.43,0,0,1,2.31-2.18A5.69,5.69,0,0,1,92.5,49c1.4,1.33,3.52-.79,2.12-2.12a8.78,8.78,0,0,0-12.46.27c-2.23,2.21-4.44,4.44-6.66,6.66-2.45,2.45-4.91,4.83-4.73,8.65s2.64,5.88,5,8.28c2.17,2.16,4.31,4.35,6.49,6.49a8.77,8.77,0,0,0,12.34.11c2-1.93,4-4,5.94-5.94,2.19-2.2,4.89-4.32,5.53-7.52A8.81,8.81,0,0,0,103.76,56c-.82-.86-1.68-1.68-2.52-2.52l-6.62-6.62A1.5,1.5,0,0,0,92.5,49Z"/></g><path class="e1d7107d-bcc2-4416-abfb-10b5f07967b4" d="M90.07,29.25H74.16l1.5,1.5V14.84l-1.5,1.5H90.07l-1.5-1.5V30.75a1.5,1.5,0,0,0,3,0V14.84a1.52,1.52,0,0,0-1.5-1.5H74.16a1.52,1.52,0,0,0-1.5,1.5V30.75a1.52,1.52,0,0,0,1.5,1.5H90.07A1.5,1.5,0,0,0,90.07,29.25Z"/><g class="e44202d0-edeb-4caa-8fcd-d81db56b5f20"><path class="e1d7107d-bcc2-4416-abfb-10b5f07967b4" d="M82.51,19.71l1.37,1.37.87.86.25.26c.09.09.2.25.07,0a2,2,0,0,0,.12.19c.18.27,0-.19,0,0l.06.21c.06.21,0-.37,0,0,0,.16.08.14,0-.07a.79.79,0,0,1,0,.22c-.06.31,0-.07,0-.05s-.17.28-.17.29c.13-.21,0-.06-.06,0s-.17.18-.26.26L83,25.11c-.15.14-.3.28-.44.43s-.2.13,0,0l-.19.12c-.27.17,0,0,0,0s-.21.05-.27.07.28,0,.08,0-.28.05-.08,0,0,0-.12,0c-.26,0,.13.1,0,0l-.24-.14s.21.2,0,0l0,0-.22-.21-.84-.85c-.49-.49-1-1-1.47-1.47-.07-.06-.15-.22,0,0l-.12-.19c-.17-.27,0,0,0,.05a1.91,1.91,0,0,1-.06-.21c-.09-.31,0,.08,0,.07s-.06-.41,0-.12,0-.05,0-.13c0-.32-.11.16,0,0l.11-.2c.08-.16-.23.22,0,0l.16-.17,2-2,.34-.34s.26-.25.12-.13.11-.06.13-.07c.22-.15-.15,0,0,0s.19-.08.26-.06c-.14,0-.25.06,0,0s-.34-.11,0,0c0,0,.35.09.13,0s.1.06.13.08c.26.13-.18-.17.05.05a1.5,1.5,0,0,0,2.12-2.12,3.56,3.56,0,0,0-5,.06l-1.89,1.89-.61.61a3.51,3.51,0,0,0,0,5l.69.69,1.81,1.81a3.56,3.56,0,0,0,5,0c.55-.53,1.09-1.1,1.63-1.64a5.36,5.36,0,0,0,1.86-2.62,3.6,3.6,0,0,0-.93-3.25l-.69-.69-1.88-1.87a1.51,1.51,0,0,0-2.12,0A1.53,1.53,0,0,0,82.51,19.71Z"/></g><path class="e1d7107d-bcc2-4416-abfb-10b5f07967b4" d="M56.58,64.41H40.68l1.5,1.5V50l-1.5,1.5h15.9L55.08,50V65.91a1.5,1.5,0,0,0,3,0V50a1.52,1.52,0,0,0-1.5-1.5H40.68a1.52,1.52,0,0,0-1.5,1.5V65.91a1.52,1.52,0,0,0,1.5,1.5h15.9A1.5,1.5,0,0,0,56.58,64.41Z"/><g class="e44202d0-edeb-4caa-8fcd-d81db56b5f20"><path class="e1d7107d-bcc2-4416-abfb-10b5f07967b4" d="M49.25,54.25l1.58,1.58,1,1,.3.3c.06.06.25.29.11.09l.14.22c.19.29,0-.13,0,.06a2.1,2.1,0,0,0,.06.24c.06.23,0-.34,0,0,0,.08,0,.29,0,0a1.84,1.84,0,0,1,0,.25c-.06.25,0,.07,0,0a1.86,1.86,0,0,1-.19.34c.13-.19,0,0-.1.08l-.31.31-2.08,2.08c-.17.17-.34.33-.5.5s-.22.17,0,0l-.22.13c-.24.15-.06,0,0,0l-.31.08c-.2,0,.22,0,0,0s-.32,0-.12,0-.16,0-.17,0c-.25,0,.06.06-.06,0l-.28-.16c.06,0,.18.17,0,0l0,0-.25-.24-1-1c-.57-.56-1.12-1.15-1.7-1.69,0,0-.18-.23,0,0-.07-.1-.21-.49-.14-.22a2.17,2.17,0,0,0-.07-.24c-.07-.28,0,0,0,0s0-.42,0-.18,0-.13,0-.17c.05-.35-.1.1,0-.06l.13-.23c.1-.16-.2.19.07-.06l.19-.2,2.27-2.26.39-.39s.26-.26.16-.17.18-.11.17-.1c.22-.14-.08,0,.06,0s.2-.05.31-.07c-.22,0-.11,0,0,0s-.3-.1,0,0c0,0,.37.11.19,0s.16.1.16.1c.27.14-.12-.13.12.1a1.5,1.5,0,0,0,2.12-2.12,3.88,3.88,0,0,0-5.46.07l-2.18,2.18c-.23.24-.48.47-.7.71a3.81,3.81,0,0,0-1.12,2.82,3.93,3.93,0,0,0,1.14,2.6l.79.79c.7.7,1.39,1.41,2.1,2.1a3.88,3.88,0,0,0,5.43,0c.65-.61,1.26-1.26,1.9-1.89a6.11,6.11,0,0,0,2.08-2.93,3.9,3.9,0,0,0-1-3.53l-.79-.8-2.17-2.16a1.5,1.5,0,0,0-2.12,2.12Z"/></g></g></svg>