<svg xmlns="http://www.w3.org/2000/svg" viewBox="0 0 150 100"><defs><style>.aac62fc8-b87a-42fe-887d-fb5c6de78ed2{fill:#fdbbb9;isolation:isolate;}</style></defs><title>branch</title><g id="b5d1bf2e-77c5-4cdc-8e48-d66817eb9779" data-name="Diamonds"><rect class="aac62fc8-b87a-42fe-887d-fb5c6de78ed2" x="14.61" y="14.72" width="70.56" height="70.56" transform="translate(-20.74 49.93) rotate(-45)"/></g><g id="b89caae1-3564-4616-b120-8921abf81c30" data-name="Layer 1"><path d="M87.34,89.61a4,4,0,0,1-.8,2.42c-.26.37.1-.11-.08.09s-.15.18-.24.27l-.2.2s-.37.31-.14.13a4.74,4.74,0,0,1-.6.39l-.26.14c-.16.07-.17.08,0,0l-.2.08a5.75,5.75,0,0,1-.71.2c-.06,0-.38.06-.12,0l-.38,0a4.83,4.83,0,0,1-.76,0c-.28,0,.33.08-.12,0l-.43-.1-.42-.14s-.26-.11,0,0a5.58,5.58,0,0,1-.63-.35,3.44,3.44,0,0,1-1-.89c.15.18,0,0,0,0l-.24-.36-.14-.25s-.2-.44-.09-.17a5.19,5.19,0,0,1-.22-.7,2.46,2.46,0,0,1-.07-.29c0-.18,0-.19,0,0a1.79,1.79,0,0,1,0-.23,5.3,5.3,0,0,1,0-.69s.07-.5,0-.2a2.93,2.93,0,0,1,0-.29c.06-.24.13-.47.21-.71.14-.41-.13.21.08-.17.07-.13.13-.26.2-.38l.2-.3a1.1,1.1,0,1,0,.07-.1c.15-.18.32-.35.49-.52,0,0,.33-.28.18-.16s.21-.15.19-.14a5.52,5.52,0,0,1,.75-.42c-.06,0-.23.08,0,0l.42-.14.28-.07.25,0c-.21,0,.28,0,.25,0h.38l.38,0c.34,0-.1,0,.2,0a8.24,8.24,0,0,1,.85.24c.43.14-.13-.08.11,0s.3.15.44.24l.25.15.23.17c-.12-.09-.11-.07,0,0l.51.5c.3.31-.13-.21.12.15.08.12.16.24.23.36s.14.25.21.38,0-.14.08.17.17.57.24.85c0,0,0,.3,0,0,0,.2,0,.41,0,.61a1.5,1.5,0,0,0,3,0A7.09,7.09,0,0,0,85.71,83,7,7,0,0,0,78,85.09a7,7,0,1,0,12.33,4.52,1.5,1.5,0,1,0-3,0Z"/><path d="M84.84,84.11v-72a1.5,1.5,0,0,0-3,0v72a1.5,1.5,0,0,0,3,0Z"/><path d="M84.55,7.6a2.4,2.4,0,0,1,0,.37l.06-.4c0,.14-.06.29-.1.43l-.06.17c0,.16.17-.34,0-.13l-.21.36c-.13.2.21-.22.08-.11l-.14.16-.13.12c-.19.19.3-.21.08-.06l-.33.2c-.23.13.09,0,.13-.05a.68.68,0,0,1-.2.07,2.23,2.23,0,0,1-.43.1l.4-.06a2.36,2.36,0,0,1-.75,0l.4.06a2.07,2.07,0,0,1-.43-.1l-.17-.06c-.17-.05.34.17.13.06l-.36-.22c-.2-.13.22.21.11.08l-.16-.14-.12-.13c-.19-.19.21.31.06.08s-.14-.22-.2-.33,0,.09,0,.13a.68.68,0,0,1-.07-.2,2.23,2.23,0,0,1-.1-.43l0,.4a3.14,3.14,0,0,1,0-.75l0,.4a2.23,2.23,0,0,1,.1-.43c0-.05,0-.11.05-.17s-.16.34-.05.13.14-.24.22-.36-.21.23-.08.11l.14-.16.13-.12c.19-.18-.31.21-.08.06l.33-.2c.23-.13-.09,0-.13,0a.68.68,0,0,1,.2-.07,2.07,2.07,0,0,1,.43-.1l-.4.06a3.14,3.14,0,0,1,.75,0l-.4-.06a2.23,2.23,0,0,1,.43.1l.16.06c.17.05-.34-.17-.12,0l.36.21c.2.13-.23-.21-.11-.08l.16.14a.74.74,0,0,0,.12.13c.18.19-.21-.3-.06-.08l.2.33c.12.23,0-.09,0-.13a.68.68,0,0,1,.07.2c0,.14.07.29.1.43l-.06-.4a2.43,2.43,0,0,1,0,.38,1.5,1.5,0,0,0,3,0,4.3,4.3,0,0,0-2.84-4,4.19,4.19,0,0,0-4.53,1.21,4.45,4.45,0,0,0-1,2.5,4.2,4.2,0,0,0,2.33,4,4.4,4.4,0,0,0,2.74.34,4.22,4.22,0,0,0,3.33-4.1,1.5,1.5,0,1,0-3,0Z"/><path d="M104.66,46.93a2.22,2.22,0,0,1,0,.37l.06-.4c0,.15-.06.29-.1.43l-.06.17c0,.17.17-.34,0-.13l-.21.37c-.14.19.2-.23.08-.11l-.15.15-.12.12c-.19.19.3-.2.08-.06l-.33.2c-.23.13.09,0,.13,0a1.29,1.29,0,0,1-.21.07l-.42.09.4,0a3.14,3.14,0,0,1-.75,0l.4,0a3,3,0,0,1-.43-.09l-.17-.06c-.17,0,.34.17.13.05l-.36-.22c-.2-.13.22.21.11.09s-.11-.1-.16-.15l-.12-.13c-.19-.18.2.31.06.09a3.79,3.79,0,0,1-.2-.34c-.13-.22,0,.1,0,.13a1.19,1.19,0,0,1-.08-.2,3,3,0,0,1-.09-.43l0,.4a3.05,3.05,0,0,1,0-.74l0,.4a3,3,0,0,1,.09-.43,1.15,1.15,0,0,0,.06-.17c.06-.17-.16.34-.05.13s.14-.25.22-.37-.21.23-.08.11.09-.1.14-.15l.13-.12c.19-.19-.31.2-.08.06l.33-.2c.22-.13-.1,0-.13,0s.16,0,.2-.07a3,3,0,0,1,.43-.09l-.4,0a3.14,3.14,0,0,1,.75,0l-.4,0,.42.09.17.06c.17,0-.34-.17-.13-.05l.37.22c.2.13-.23-.21-.11-.08s.11.09.15.14a1.42,1.42,0,0,1,.12.13c.19.18-.2-.31,0-.09l.2.34c.12.22,0-.1,0-.13a.68.68,0,0,1,.07.2c0,.14.07.28.1.43l-.06-.4a2.22,2.22,0,0,1,0,.37,1.5,1.5,0,1,0,3,0,4.3,4.3,0,0,0-2.84-4,4.19,4.19,0,0,0-4.53,1.21,4.42,4.42,0,0,0-1,2.5,4.13,4.13,0,0,0,.57,2.4,4.19,4.19,0,0,0,1.76,1.63,4.54,4.54,0,0,0,2.74.34,4.24,4.24,0,0,0,3.33-4.11,1.5,1.5,0,0,0-3,0Z"/><path d="M64.62,32.23c0,.12,0,.25,0,.37l.05-.4a3,3,0,0,1-.09.43l-.06.17c-.06.17.17-.34,0-.13s-.14.24-.22.36.21-.22.08-.11l-.14.16-.13.12c-.19.19.31-.21.08-.06a3.62,3.62,0,0,1-.33.2c-.22.13.1,0,.13-.05a.68.68,0,0,1-.2.07,2.07,2.07,0,0,1-.43.1l.4-.05a3.05,3.05,0,0,1-.74,0l.39.05a2.13,2.13,0,0,1-.42-.1l-.17,0c-.17-.06.34.16.13,0l-.37-.22c-.2-.13.23.21.11.08s-.1-.09-.15-.14L62.45,33c-.19-.19.2.31.06.08s-.14-.22-.2-.33,0,.1,0,.13a.68.68,0,0,1-.07-.2,3,3,0,0,1-.09-.43l.05.4a3.14,3.14,0,0,1,0-.75l-.05.4a3.15,3.15,0,0,1,.09-.42l.06-.17c0-.17-.17.34-.05.13s.14-.25.22-.37-.21.23-.09.11l.15-.15a1.59,1.59,0,0,1,.13-.13c.18-.18-.31.21-.09.06l.34-.2c.22-.12-.1,0-.14.05a.74.74,0,0,1,.21-.07l.42-.1-.39.06a3.05,3.05,0,0,1,.74,0l-.4-.06.43.1.17.06c.17.05-.34-.17-.13,0l.36.21c.2.13-.22-.2-.1-.08s.1.1.15.15l.12.12c.19.19-.2-.3-.06-.08s.14.22.2.33,0-.09,0-.13a.76.76,0,0,1,.08.21,3.15,3.15,0,0,1,.09.42l-.05-.4c0,.13,0,.25,0,.38a1.5,1.5,0,0,0,3,0,4.26,4.26,0,0,0-2.83-4,4.18,4.18,0,0,0-4.53,1.2,4.45,4.45,0,0,0-1,2.5,4.16,4.16,0,0,0,2.33,4,4.38,4.38,0,0,0,2.74.34,4.22,4.22,0,0,0,3.32-4.1,1.5,1.5,0,0,0-1.5-1.5A1.52,1.52,0,0,0,64.62,32.23Z"/><path d="M62,36.23c0,3.94-.19,7.89,1.12,11.68A21.06,21.06,0,0,0,83,62.17a1.5,1.5,0,0,0,0-3A18.05,18.05,0,0,1,65,41.1c0-1.62,0-3.25,0-4.87a1.5,1.5,0,0,0-3,0Z"/><path d="M101.51,50.45c0,1.62,0,3.25,0,4.87A18.05,18.05,0,0,1,83.45,73.39a1.5,1.5,0,0,0,0,3A21.28,21.28,0,0,0,104.51,55.3c0-1.62,0-3.24,0-4.85a1.5,1.5,0,0,0-3,0Z"/></g></svg>