<svg xmlns="http://www.w3.org/2000/svg" viewBox="0 0 150 100"><defs><style>.a1aee395-c46c-457a-ad81-f6a98018c347{fill:#fdbbb9;isolation:isolate;}.f96bd3b8-afda-4a0e-8573-d3df3ed3a8c6{fill:#1e1e21;}</style></defs><title>chat</title><g id="a84356c0-0012-4b90-8203-ed6a78b19ab8" data-name="Diamonds"><rect class="a1aee395-c46c-457a-ad81-f6a98018c347" x="14.61" y="14.72" width="70.56" height="70.56" transform="translate(-20.74 49.93) rotate(-45)"/></g><g id="a56890da-ec87-4eb9-81fb-8af41a31618c" data-name="Layer 1"><path class="f96bd3b8-afda-4a0e-8573-d3df3ed3a8c6" d="M116.8,50A27.56,27.56,0,0,1,99,75.58a27.91,27.91,0,0,1-9.49,1.69,1.52,1.52,0,0,0-1.5,1.5v0l1.5-1.5H60.71l1.5,1.5c0-9.59,0-19.18,0-28.78A27.3,27.3,0,1,1,116.8,50a1.5,1.5,0,0,0,3,0,30.29,30.29,0,0,0-60.13-5.23c-.91,5.35-.46,11-.46,16.45V78.82a1.52,1.52,0,0,0,1.5,1.5H89.5a1.52,1.52,0,0,0,1.5-1.5v0l-1.5,1.5A30.3,30.3,0,0,0,119.8,50,1.5,1.5,0,0,0,116.8,50Z"/><path class="f96bd3b8-afda-4a0e-8573-d3df3ed3a8c6" d="M71.3,43.31h36.4a1.5,1.5,0,0,0,0-3H71.3a1.5,1.5,0,0,0,0,3Z"/><path class="f96bd3b8-afda-4a0e-8573-d3df3ed3a8c6" d="M71.3,49.38h29.44a1.5,1.5,0,0,0,0-3H71.3a1.5,1.5,0,0,0,0,3Z"/><path class="f96bd3b8-afda-4a0e-8573-d3df3ed3a8c6" d="M71.3,55.44h36.4a1.5,1.5,0,0,0,0-3H71.3a1.5,1.5,0,0,0,0,3Z"/><path class="f96bd3b8-afda-4a0e-8573-d3df3ed3a8c6" d="M71.3,61.51H89.51a1.5,1.5,0,0,0,0-3H71.3a1.5,1.5,0,0,0,0,3Z"/></g></svg>