<svg xmlns="http://www.w3.org/2000/svg" viewBox="0 0 150 100"><defs><style>.e4429b7b-49e9-4bab-8640-e22d0ba741ab{fill:#fdbbb9;isolation:isolate;}.f952e79d-7a01-4b53-9da2-7f8ec9172047{fill:#1e1e21;}</style></defs><title>cloud</title><g id="b83f7cb4-72cf-42ce-b2df-6b8a2c631e41" data-name="Diamonds"><rect class="e4429b7b-49e9-4bab-8640-e22d0ba741ab" x="14.61" y="14.72" width="70.56" height="70.56" transform="translate(-20.74 49.93) rotate(-45)"/></g><g id="a2bc39f3-52a7-451a-9874-6f3e66e07100" data-name="Layer 1"><path class="f952e79d-7a01-4b53-9da2-7f8ec9172047" d="M114.5,55.59a12.47,12.47,0,0,0-13.28-12.3l1.5,1.5a18.2,18.2,0,0,0-25.85-17,18.43,18.43,0,0,0-8.15,7.48l2-.54a12.33,12.33,0,0,0-18,10.09l1.5-1.5a12.35,12.35,0,0,0,.95,24.66c1.09,0,2.18,0,3.27,0H104a1.52,1.52,0,0,0,1.5-1.5v-.16l-1.1,1.44A12.49,12.49,0,0,0,114.5,55.59c0-1.93-3-1.93-3,0a9.51,9.51,0,0,1-7.94,9.24,1.51,1.51,0,0,0-1.1,1.45v.16l1.5-1.5H62.26A67.76,67.76,0,0,1,54,64.87a9.35,9.35,0,0,1,.33-18.59,1.56,1.56,0,0,0,1.5-1.5,9.42,9.42,0,0,1,13.47-7.5,1.53,1.53,0,0,0,2.06-.54,15.21,15.21,0,0,1,28.41,8,1.52,1.52,0,0,0,1.5,1.5,9.46,9.46,0,0,1,10.28,9.3C111.53,57.52,114.53,57.52,114.5,55.59Z"/></g></svg>