<svg xmlns="http://www.w3.org/2000/svg" viewBox="0 0 150 100"><defs><style>.a721f649-6662-4e1b-9ee4-ad116317e680{fill:#fdbbb9;isolation:isolate;}.a158affb-db48-479d-b23a-a61644eb7e90{fill:#1e1e21;}</style></defs><title>Cycle</title><g id="ecf59f24-69de-4854-83c4-3ab608c1c11f" data-name="Diamonds"><rect class="a721f649-6662-4e1b-9ee4-ad116317e680" x="14.61" y="14.72" width="70.56" height="70.56" transform="translate(-20.74 49.93) rotate(-45)"/></g><g id="fab7d200-59e0-446e-bec9-946f0b7555c1" data-name="Layer 1"><path class="a158affb-db48-479d-b23a-a61644eb7e90" d="M73,21.89a28.84,28.84,0,1,1,0,57.67,1.5,1.5,0,0,0,0,3A31.83,31.83,0,0,0,93.32,26.24,32.22,32.22,0,0,0,73,18.89a1.5,1.5,0,0,0,0,3Z"/><path class="a158affb-db48-479d-b23a-a61644eb7e90" d="M65.54,79.56a28.84,28.84,0,1,1,0-57.67,1.5,1.5,0,0,0,0-3A31.83,31.83,0,0,0,45.2,75.21a32.21,32.21,0,0,0,20.34,7.35,1.5,1.5,0,0,0,0-3Z"/><path class="a158affb-db48-479d-b23a-a61644eb7e90" d="M83.71,30.67l-11.4-11.4v2.12L83.71,10a1.5,1.5,0,0,0-2.12-2.12l-11.4,11.4a1.51,1.51,0,0,0,0,2.12l11.4,11.4a1.5,1.5,0,0,0,2.12-2.12Z"/><path class="a158affb-db48-479d-b23a-a61644eb7e90" d="M58.31,92.13l11.4-11.4a1.53,1.53,0,0,0,0-2.12l-11.4-11.4a1.5,1.5,0,0,0-2.12,2.12l11.4,11.4V78.61L56.19,90a1.5,1.5,0,0,0,2.12,2.12Z"/></g></svg>