<svg xmlns="http://www.w3.org/2000/svg" viewBox="0 0 150 100"><defs><style>.b440fe32-0a54-4623-b1f6-5e3d3aeb767e{fill:#fdbbb9;isolation:isolate;}.baa6cab8-57bf-40a1-8ecf-a81c621617ee{fill:#1e1e21;}</style></defs><title>Expand</title><g id="f9fcdd29-cdc2-411f-815b-b9c7234f97f4" data-name="Diamonds"><rect class="b440fe32-0a54-4623-b1f6-5e3d3aeb767e" x="14.61" y="14.72" width="70.56" height="70.56" transform="translate(-20.74 49.93) rotate(-45)"/></g><g id="b55a8f89-18f7-40ee-ad15-61766cf4f6f9" data-name="Layer 1"><path class="baa6cab8-57bf-40a1-8ecf-a81c621617ee" d="M52.41,45.68c2.5,0,4,2.06,5.2,4,1.38,2.15,2.64,4.49,4.75,6a7.38,7.38,0,0,0,7.73.48c2.29-1.24,3.69-3.62,5-5.75,1.16-1.85,2.5-4.21,4.83-4.66s4.16,1.16,5.44,3c1.46,2.1,2.6,4.53,4.53,6.26a7.47,7.47,0,0,0,7.59,1.57c2.8-1,4.42-3.66,5.94-6.08,1.36-2.16,2.87-4.77,5.74-4.83,1.92,0,1.93-3,0-3-2.89.06-5,1.64-6.7,3.88-1.47,1.95-2.48,4.29-4.23,6a4.46,4.46,0,0,1-6,.51c-1.9-1.49-2.94-3.91-4.28-5.85-1.48-2.14-3.35-4.05-6-4.46a7.75,7.75,0,0,0-7.11,2.83c-2.44,2.85-5.14,10.6-10.22,8-2.35-1.23-3.53-4.14-5-6.23-1.76-2.57-4-4.59-7.25-4.66-1.94,0-1.94,3,0,3Z"/><path class="baa6cab8-57bf-40a1-8ecf-a81c621617ee" d="M114.5,44.14c0,.08,0,.17,0,.25,0,.25,0-.13,0-.15a4,4,0,0,0-.09.4,2,2,0,0,0-.08.22s.17-.34,0-.14-.15.28-.24.41.2-.21.06-.08a1.66,1.66,0,0,0-.13.14,1.14,1.14,0,0,1-.11.11c-.11.1-.28.16.06,0a3.78,3.78,0,0,0-.33.22.61.61,0,0,0-.14.07c-.24.14.36-.11,0,0l-.39.11c-.15,0-.23,0,.12,0l-.21,0-.42,0c-.21,0,.4.08.11,0l-.24-.06-.23-.07c-.13,0-.09-.12.14.05-.1-.07-.24-.12-.35-.19a.91.91,0,0,1-.16-.11c-.17-.09.29.26.08.07a2.13,2.13,0,0,0-.33-.34c.22.16.17.23.1.11a1.37,1.37,0,0,1-.13-.2l-.08-.13c-.08-.14-.07-.3,0,.06,0-.12-.09-.25-.12-.38l0-.16c-.07-.28,0,.4,0,0a2.41,2.41,0,0,1,0-.38c0-.14.09-.34,0,.07l0-.16c0-.13.08-.26.12-.39.09-.28-.18.32,0,.06a2.12,2.12,0,0,1,.12-.2l.1-.17c.09-.14.18-.1-.07.08.1-.07.18-.2.28-.28s.24-.19,0,0,0,0,0,0a4.19,4.19,0,0,0,.42-.24s-.36.14-.14.06l.23-.07c.08,0,.48-.09.2-.06s.19,0,.26,0h.21c.3,0-.33-.07-.07,0l.47.13c.27.09-.26-.14-.1,0l.25.13.13.09c.33.22-.17-.17,0,0l.28.28c.2.21-.2-.3,0-.05l.13.2c0,.06.07.14.11.2.13.24-.11-.33,0-.06s.09.31.13.47,0,.17,0-.16c0,.11,0,.23,0,.34a1.5,1.5,0,0,0,3,0,4.6,4.6,0,0,0-3-4.27,4.51,4.51,0,0,0-4.9,1.3,4.53,4.53,0,1,0,7.94,3,1.51,1.51,0,0,0-1.5-1.5A1.53,1.53,0,0,0,114.5,44.14Z"/><path class="baa6cab8-57bf-40a1-8ecf-a81c621617ee" d="M66,31.68h36.34a1.5,1.5,0,0,0,0-3H66a1.5,1.5,0,0,0,0,3Z"/><path class="baa6cab8-57bf-40a1-8ecf-a81c621617ee" d="M66,71.34h36.34a1.5,1.5,0,0,0,0-3H66a1.5,1.5,0,0,0,0,3Z"/><path class="baa6cab8-57bf-40a1-8ecf-a81c621617ee" d="M49.9,44.14a2.09,2.09,0,0,0,0,.25c0,.25,0-.13,0-.15a3.89,3.89,0,0,0-.1.4c0,.07-.06.15-.08.22s.17-.34.06-.14-.16.28-.25.41.21-.21.07-.08a1.66,1.66,0,0,0-.13.14l-.12.11c-.1.1-.28.16.06,0-.11.06-.21.15-.33.22l-.14.07c-.24.14.36-.11,0,0l-.39.11c-.16,0-.23,0,.11,0l-.21,0-.42,0c-.2,0,.41.08.12,0L48,45.61l-.23-.07c-.14,0-.09-.12.13.05-.1-.07-.24-.12-.34-.19l-.17-.11c-.16-.09.29.26.09.07A2.13,2.13,0,0,0,47.1,45c.21.16.17.23.09.11l-.13-.2L47,44.8c-.07-.14-.06-.3,0,.06,0-.12-.09-.25-.12-.38a.94.94,0,0,1,0-.16c-.06-.28,0,.4,0,0,0-.13,0-.25,0-.38s.1-.34,0,.07l0-.16c0-.13.07-.26.11-.39.09-.28-.17.32,0,.06,0-.06.07-.14.11-.2l.11-.17c.09-.14.17-.1-.07.08a3.57,3.57,0,0,0,.27-.28s.25-.19,0,0,0,0,0,0a4,4,0,0,0,.41-.24s-.36.14-.13.06l.23-.07c.08,0,.48-.09.2-.06s.18,0,.26,0h.21c.3,0-.34-.07-.07,0l.47.13c.27.09-.26-.14-.1,0a1.83,1.83,0,0,0,.24.13l.14.09c.32.22-.18-.17,0,0l.28.28c.21.21-.2-.3,0-.05a1.37,1.37,0,0,1,.13.2l.12.2c.13.24-.11-.33,0-.06s.09.31.13.47,0,.17,0-.16a1.94,1.94,0,0,0,0,.34,1.5,1.5,0,0,0,3,0,4.6,4.6,0,0,0-3-4.27,4.51,4.51,0,0,0-4.9,1.3,4.53,4.53,0,1,0,7.95,3,1.5,1.5,0,0,0-3,0Z"/><path class="baa6cab8-57bf-40a1-8ecf-a81c621617ee" d="M94.47,21.73,104,31.21V29.09l-9.48,9.48a1.5,1.5,0,0,0,2.12,2.12l9.48-9.48a1.52,1.52,0,0,0,0-2.12l-9.48-9.48a1.5,1.5,0,0,0-2.12,2.12Z"/><path class="baa6cab8-57bf-40a1-8ecf-a81c621617ee" d="M94.47,61.43,104,70.91V68.79l-9.48,9.48a1.5,1.5,0,0,0,2.12,2.12l9.48-9.48a1.52,1.52,0,0,0,0-2.12l-9.48-9.48a1.5,1.5,0,0,0-2.12,2.12Z"/><path class="baa6cab8-57bf-40a1-8ecf-a81c621617ee" d="M71.54,19.61l-9.48,9.48a1.53,1.53,0,0,0,0,2.12l9.48,9.48a1.5,1.5,0,0,0,2.12-2.12l-9.48-9.48v2.12l9.48-9.48a1.5,1.5,0,0,0-2.12-2.12Z"/><path class="baa6cab8-57bf-40a1-8ecf-a81c621617ee" d="M71.54,59.31l-9.48,9.48a1.53,1.53,0,0,0,0,2.12l9.48,9.48a1.5,1.5,0,0,0,2.12-2.12l-9.48-9.48v2.12l9.48-9.48a1.5,1.5,0,0,0-2.12-2.12Z"/></g></svg>