<svg xmlns="http://www.w3.org/2000/svg" viewBox="0 0 150 100"><defs><style>.a3ea52d0-dbbb-4086-ade6-192c64c07c67{fill:#fdbbb9;isolation:isolate;}.af7ae840-5844-4cf8-b315-7be3834e3a41{fill:#1e1e21;}</style></defs><title>Flexible</title><g id="bddbe619-62da-40c1-8c47-42fed78ba15b" data-name="Diamonds"><rect class="a3ea52d0-dbbb-4086-ade6-192c64c07c67" x="14.61" y="14.72" width="70.56" height="70.56" transform="translate(-20.74 49.93) rotate(-45)"/></g><g id="be0da854-6137-412e-bf45-48431b777dff" data-name="Layer 1"><path class="af7ae840-5844-4cf8-b315-7be3834e3a41" d="M78.89,64.28a21.89,21.89,0,0,1,10.5,3.6c2.45,1.65,4.38,3.9,6.51,5.91A23.64,23.64,0,0,0,108.57,80a43.83,43.83,0,0,0,12.32,0,1.55,1.55,0,0,0,1.5-1.5l0-17.44.07-27.79V26.94a1.53,1.53,0,0,0-1.5-1.5c-7.51-.67-15.24.12-22,3.56a32.74,32.74,0,0,0-14,14.45C79.24,54.28,77.05,67.8,65.4,74.17c-6.74,3.68-14.76,4-22.22,2.91l1.1,1.45V26.94l-1.5,1.5c6.16-.77,12.93-.81,18.56,2.18,5,2.67,8,7.78,13,10.53a25.86,25.86,0,0,0,12.11,3.1c1.93,0,1.93-3,0-3a22.6,22.6,0,0,1-10.59-2.69c-2.85-1.58-5-3.88-7.34-6.14a24,24,0,0,0-13.12-6.88,43.18,43.18,0,0,0-12.64-.1,1.54,1.54,0,0,0-1.5,1.5V78.53A1.5,1.5,0,0,0,42.38,80c7.17,1,14.69,1,21.49-1.78a29.34,29.34,0,0,0,13.6-11.48C84.27,56.13,85.63,42,96.31,34.14c7.12-5.28,16.07-6.47,24.69-5.7l-1.5-1.5,0,17.44-.06,27.78v6.36l1.5-1.5c-6,.74-12.52.81-18-1.92-4.72-2.34-7.64-6.9-11.94-9.81a25,25,0,0,0-12-4c-1.92-.16-1.91,2.84,0,3Z"/><path class="af7ae840-5844-4cf8-b315-7be3834e3a41" d="M72.21,31.61H87.09a1.52,1.52,0,0,0,1.5-1.5V15.23a1.5,1.5,0,0,0-3,0V30.11l1.5-1.5H72.21a1.5,1.5,0,0,0,0,3Z"/><path class="af7ae840-5844-4cf8-b315-7be3834e3a41" d="M111.21,59.37,100.68,48.85a1.51,1.51,0,0,0-2.12,0L88,59.37a1.5,1.5,0,0,0,2.12,2.12L100.68,51H98.56l10.52,10.52a1.5,1.5,0,0,0,2.13-2.12Z"/><path class="af7ae840-5844-4cf8-b315-7be3834e3a41" d="M98.12,49.91a31.6,31.6,0,0,1-5.06,20.15A31.7,31.7,0,0,1,78.41,81.72a32.57,32.57,0,0,1-5.14,1.6c-1.88.42-1.08,3.31.8,2.9,12.77-2.84,23.41-12.83,26.3-25.7a35.37,35.37,0,0,0,.75-10.61c-.16-1.91-3.16-1.93-3,0Z"/><path class="af7ae840-5844-4cf8-b315-7be3834e3a41" d="M88.39,29.36A34.5,34.5,0,0,0,54.86,15.3c-1.9.3-1.09,3.19.8,2.89A31.37,31.37,0,0,1,85.8,30.87c1.11,1.56,3.71.06,2.59-1.51Z"/></g></svg>