<svg xmlns="http://www.w3.org/2000/svg" viewBox="0 0 150 100"><defs><style>.a0c991ca-bf27-48f0-aa4f-5d80026599c9{fill:#fdbbb9;isolation:isolate;}</style></defs><title>happy</title><g id="bf4f3153-b485-40c2-9a6b-e96879437bcd" data-name="Diamonds"><rect class="a0c991ca-bf27-48f0-aa4f-5d80026599c9" x="14.61" y="14.72" width="70.56" height="70.56" transform="translate(-20.74 49.93) rotate(-45)"/></g><g id="bf9bb610-f060-415d-b94d-75ef156b25c7" data-name="Layer 1"><path d="M85.64,68V85.06a1.5,1.5,0,0,0,3,0V68a1.5,1.5,0,0,0-3,0Z"/><path d="M64.59,85.06v-22l-1.5,1.5A7.42,7.42,0,0,0,70,57.27a1.52,1.52,0,0,0-1.5-1.5H63.09l1.5,1.5V46.12c0-4.29-.73-9.47,1.48-13.33a1.5,1.5,0,0,0-2.59-1.51c-2,3.52-1.89,7.16-1.89,11v15a1.52,1.52,0,0,0,1.5,1.5h5.39L67,57.27a4.35,4.35,0,0,1-3.89,4.28,1.54,1.54,0,0,0-1.5,1.5v22a1.5,1.5,0,0,0,3,0Z"/><path d="M62.5,50.09H51.06a1.5,1.5,0,0,0,0,3H62.5a1.5,1.5,0,0,0,0-3Z"/><path d="M69.36,49.11a1.5,1.5,0,0,0,0-3,1.5,1.5,0,0,0,0,3Z"/><path d="M68.59,16.86a29.63,29.63,0,0,1,4.12,2.63A10.48,10.48,0,0,0,76.82,21c2.9.41,5.81-.23,8.65-.8C88.05,19.68,91,19,93.56,20c2.93,1.19,4.1,4.45,4.49,7.35.52,3.75,0,7.59,1,11.28a19.8,19.8,0,0,0,4.82,8c4.48,4.82,10.57,8.24,13.6,14.29a9.63,9.63,0,0,1,.25,9A11.52,11.52,0,0,1,111,75.21c-6.83,2.11-14.16-1.58-19.55-5.55a24.56,24.56,0,0,1-6.67-7.07,20.66,20.66,0,0,1-2.54-9.49c-.43-6.43-.46-13.63-6-18.06a21.14,21.14,0,0,0-7.73-3.56c-2.33-.65-5.33-1-7.27-2.55s-2-4.48-1.38-6.64a8.25,8.25,0,0,1,4.93-5.56,5.61,5.61,0,0,1,3.79.13c1.83.65,2.61-2.25.8-2.89-6.25-2.22-12,3.34-12.77,9.33-.34,2.75.38,5.93,2.56,7.79s5.05,2.35,7.68,3.05c3,.8,6.06,1.69,8.29,3.94,2.61,2.64,3.45,6.36,3.75,9.94s.22,7.45,1.15,11.06a21.45,21.45,0,0,0,5.27,9.18c5,5.3,12.33,9.63,19.62,10.43,6.65.73,14.18-2.6,16.31-9.35,2.34-7.36-3.33-14.15-8.49-18.64a67.44,67.44,0,0,1-7.61-7.12,16.35,16.35,0,0,1-3.8-10.38c-.16-3.77-.08-7.56-1.7-11.06a9.45,9.45,0,0,0-7.34-5.5c-6.07-.83-12.81,3.73-18.41.05A27.57,27.57,0,0,0,69.39,14C67.61,13.23,66.83,16.13,68.59,16.86Z"/></g></svg>