<svg xmlns="http://www.w3.org/2000/svg" viewBox="0 0 150 100"><defs><style>.bbfbd624-a556-405a-bc48-104c2d5331c4{fill:#fdbbb9;isolation:isolate;}</style></defs><title>hearts</title><g id="f888b516-ef27-428a-bc99-12ad47ef45cf" data-name="Diamonds"><rect class="bbfbd624-a556-405a-bc48-104c2d5331c4" x="14.61" y="14.72" width="70.56" height="70.56" transform="translate(-20.74 49.93) rotate(-45)"/></g><g id="a67d24ae-b8b5-40e1-a0c3-f2adb8877baa" data-name="Layer 1"><path d="M61,40.34A13.15,13.15,0,0,0,50.91,52h3a13,13,0,0,0-25.83,0,12.73,12.73,0,0,0,3.47,9.87,28.1,28.1,0,0,0,2.53,2.22l9.7,8c2.51,2.09,5.15,4.09,7.57,6.29a1.54,1.54,0,0,0,2.12,0c.69-.69,1.53-1.28,2.28-1.9L61.13,72l10.35-8.58a14,14,0,0,0,4.9-7.18,1.5,1.5,0,0,0-2.89-.8c-1.11,4.11-5,6.55-8.07,9.13L54.1,74c-.9.75-1.92,1.45-2.75,2.29h2.12c-1.66-1.52-3.47-2.89-5.2-4.33l-9.46-7.83c-2-1.68-4.67-3.41-6.15-5.63A10,10,0,1,1,50.91,52a1.5,1.5,0,0,0,3,0,10.09,10.09,0,0,1,7.9-8.73c1.88-.44,1.09-3.33-.8-2.9Z"/><path d="M115.39,39.19a11.2,11.2,0,0,0-11,10.18h3a11,11,0,0,0-22,0c-.41,4.28,1.83,7.58,5,10.18l8,6.62c2.13,1.77,4.52,3.42,6.48,5.38a1.53,1.53,0,0,0,2.12,0c1-1,2.16-1.8,3.22-2.68l6.66-5.53L122,59.05a11.36,11.36,0,0,0,4.4-8,11.23,11.23,0,0,0-7.55-11.3l1.05,1.85a17.86,17.86,0,0,0-.15-9A16.07,16.07,0,0,0,88.35,36h3a16.09,16.09,0,0,0-32.12.79,15.89,15.89,0,0,0,5.56,12.65c1.55,1.33,3.15,2.61,4.72,3.91l7.93,6.58L84.82,66c1.31,1.08,2.77,2.1,4,3.3a1.52,1.52,0,0,0,2.12,0c2-2,4.47-3.72,6.67-5.54,1.49-1.24-.64-3.35-2.12-2.12-2.2,1.82-4.65,3.52-6.67,5.54h2.12c-.81-.81-1.79-1.5-2.68-2.23l-6-4.94-7.2-6-5.74-4.76a23.47,23.47,0,0,1-5-4.86,13.11,13.11,0,1,1,24-8.46,1.5,1.5,0,0,0,3,0,13.08,13.08,0,0,1,25.25-3.32,14.47,14.47,0,0,1,.41,8.14,1.55,1.55,0,0,0,1,1.85,8.19,8.19,0,0,1,5.22,9.24c-.5,2.4-2.09,4-3.88,5.47l-11.1,9.2c-1.14.94-2.42,1.83-3.46,2.87H107c-1.3-1.29-2.88-2.39-4.29-3.56L95,59.46c-1.64-1.36-3.71-2.72-5-4.43a8,8,0,1,1,14.45-5.66,1.5,1.5,0,0,0,3,0,8.13,8.13,0,0,1,8-7.18c1.93,0,1.93-3,0-3Z"/></g></svg>