<svg xmlns="http://www.w3.org/2000/svg" viewBox="0 0 150 100"><defs><style>.a4d8324a-c477-48d2-8046-a0a573ba1d79{fill:#fdbbb9;isolation:isolate;}.af2efae5-aea2-465a-902f-8ccdcebe798a{font-size:14.73px;font-family:Overpass-Bold, Overpass;font-weight:700;}.b85cd7af-09b9-4364-8239-d025df89aaff{letter-spacing:0em;}.e22e2f96-ad98-47fa-b378-c66599b9857a{letter-spacing:-0.01em;}.a1900514-7472-4951-bc3e-5c9b666caade{letter-spacing:0em;}</style></defs><title>no_devops</title><g id="b1394f63-bac8-43b0-b92b-261b5adff5f4" data-name="Diamonds"><rect class="a4d8324a-c477-48d2-8046-a0a573ba1d79" x="14.61" y="14.72" width="70.56" height="70.56" transform="translate(-20.74 49.93) rotate(-45)"/></g><g id="b90024fb-c2b7-426e-a44c-a0d5abfc4867" data-name="Layer 1"><text class="af2efae5-aea2-465a-902f-8ccdcebe798a" transform="translate(51.46 56.04)"><tspan class="b85cd7af-09b9-4364-8239-d025df89aaff">De</tspan><tspan class="e22e2f96-ad98-47fa-b378-c66599b9857a" x="18.29" y="0">v</tspan><tspan x="26.02" y="0">O</tspan><tspan class="a1900514-7472-4951-bc3e-5c9b666caade" x="36.83" y="0">p</tspan><tspan x="45.17" y="0">s</tspan></text><path d="M101.5,73.89A33.78,33.78,0,0,1,44,46.75,33.81,33.81,0,1,1,101.5,73.89,1.5,1.5,0,0,0,103.62,76,36.77,36.77,0,0,0,74.19,13.38a36.78,36.78,0,0,0-17,67.24,37.07,37.07,0,0,0,42-.82A40.18,40.18,0,0,0,103.62,76C105,74.65,102.88,72.53,101.5,73.89Z"/><path d="M85.82,43.91l15.59-15.58,2.21-2.22A1.5,1.5,0,0,0,101.5,24L85.92,39.57,83.7,41.79a1.5,1.5,0,0,0,2.12,2.12Z"/><path d="M53.72,76,68.46,61.27l2.1-2.09a1.5,1.5,0,0,0-2.12-2.12L53.7,71.79l-2.1,2.1A1.5,1.5,0,0,0,53.72,76Z"/></g></svg>