<svg xmlns="http://www.w3.org/2000/svg" viewBox="0 0 150 100"><defs><style>.fe36f3b9-a65d-4da7-9194-f649c0269b8b{fill:#fdbbb9;isolation:isolate;}</style></defs><title>people</title><g id="a7efe0e6-60c9-4063-8820-ec3afe037eeb" data-name="Diamonds"><rect class="fe36f3b9-a65d-4da7-9194-f649c0269b8b" x="14.61" y="14.72" width="70.56" height="70.56" transform="translate(-20.74 49.93) rotate(-45)"/></g><g id="a785690c-eb7c-4eec-919e-6a24f5c9419a" data-name="Layer 1"><path d="M59.74,61.42c-3,0-2.32-4-2.32-5.91V46.76c0-1.21.32-2.36,1.62-2.78a2.35,2.35,0,0,1,3,2.31c.08,2.62,0,5.26,0,7.88v4.37c0,1.48-.63,2.82-2.32,2.88-1.92.07-1.93,3.07,0,3a5.42,5.42,0,0,0,5.32-5.33c0-1.1,0-2.2,0-3.3,0-3.17.07-6.35,0-9.51a5.31,5.31,0,0,0-10.59-.65,28.09,28.09,0,0,0,0,3.18v5.75c0,1.49,0,3,0,4.46a5.41,5.41,0,0,0,5.32,5.4A1.5,1.5,0,0,0,59.74,61.42Z"/><path d="M64.14,52.24h3.53a1.5,1.5,0,0,0,1.5-1.5,1.53,1.53,0,0,0-1.5-1.5H64.14a1.58,1.58,0,0,0-1.06.44,1.56,1.56,0,0,0-.44,1.06,1.53,1.53,0,0,0,1.5,1.5Z"/><path d="M63.16,59.15a10.66,10.66,0,0,1,7,8,24.9,24.9,0,0,1,.17,4.65V82.44l1.5-1.5H47.7l1.5,1.5V71.34a17.79,17.79,0,0,1,.46-5.3,10.62,10.62,0,0,1,6.67-6.9c1.81-.64,1-3.54-.8-2.9A13.77,13.77,0,0,0,46.2,69.13c0,3.14,0,6.27,0,9.41v3.9a1.52,1.52,0,0,0,1.5,1.5H71.78a1.52,1.52,0,0,0,1.5-1.5V70.88a17.71,17.71,0,0,0-.86-6.5A13.82,13.82,0,0,0,64,56.26c-1.82-.65-2.6,2.25-.79,2.89Z"/><path d="M103.45,61.42c-3,0-2.31-4-2.31-5.91V46.76c0-1.21.31-2.36,1.61-2.78a2.35,2.35,0,0,1,3,2.31c.08,2.62,0,5.26,0,7.88v4.37c0,1.48-.63,2.82-2.32,2.88-1.92.07-1.93,3.07,0,3a5.42,5.42,0,0,0,5.32-5.33c0-1.1,0-2.2,0-3.3,0-3.17.07-6.35,0-9.51a5.31,5.31,0,0,0-10.59-.65,28.09,28.09,0,0,0,0,3.18v5.75c0,1.49,0,3,0,4.46a5.39,5.39,0,0,0,5.31,5.4A1.5,1.5,0,0,0,103.45,61.42Z"/><path d="M107.86,52.24h3.52a1.56,1.56,0,0,0,1.06-.44,1.5,1.5,0,0,0-1.06-2.56h-3.52a1.54,1.54,0,0,0-1.06.44,1.47,1.47,0,0,0-.44,1.06,1.52,1.52,0,0,0,1.5,1.5Z"/><path d="M106.87,59.15a10.66,10.66,0,0,1,6.95,8,24.9,24.9,0,0,1,.17,4.65V82.44l1.5-1.5H91.41l1.5,1.5V71.34a18.13,18.13,0,0,1,.46-5.3,10.62,10.62,0,0,1,6.67-6.9c1.81-.64,1-3.54-.8-2.9a13.79,13.79,0,0,0-9.33,12.89c0,3.14,0,6.27,0,9.41v3.9a1.52,1.52,0,0,0,1.5,1.5h24.08a1.52,1.52,0,0,0,1.5-1.5V70.88a17.5,17.5,0,0,0-.86-6.5,13.82,13.82,0,0,0-8.46-8.12c-1.83-.65-2.61,2.25-.8,2.89Z"/><path d="M81.6,36.61c-3,0-2.32-4-2.32-5.91V21.94c0-1.2.32-2.35,1.61-2.77a2.34,2.34,0,0,1,3,2.31c.09,2.62,0,5.25,0,7.87v4.37c0,1.48-.63,2.82-2.31,2.89-1.93.07-1.94,3.07,0,3a5.42,5.42,0,0,0,5.31-5.34c0-1.1,0-2.2,0-3.3,0-3.17.08-6.34,0-9.51a5.31,5.31,0,0,0-10.59-.65,28.12,28.12,0,0,0,0,3.18v5.75c0,1.49,0,3,0,4.46a5.41,5.41,0,0,0,5.32,5.41A1.5,1.5,0,0,0,81.6,36.61Z"/><path d="M86,27.42h3.52a1.5,1.5,0,0,0,1.5-1.5,1.52,1.52,0,0,0-1.5-1.5H86a1.56,1.56,0,0,0-1.06.44A1.5,1.5,0,0,0,86,27.42Z"/><path d="M71.06,44.3a10.68,10.68,0,0,1,7.12-10,1.53,1.53,0,0,0,1-1.84,1.51,1.51,0,0,0-1.84-1A13.72,13.72,0,0,0,68.06,44.3a1.5,1.5,0,0,0,3,0Z"/><path d="M85,34.33a10.64,10.64,0,0,1,7.13,10,1.5,1.5,0,0,0,3,0,13.73,13.73,0,0,0-9.33-12.86,1.5,1.5,0,1,0-.8,2.89Z"/></g></svg>