<svg xmlns="http://www.w3.org/2000/svg" viewBox="0 0 150 100"><defs><style>.ab4afb79-6217-4485-9fda-a3c3e35f2361{fill:#fdbbb9;isolation:isolate;}</style></defs><title>power</title><g id="a646acd9-959a-4a65-b448-72c571bee7e2" data-name="Diamonds"><rect class="ab4afb79-6217-4485-9fda-a3c3e35f2361" x="14.61" y="14.72" width="70.56" height="70.56" transform="translate(-20.74 49.93) rotate(-45)"/></g><g id="b3774357-a447-449b-9908-4fd4c7a00103" data-name="Layer 1"><path d="M91.31,80.46H71.16l1.5,1.5V26.56l-1.5,1.5H91.31l-1.5-1.5V82a1.5,1.5,0,0,0,3,0V26.56a1.52,1.52,0,0,0-1.5-1.5H71.16a1.52,1.52,0,0,0-1.5,1.5V82a1.52,1.52,0,0,0,1.5,1.5H91.31A1.5,1.5,0,0,0,91.31,80.46Z"/><path d="M72.11,43.17H90.36a1.5,1.5,0,0,0,0-3H72.11a1.5,1.5,0,0,0,0,3Z"/><path d="M76.76,26.56V21.84l-1.5,1.5h12l-1.5-1.5v4.09a1.5,1.5,0,0,0,3,0V21.84a1.52,1.52,0,0,0-1.5-1.5h-12a1.52,1.52,0,0,0-1.5,1.5v4.72a1.5,1.5,0,0,0,3,0Z"/><path d="M110.65,28.86h8a1.51,1.51,0,0,0,1.29-2.26L107.39,6.12l-1.81-2.94a1.51,1.51,0,0,0-2.79.76V27.32a1.5,1.5,0,0,0,3,0V3.94l-2.8.75,12.56,20.49,1.8,2.94,1.3-2.26h-8a1.5,1.5,0,0,0,0,3Z"/><path d="M109.15,27.36V50.74L112,50,99.38,29.5l-1.8-2.94-1.3,2.26h8a1.5,1.5,0,0,0,0-3h-8A1.51,1.51,0,0,0,95,28.07l12.56,20.49,1.81,2.94a1.51,1.51,0,0,0,2.79-.76V27.36a1.5,1.5,0,0,0-3,0Z"/><path d="M58.19,74.18h8a1.51,1.51,0,0,0,1.29-2.25L54.93,51.44l-1.8-2.94a1.52,1.52,0,0,0-2.8.76V72.64a1.5,1.5,0,0,0,3,0V49.26L50.54,50,63.09,70.5l1.8,2.94,1.3-2.26h-8a1.5,1.5,0,0,0,0,3Z"/><path d="M56.69,72.68V96.06l2.8-.75L46.92,74.82l-1.8-2.94-1.3,2.26h8a1.5,1.5,0,0,0,0-3h-8a1.51,1.51,0,0,0-1.29,2.26L55.09,93.88l1.81,2.94a1.51,1.51,0,0,0,2.79-.76V72.68a1.5,1.5,0,0,0-3,0Z"/></g></svg>