<svg xmlns="http://www.w3.org/2000/svg" viewBox="0 0 150 100"><defs><style>.fc106761-a1b9-4b69-accb-818f2f787c1d{fill:#fdbbb9;isolation:isolate;}</style></defs><title>sad</title><g id="bb4dbd2c-9fbe-498a-ba13-aec284f33ae9" data-name="Diamonds"><rect class="fc106761-a1b9-4b69-accb-818f2f787c1d" x="14.61" y="14.72" width="70.56" height="70.56" transform="translate(-20.74 49.93) rotate(-45)"/></g><g id="a4652a97-407f-4642-824a-9b9882c0eb13" data-name="Layer 1"><path d="M97.56,51.45H109a1.5,1.5,0,0,0,0-3H97.56a1.5,1.5,0,0,0,0,3Z"/><path d="M90.7,47.47a1.5,1.5,0,0,0,0-3,1.5,1.5,0,0,0,0,3Z"/><path d="M90.67,12.33c-3.16,1.3-5.38,4.07-9,4.17-3.18.08-6.27-.95-9.4-1.39s-6.27-.32-8.85,1.6-3.94,5.37-4.38,8.63c-.55,4.05.12,8.3-1.41,12.18-1.28,3.25-3.84,5.82-6.39,8.11-5.23,4.71-11.82,9.45-12.84,17-1,7,4.52,12.76,11.09,14.18,7.57,1.62,15.4-2.16,21.28-6.65A27.51,27.51,0,0,0,78,62.3a23.63,23.63,0,0,0,2.82-10.43c.27-3.61.18-7.32,1.33-10.79A11.52,11.52,0,0,1,88.64,34c4.9-2.14,12.41-1.81,14.39-7.87,1.84-5.64-1.84-13-7.87-14.13a8.47,8.47,0,0,0-4.49.36c-1.81.64-1,3.54.8,2.89,5.4-1.92,10,4.29,8.88,9.3C99.81,27,98.1,28,95.85,28.67a79.43,79.43,0,0,0-8.42,2.58,14.22,14.22,0,0,0-6.58,5.56,21.2,21.2,0,0,0-2.69,9.57c-.28,3.36-.19,6.78-1,10.07a18.35,18.35,0,0,1-4.81,8.33,34.55,34.55,0,0,1-8,6,24.19,24.19,0,0,1-10.3,3.36c-6,.31-12.95-3.47-12.75-10.19S48,52.45,52.66,48.4a33,33,0,0,0,6.39-7.06,19.83,19.83,0,0,0,2.67-10c.13-3.34,0-6.92,1.61-10,1.48-2.72,4.09-3.63,7-3.45,5.74.34,11.56,3.31,17-.06a29.63,29.63,0,0,1,4.12-2.63C93.23,14.49,92.46,11.59,90.67,12.33Z"/><path d="M74.42,83.42V66.34a1.5,1.5,0,0,0-3,0V83.42a1.5,1.5,0,0,0,3,0Z"/><path d="M98.47,83.42V60.58a1.52,1.52,0,0,0-1.5-1.5H91.35l1.5,1.5c0-2.38,2.26-2.75,4.12-2.67a1.52,1.52,0,0,0,1.5-1.5V37.25a14.91,14.91,0,0,0-1.89-7.61A1.5,1.5,0,0,0,94,31.16c1.84,3.19,1.48,6.78,1.48,10.32V56.41l1.5-1.5a7.52,7.52,0,0,0-4.4.82,5.77,5.77,0,0,0-2.72,4.85,1.52,1.52,0,0,0,1.5,1.5H97l-1.5-1.5V83.42a1.5,1.5,0,0,0,3,0Z"/></g></svg>