<svg xmlns="http://www.w3.org/2000/svg" viewBox="0 0 150 100"><defs><style>.b65d62f5-b6ce-4b76-9a99-bc22cb00c980{fill:#fdbbb9;isolation:isolate;}.a53c0ebc-61de-42fc-98e5-451fe52e2e3c{fill:#1e1e21;}</style></defs><title>secure_password</title><g id="f97247ef-e7be-4b0e-aae8-d1ab4546eb5c" data-name="Diamonds"><rect class="b65d62f5-b6ce-4b76-9a99-bc22cb00c980" x="14.61" y="14.72" width="70.56" height="70.56" transform="translate(-20.74 49.93) rotate(-45)"/></g><g id="ad4d818e-e6e8-44a3-a7b4-2abc7de930d8" data-name="Layer 1"><path class="a53c0ebc-61de-42fc-98e5-451fe52e2e3c" d="M78.53,65.56,87.6,40.84l1.29-3.52c.67-1.82-2.23-2.6-2.89-.8L76.93,61.23l-1.29,3.53c-.67,1.82,2.23,2.6,2.89.8Z"/><path class="a53c0ebc-61de-42fc-98e5-451fe52e2e3c" d="M59.13,50.83c0,.12,0,.24,0,.36l.06-.4c0,.13,0,.27-.09.4l-.06.16c0,.17.17-.35.06-.14a3.87,3.87,0,0,1-.21.34c-.13.2.22-.24.09-.12l-.13.15-.12.11c-.19.18.31-.21.09-.07l-.31.19c-.24.14.14,0,.14-.05a1.07,1.07,0,0,1-.19.07,2.88,2.88,0,0,1-.4.09l.39-.06a2.73,2.73,0,0,1-.7,0l.4.06a2.59,2.59,0,0,1-.4-.09l-.16-.06c-.17-.05.34.17.14.06l-.35-.21c-.19-.13.24.22.12.09l-.14-.13-.12-.12c-.18-.19.21.31.07.09l-.19-.31c-.13-.24,0,.14.06.14a1.07,1.07,0,0,1-.07-.19,2.88,2.88,0,0,1-.09-.4l0,.4a2.81,2.81,0,0,1,0-.71l0,.4a2.59,2.59,0,0,1,.09-.4,1.42,1.42,0,0,0,.05-.16c.06-.17-.17.34-.05.14s.13-.23.2-.35-.21.24-.09.12.09-.1.14-.14l.12-.12c.18-.18-.31.21-.1.07l.32-.19c.24-.13-.14,0-.15.06a1.18,1.18,0,0,1,.2-.07,2.59,2.59,0,0,1,.4-.09l-.4,0a2.73,2.73,0,0,1,.7,0l-.39,0a2.88,2.88,0,0,1,.4.09l.16,0c.17.06-.35-.17-.14,0a3.79,3.79,0,0,1,.34.2c.2.13-.24-.21-.12-.09l.15.14.11.12c.18.18-.21-.31-.07-.1l.19.32c.14.24,0-.14,0-.15a1.18,1.18,0,0,1,.07.2c0,.13.06.26.09.4l-.06-.4c0,.12,0,.23,0,.35a1.5,1.5,0,0,0,3,0A4.15,4.15,0,0,0,59.39,47,4,4,0,0,0,55,48.16a4.35,4.35,0,0,0-1,2.42,4,4,0,0,0,.55,2.32,4.06,4.06,0,0,0,1.7,1.56,4.31,4.31,0,0,0,2.65.33,4.09,4.09,0,0,0,3.2-4,1.5,1.5,0,0,0-3,0Z"/><path class="a53c0ebc-61de-42fc-98e5-451fe52e2e3c" d="M46.41,50.83c0,.12,0,.24,0,.36l0-.4a2.88,2.88,0,0,1-.09.4c0,.05,0,.11-.05.16s.17-.35.05-.14a3.79,3.79,0,0,1-.2.34c-.13.2.21-.24.09-.12l-.14.15-.12.11c-.18.18.31-.21.1-.07l-.32.19c-.24.14.14,0,.15-.05a1.07,1.07,0,0,1-.19.07,3,3,0,0,1-.41.09l.4-.06a2.73,2.73,0,0,1-.7,0l.4.06a2.71,2.71,0,0,1-.41-.09l-.16-.06c-.16-.05.35.17.14.06s-.23-.13-.34-.21.24.22.12.09l-.15-.13-.11-.12c-.18-.19.21.31.07.09s-.13-.21-.19-.31,0,.14,0,.14a.6.6,0,0,1-.06-.19,1.92,1.92,0,0,1-.09-.4l0,.4a2.81,2.81,0,0,1,0-.71l0,.4a1.79,1.79,0,0,1,.09-.4.75.75,0,0,1,.05-.16c0-.17-.17.34-.06.14l.21-.35c.13-.19-.22.24-.09.12a1.66,1.66,0,0,0,.13-.14l.13-.12c.18-.18-.32.21-.1.07l.31-.19c.24-.13-.13,0-.14.06a1.07,1.07,0,0,1,.19-.07,2.71,2.71,0,0,1,.41-.09l-.4,0a2.73,2.73,0,0,1,.7,0l-.4,0a3,3,0,0,1,.41.09l.16,0c.16.06-.35-.17-.15,0l.35.2c.19.13-.24-.21-.12-.09s.1.09.14.14l.12.12c.18.18-.21-.31-.07-.1l.19.32c.13.24,0-.14-.06-.15a.68.68,0,0,1,.07.2,2.59,2.59,0,0,1,.09.4l0-.4c0,.12,0,.23,0,.35a1.5,1.5,0,0,0,3,0A4.12,4.12,0,0,0,46.67,47a4,4,0,0,0-4.36,1.16,4.33,4.33,0,0,0-1,2.42,3.92,3.92,0,0,0,.55,2.32,4,4,0,0,0,1.69,1.56,4.32,4.32,0,0,0,2.65.33,4.07,4.07,0,0,0,3.2-4,1.5,1.5,0,0,0-3,0Z"/><path class="a53c0ebc-61de-42fc-98e5-451fe52e2e3c" d="M71.84,50.83c0,.12,0,.24,0,.36l.05-.4a2.88,2.88,0,0,1-.09.4l-.06.16c0,.17.17-.35.06-.14a3.79,3.79,0,0,1-.2.34c-.13.2.21-.24.09-.12l-.14.15-.12.11c-.18.18.31-.21.09-.07l-.31.19c-.24.14.14,0,.14-.05s-.17.06-.19.07a2.59,2.59,0,0,1-.4.09l.4-.06a2.81,2.81,0,0,1-.71,0l.4.06a2.88,2.88,0,0,1-.4-.09l-.16-.06c-.17-.05.35.17.14.06a3.87,3.87,0,0,1-.34-.21c-.2-.13.23.22.12.09L70,51.58l-.11-.12c-.18-.19.21.31.07.09s-.13-.21-.19-.31,0,.14,0,.14a1.07,1.07,0,0,1-.07-.19,2.88,2.88,0,0,1-.09-.4l.06.4a2.81,2.81,0,0,1,0-.71l-.06.4a2.59,2.59,0,0,1,.09-.4l.06-.16c.05-.17-.17.34-.06.14s.13-.23.21-.35-.22.24-.09.12a1.66,1.66,0,0,1,.13-.14l.12-.12c.18-.18-.31.21-.09.07l.31-.19c.24-.13-.14,0-.14.06a1.07,1.07,0,0,1,.19-.07,2.88,2.88,0,0,1,.4-.09l-.4,0a2.81,2.81,0,0,1,.71,0l-.4,0a2.59,2.59,0,0,1,.4.09l.16,0c.17.06-.35-.17-.14,0a3.79,3.79,0,0,1,.34.2c.2.13-.23-.21-.12-.09l.15.14.11.12c.19.18-.2-.31-.06-.1l.19.32c.13.24,0-.14-.06-.15a1.18,1.18,0,0,1,.07.2,2.59,2.59,0,0,1,.09.4l-.05-.4c0,.12,0,.23,0,.35a1.5,1.5,0,0,0,3,0A4.13,4.13,0,0,0,72.1,47a4,4,0,0,0-4.36,1.16,4.35,4.35,0,0,0-1,2.42A4,4,0,0,0,69,54.46a4.32,4.32,0,0,0,2.65.33,4.09,4.09,0,0,0,3.2-4,1.5,1.5,0,0,0-3,0Z"/><path class="a53c0ebc-61de-42fc-98e5-451fe52e2e3c" d="M92.07,53.16l-.32-1-.29,1-1.25,1.66-1.49-1.07L90,52.06l.83-.52h-1l-1.84-.61.58-1.77,1.86.59.76.55-.32-.9v-2h1.88v2l-.31.92.78-.57L95,49.15l.57,1.77-1.82.61h-1l.83.52,1.23,1.69L93.3,54.82Z"/><path class="a53c0ebc-61de-42fc-98e5-451fe52e2e3c" d="M104.78,53.16l-.31-1-.3,1-1.25,1.66-1.49-1.07,1.23-1.69.84-.52h-1l-1.84-.61.57-1.77,1.86.59.76.55-.31-.9v-2h1.87v2l-.31.92.78-.57,1.84-.59.58,1.77-1.83.61h-1l.83.52,1.24,1.69L106,54.82Z"/><path class="a53c0ebc-61de-42fc-98e5-451fe52e2e3c" d="M117.49,53.16l-.31-1-.3,1-1.24,1.66-1.5-1.07,1.23-1.69.84-.52h-1l-1.84-.61.57-1.77,1.86.59.77.55-.32-.9v-2h1.88v2l-.31.92.78-.57,1.84-.59.57,1.77-1.82.61h-1l.84.52,1.23,1.69-1.49,1.07Z"/><path class="a53c0ebc-61de-42fc-98e5-451fe52e2e3c" d="M50.7,30.81h55.66a1.5,1.5,0,0,0,0-3H50.7a1.5,1.5,0,0,0,0,3Z"/><path class="a53c0ebc-61de-42fc-98e5-451fe52e2e3c" d="M50.7,72.39h55.66a1.5,1.5,0,0,0,0-3H50.7a1.5,1.5,0,0,0,0,3Z"/><path class="a53c0ebc-61de-42fc-98e5-451fe52e2e3c" d="M100.58,82.5,111,72.09A1.53,1.53,0,0,0,111,70L100.58,59.55a1.5,1.5,0,0,0-2.12,2.12l10.42,10.42V70L98.46,80.38a1.5,1.5,0,0,0,2.12,2.12Z"/><path class="a53c0ebc-61de-42fc-98e5-451fe52e2e3c" d="M100.58,40.45,111,30a1.53,1.53,0,0,0,0-2.12L100.58,17.5a1.5,1.5,0,0,0-2.12,2.12L108.88,30V27.91L98.46,38.33a1.5,1.5,0,0,0,2.12,2.12Z"/></g></svg>