<svg xmlns="http://www.w3.org/2000/svg" viewBox="0 0 150 100"><defs><style>.a259ffba-074b-4cfd-8d07-389dacb39fda{fill:#fdbbb9;isolation:isolate;}.bc5e71ab-edcb-4160-8bd1-4198ee124aa8{fill:#1e1e21;}</style></defs><title>security</title><g id="b80af119-6cef-45f0-be2c-d7b36361ff2c" data-name="Diamonds"><rect class="a259ffba-074b-4cfd-8d07-389dacb39fda" x="14.61" y="14.72" width="70.56" height="70.56" transform="translate(-20.74 49.93) rotate(-45)"/></g><g id="a9d29a82-0ba9-485d-a35f-873f232935d4" data-name="Layer 1"><path class="bc5e71ab-edcb-4160-8bd1-4198ee124aa8" d="M112.79,79.39H66.25l1.5,1.5V37.82l-1.5,1.5h46.54l-1.5-1.5V80.89a1.5,1.5,0,0,0,3,0V37.82a1.52,1.52,0,0,0-1.5-1.5H66.25a1.52,1.52,0,0,0-1.5,1.5V80.89a1.52,1.52,0,0,0,1.5,1.5h46.54A1.5,1.5,0,0,0,112.79,79.39Z"/><path class="bc5e71ab-edcb-4160-8bd1-4198ee124aa8" d="M74.83,37.44c0-6.72,2.67-13.74,9.55-16,5.71-1.9,12.65-.55,16.44,4.35,2.56,3.31,3.36,7.58,3.39,11.67a1.5,1.5,0,0,0,3,0c-.06-8.09-3.51-16.1-11.63-18.87-6.84-2.34-15.14-.5-19.66,5.31-3,3.86-4.06,8.75-4.09,13.56a1.5,1.5,0,0,0,3,0Z"/><path class="bc5e71ab-edcb-4160-8bd1-4198ee124aa8" d="M85.3,58.84l-2.65,7.64a1.51,1.51,0,0,0,1.45,1.9H95.71a1.51,1.51,0,0,0,1.45-1.9L94.42,59l-.15,1.15a5.13,5.13,0,0,0-8.66-5.5A5.23,5.23,0,0,0,85.46,60c.91,1.71,3.5.19,2.59-1.51a2.19,2.19,0,0,1-.27-1.22,2,2,0,0,1,.29-.9,2.19,2.19,0,0,1,1.47-1,2.11,2.11,0,0,1,1.93.66,2.84,2.84,0,0,1,.44.72A2,2,0,0,1,92,57.87c-.12.61-.57,1-.49,1.7a1.27,1.27,0,0,0,.09.36c.12.38.27.74.4,1.11l1.35,3.69.93,2.54,1.44-1.89H84.1l1.44,1.89,2.66-7.64a1.5,1.5,0,0,0-2.9-.79Z"/></g></svg>