<svg xmlns="http://www.w3.org/2000/svg" viewBox="0 0 150 100"><defs><style>.fd27544a-f8a5-4d87-bb5d-0dec73a9915a{fill:#fdbbb9;isolation:isolate;}.baf8245f-eeb5-4ffd-8cf0-20d72c2b5cdb{fill:#1e1e21;}</style></defs><title>Target</title><g id="aaa03eba-842b-40cf-ade4-6ac5f1cabc44" data-name="Diamonds"><rect class="fd27544a-f8a5-4d87-bb5d-0dec73a9915a" x="14.61" y="14.72" width="70.56" height="70.56" transform="translate(-20.74 49.93) rotate(-45)"/></g><g id="f595aa6a-628d-41ad-913e-f38bcf93db17" data-name="Layer 1"><path class="baf8245f-eeb5-4ffd-8cf0-20d72c2b5cdb" d="M110.06,60.75l9.69-9.69a1.53,1.53,0,0,0,0-2.12l-9.69-9.69a1.5,1.5,0,0,0-2.12,2.12l9.69,9.69V48.94l-9.69,9.69a1.5,1.5,0,0,0,2.12,2.12Z"/><path class="baf8245f-eeb5-4ffd-8cf0-20d72c2b5cdb" d="M118.69,48.5H98.31a1.5,1.5,0,0,0,0,3h20.38a1.5,1.5,0,0,0,0-3Z"/><path class="baf8245f-eeb5-4ffd-8cf0-20d72c2b5cdb" d="M70.81,58.63l-9.69-9.69v2.12l9.69-9.69a1.5,1.5,0,0,0-2.12-2.12L59,48.94a1.51,1.51,0,0,0,0,2.12l9.69,9.69a1.5,1.5,0,0,0,2.12-2.12Z"/><path class="baf8245f-eeb5-4ffd-8cf0-20d72c2b5cdb" d="M60.06,51.5H80.44a1.5,1.5,0,0,0,0-3H60.06a1.5,1.5,0,0,0,0,3Z"/><path class="baf8245f-eeb5-4ffd-8cf0-20d72c2b5cdb" d="M100.12,29.31l-9.69-9.69a1.53,1.53,0,0,0-2.12,0l-9.69,9.69a1.5,1.5,0,0,0,2.12,2.12l9.69-9.68H88.31L98,31.43a1.5,1.5,0,0,0,2.12-2.12Z"/><path class="baf8245f-eeb5-4ffd-8cf0-20d72c2b5cdb" d="M87.87,20.68V41.06a1.5,1.5,0,0,0,3,0V20.68a1.5,1.5,0,0,0-3,0Z"/><path class="baf8245f-eeb5-4ffd-8cf0-20d72c2b5cdb" d="M98,68.57l-9.69,9.68h2.12l-9.69-9.68a1.5,1.5,0,0,0-2.12,2.12l9.69,9.69a1.53,1.53,0,0,0,2.12,0l9.69-9.69A1.5,1.5,0,0,0,98,68.57Z"/><path class="baf8245f-eeb5-4ffd-8cf0-20d72c2b5cdb" d="M90.87,79.32V58.94a1.5,1.5,0,0,0-3,0V79.32a1.5,1.5,0,0,0,3,0Z"/><path class="baf8245f-eeb5-4ffd-8cf0-20d72c2b5cdb" d="M102.81,50a13.44,13.44,0,1,1-11-13.21,13.58,13.58,0,0,1,11,13.21,1.5,1.5,0,0,0,3,0A16.44,16.44,0,1,0,92.49,66.14,16.67,16.67,0,0,0,105.81,50,1.5,1.5,0,0,0,102.81,50Z"/></g></svg>