<svg xmlns="http://www.w3.org/2000/svg" viewBox="0 0 150 100"><defs><style>.edb27524-581e-4d8d-a1f5-ccfe5687c855{fill:#fdbbb9;isolation:isolate;}</style></defs><title>Tools</title><g id="f90f1e64-b86c-48ff-baae-a78355e90d65" data-name="Diamonds"><rect class="edb27524-581e-4d8d-a1f5-ccfe5687c855" x="14.61" y="14.72" width="70.56" height="70.56" transform="translate(-20.74 49.93) rotate(-45)"/></g><g id="fc1fa9c8-f033-4bba-b908-048a9ec3f5b9" data-name="Layer 1"><path d="M86.72,50.09H55.37c-.76,0-1.54,0-2.3,0a9.61,9.61,0,0,1-1.6-18.92c2.37-.58,5.12-.27,7.53-.27H86.66A9.61,9.61,0,0,1,91.09,49a9.61,9.61,0,0,1-4.37,1.05c-1.93,0-1.94,3,0,3a12.61,12.61,0,1,0-.06-25.21c-7.86-.09-15.72,0-23.57,0-3.06,0-6.13,0-9.19,0A12.6,12.6,0,0,0,52.73,53c2.66.24,5.4.05,8.06.05H86.72A1.5,1.5,0,0,0,86.72,50.09Z"/><path d="M71.87,85.12H55.07l1.5,1.5V51.51L55.07,53h16.8l-1.5-1.5V86.62a1.5,1.5,0,0,0,3,0V51.51a1.52,1.52,0,0,0-1.5-1.5H55.07a1.52,1.52,0,0,0-1.5,1.5V86.62a1.52,1.52,0,0,0,1.5,1.5h16.8A1.5,1.5,0,0,0,71.87,85.12Z"/><path d="M78.81,64.1H71.87l1.5,1.5V51.51L71.87,53h6.94l-1.3-2.26a15.46,15.46,0,0,0,0,15.61,1.5,1.5,0,0,0,2.59-1.51,12.19,12.19,0,0,1,0-12.58A1.51,1.51,0,0,0,78.81,50H71.87a1.52,1.52,0,0,0-1.5,1.5V65.6a1.52,1.52,0,0,0,1.5,1.5h6.94A1.5,1.5,0,0,0,78.81,64.1Z"/><path d="M96.87,35.06H108.1l-1.5-1.5V47.41l1.5-1.5H95.68a1.5,1.5,0,0,0,0,3H108.1a1.52,1.52,0,0,0,1.5-1.5V33.56a1.52,1.52,0,0,0-1.5-1.5H96.87a1.5,1.5,0,0,0,0,3Z"/><path d="M107.86,36.6h-9.8a1.5,1.5,0,0,0,0,3h9.8a1.5,1.5,0,0,0,0-3Z"/><path d="M107.86,41.37h-9.8a1.5,1.5,0,0,0,0,3h9.8a1.5,1.5,0,0,0,0-3Z"/><path d="M108.81,42H123a1.5,1.5,0,0,0,0-3H108.81a1.5,1.5,0,0,0,0,3Z"/><path d="M53.77,71.68c1.94,1.94,3.84,3.94,5.83,5.83.8.75,1.83.58,2.85.58h9.1a1.5,1.5,0,0,0,0-3H60.8l1.07.44-6-6a1.5,1.5,0,0,0-2.12,2.12Z"/><path d="M65.89,51.51V29.63a1.5,1.5,0,0,0-3,0V51.51a1.5,1.5,0,0,0,3,0Z"/></g></svg>