<svg xmlns="http://www.w3.org/2000/svg" viewBox="0 0 150 100"><defs><style>.bfc43f70-baca-48b6-9268-6543ddc90fe7{fill:#fdbbb9;}.b97f34d8-f283-4ceb-8254-b34375e0aa5c,.bfc43f70-baca-48b6-9268-6543ddc90fe7{isolation:isolate;}.ed53d920-57b0-4df8-8d35-006492c0a548{fill:#1e1e21;}</style></defs><title>add_apps</title><g id="b8128c3d-f93b-4e3c-8680-bf5b4a8458a4" data-name="Diamonds"><rect class="bfc43f70-baca-48b6-9268-6543ddc90fe7" x="14.61" y="14.72" width="70.56" height="70.56" transform="translate(-20.74 49.93) rotate(-45)"/></g><g id="bb067969-34fc-4f5f-b66a-bfb58e5936a9" data-name="Layer 1"><g class="b97f34d8-f283-4ceb-8254-b34375e0aa5c"><path class="ed53d920-57b0-4df8-8d35-006492c0a548" d="M78.77,62l2.78,2.77a31.79,31.79,0,0,1,2.65,2.67,2.61,2.61,0,0,1,0,3.14,10.79,10.79,0,0,1-.89.9l-3.66,3.66c-1,1-2.16,2.13-3.75,1.39a4.35,4.35,0,0,1-1.22-1L73,73.85c-1-1-2-2-3-3a2.56,2.56,0,0,1-.67-2.52,3.44,3.44,0,0,1,1-1.46l4-4a12.11,12.11,0,0,1,1.08-1.07,2.58,2.58,0,0,1,3.4.19c1.41,1.32,3.53-.79,2.12-2.12a5.65,5.65,0,0,0-8,.13c-1.29,1.26-2.55,2.55-3.83,3.82-1.52,1.53-3,3-2.87,5.4s1.58,3.66,3.07,5.16c1.23,1.22,2.44,2.46,3.68,3.67a5.65,5.65,0,0,0,7.93.08C82,77.1,83.12,76,84.23,74.85c1.34-1.35,3-2.66,3.37-4.63a5.71,5.71,0,0,0-1.5-5.1c-.46-.47-.93-.93-1.4-1.4l-3.81-3.8A1.5,1.5,0,0,0,78.77,62Z"/></g><g class="b97f34d8-f283-4ceb-8254-b34375e0aa5c"><path class="ed53d920-57b0-4df8-8d35-006492c0a548" d="M78.77,27.44l2.78,2.78a29,29,0,0,1,2.65,2.67,2.6,2.6,0,0,1,0,3.13,9.56,9.56,0,0,1-.89.91l-3.66,3.66c-1,1-2.16,2.13-3.75,1.39a4.53,4.53,0,0,1-1.22-1L73,39.25c-1-1-2-2-3-3a2.58,2.58,0,0,1-.67-2.53,3.35,3.35,0,0,1,1-1.45l4-4c.35-.35.69-.75,1.08-1.07a2.58,2.58,0,0,1,3.4.19c1.41,1.33,3.53-.79,2.12-2.12a5.65,5.65,0,0,0-8,.13c-1.29,1.27-2.55,2.55-3.83,3.83-1.52,1.52-3,3-2.87,5.4s1.58,3.66,3.07,5.15c1.23,1.23,2.44,2.46,3.68,3.68a5.64,5.64,0,0,0,7.93.07c1.13-1.08,2.22-2.22,3.33-3.33,1.34-1.34,3-2.65,3.37-4.62a5.7,5.7,0,0,0-1.5-5.1c-.46-.48-.93-.94-1.4-1.4l-3.81-3.81A1.5,1.5,0,0,0,78.77,27.44Z"/></g><g class="b97f34d8-f283-4ceb-8254-b34375e0aa5c"><path class="ed53d920-57b0-4df8-8d35-006492c0a548" d="M97,44.74l2.78,2.77a31.79,31.79,0,0,1,2.65,2.67,2.61,2.61,0,0,1,0,3.14,10.9,10.9,0,0,1-.89.91l-3.66,3.65c-1,1-2.16,2.14-3.75,1.39a4.46,4.46,0,0,1-1.22-1l-1.72-1.73c-1-1-2-2-3-3a2.59,2.59,0,0,1-.67-2.53,3.44,3.44,0,0,1,1-1.46l4-4c.35-.35.69-.75,1.08-1.07a2.58,2.58,0,0,1,3.4.19c1.41,1.33,3.53-.79,2.13-2.12a5.66,5.66,0,0,0-8,.13c-1.29,1.27-2.55,2.55-3.83,3.83-1.52,1.52-3,3-2.87,5.39s1.58,3.67,3.07,5.16c1.23,1.22,2.44,2.46,3.68,3.67a5.63,5.63,0,0,0,7.93.08c1.13-1.08,2.22-2.22,3.33-3.33,1.34-1.34,3-2.66,3.37-4.63a5.71,5.71,0,0,0-1.5-5.1c-.45-.47-.93-.93-1.4-1.39l-3.8-3.81A1.5,1.5,0,0,0,97,44.74Z"/></g><g class="b97f34d8-f283-4ceb-8254-b34375e0aa5c"><path class="ed53d920-57b0-4df8-8d35-006492c0a548" d="M94.56,22.5v10a1.5,1.5,0,0,0,3,0v-10a1.5,1.5,0,0,0-3,0Z"/></g><g class="b97f34d8-f283-4ceb-8254-b34375e0aa5c"><path class="ed53d920-57b0-4df8-8d35-006492c0a548" d="M101.07,26h-10a1.5,1.5,0,0,0,0,3h10a1.5,1.5,0,0,0,0-3Z"/></g><g class="b97f34d8-f283-4ceb-8254-b34375e0aa5c"><path class="ed53d920-57b0-4df8-8d35-006492c0a548" d="M118,41.92v10a1.5,1.5,0,0,0,3,0v-10a1.5,1.5,0,0,0-3,0Z"/></g><g class="b97f34d8-f283-4ceb-8254-b34375e0aa5c"><path class="ed53d920-57b0-4df8-8d35-006492c0a548" d="M124.53,45.42h-10a1.5,1.5,0,0,0,0,3h10a1.5,1.5,0,0,0,0-3Z"/></g><g class="b97f34d8-f283-4ceb-8254-b34375e0aa5c"><path class="ed53d920-57b0-4df8-8d35-006492c0a548" d="M118.43,21.69v10a1.5,1.5,0,0,0,3,0v-10a1.5,1.5,0,1,0-3,0Z"/></g><g class="b97f34d8-f283-4ceb-8254-b34375e0aa5c"><path class="ed53d920-57b0-4df8-8d35-006492c0a548" d="M124.93,25.2h-10a1.5,1.5,0,0,0,0,3h10a1.5,1.5,0,0,0,0-3Z"/></g></g></svg>