<svg xmlns="http://www.w3.org/2000/svg" viewBox="0 0 150 100"><defs><style>.f7b8b1da-147a-46a9-8679-27f16f34070f{fill:#fdbbb9;}.b1dca26d-a0d7-4312-ad2b-c8e3dc4f7f14,.f7b8b1da-147a-46a9-8679-27f16f34070f{isolation:isolate;}.ba4b84e9-891a-4ea3-b66a-53529f369e80{fill:#1e1e21;}</style></defs><title>apps_forward</title><g id="e7280a37-7bb1-4997-bf62-a605367c0a35" data-name="Diamonds"><rect class="f7b8b1da-147a-46a9-8679-27f16f34070f" x="14.61" y="14.72" width="70.56" height="70.56" transform="translate(-20.74 49.93) rotate(-45)"/></g><g id="b019ffc0-ce63-45ee-a355-a65d66469f4c" data-name="Layer 1"><g class="b1dca26d-a0d7-4312-ad2b-c8e3dc4f7f14"><g class="b1dca26d-a0d7-4312-ad2b-c8e3dc4f7f14"><path d="M55.55,26l9,9,5.58,5.58A18.27,18.27,0,0,1,73.76,45a11.16,11.16,0,0,1-1,11.62,33.78,33.78,0,0,1-3.31,3.46L57.76,71.77a29.66,29.66,0,0,1-3.55,3.36,11.16,11.16,0,0,1-11.78.74,19.85,19.85,0,0,1-4.25-3.62L32.53,66.6c-3-3-6-5.88-8.9-8.91a11.18,11.18,0,0,1-2.4-11.62A14.42,14.42,0,0,1,25,41L36.48,29.45c1.13-1.12,2.25-2.27,3.39-3.39a11.19,11.19,0,0,1,10.32-3,11.33,11.33,0,0,1,5.36,3c1.39,1.35,3.51-.77,2.12-2.12A14.31,14.31,0,0,0,45,20.06a15.05,15.05,0,0,0-7.78,4.44L25.51,36.18C24.24,37.45,23,38.71,21.7,40a14.22,14.22,0,0,0-4.14,11,14.58,14.58,0,0,0,4.36,9.23l4.54,4.53c3.7,3.7,7.39,7.42,11.11,11.11A14.27,14.27,0,0,0,57.76,76c3.56-3.5,7.06-7.06,10.58-10.58,3.83-3.83,8.53-7.49,9.42-13.17a14.26,14.26,0,0,0-3.94-12.21c-1.07-1.1-2.18-2.18-3.28-3.28l-12-12-.84-.84A1.5,1.5,0,0,0,55.55,26Z"/></g></g><g class="b1dca26d-a0d7-4312-ad2b-c8e3dc4f7f14"><g class="b1dca26d-a0d7-4312-ad2b-c8e3dc4f7f14"><path d="M53.27,78.32a14.24,14.24,0,0,0,14.94-.53A36.35,36.35,0,0,0,73,73.37L85.78,60.58a15,15,0,0,0,4.61-8.66,14.3,14.3,0,0,0-4.06-12c-3.93-4-7.92-7.92-11.88-11.88-1.57-1.57-3.08-3.24-4.74-4.72a14.26,14.26,0,0,0-16.44-1.69c-1.68.94-.17,3.53,1.52,2.59A11.2,11.2,0,0,1,68.15,26c1.1,1.08,2.19,2.19,3.28,3.29l12,12a12.46,12.46,0,0,1,4,7.2A11.32,11.32,0,0,1,84.1,58c-3.75,3.78-7.53,7.53-11.29,11.29-1.54,1.53-3,3.08-4.6,4.6a11.23,11.23,0,0,1-13.42,1.82,1.5,1.5,0,0,0-1.52,2.59Z"/></g></g><g class="b1dca26d-a0d7-4312-ad2b-c8e3dc4f7f14"><g class="b1dca26d-a0d7-4312-ad2b-c8e3dc4f7f14"><path d="M66.64,78.32a14.25,14.25,0,0,0,15-.53,36.91,36.91,0,0,0,4.77-4.42L99.15,60.58a15,15,0,0,0,4.61-8.66A14.27,14.27,0,0,0,99.7,40c-3.92-4-7.92-7.92-11.88-11.88-1.56-1.57-3.08-3.24-4.74-4.72a14.26,14.26,0,0,0-16.44-1.69c-1.68.94-.17,3.53,1.52,2.59A11.2,11.2,0,0,1,81.52,26c1.11,1.08,2.19,2.19,3.28,3.29l12,12a12.46,12.46,0,0,1,4,7.2A11.32,11.32,0,0,1,97.47,58c-3.75,3.78-7.53,7.53-11.29,11.29-1.53,1.53-3.05,3.08-4.6,4.6a11.23,11.23,0,0,1-13.42,1.82,1.5,1.5,0,0,0-1.52,2.59Z"/></g></g><path d="M48.56,51.84h74.56a1.5,1.5,0,0,0,0-3H48.56a1.5,1.5,0,0,0,0,3Z"/><path class="ba4b84e9-891a-4ea3-b66a-53529f369e80" d="M115.53,61.48,126,51.06a1.53,1.53,0,0,0,0-2.12L115.53,38.52a1.5,1.5,0,0,0-2.12,2.13l10.42,10.41V48.94L113.41,59.35a1.5,1.5,0,0,0,2.12,2.13Z"/></g></svg>