<svg xmlns="http://www.w3.org/2000/svg" viewBox="0 0 150 100"><defs><style>.b822fe0c-185b-44b6-8922-5d66f3574d67{fill:#fdbbb9;isolation:isolate;}.abba1f3a-6fe0-4b8d-9968-fabc7bd30f8b{fill:#1e1e21;}</style></defs><title>checks</title><g id="fc079490-dfe2-45fb-b937-4561e4b9130c" data-name="Diamonds"><rect class="b822fe0c-185b-44b6-8922-5d66f3574d67" x="14.61" y="14.72" width="70.56" height="70.56" transform="translate(-20.74 49.93) rotate(-45)"/></g><g id="b4c91f43-eabd-4feb-bd62-7db0070c3647" data-name="Layer 1"><path class="abba1f3a-6fe0-4b8d-9968-fabc7bd30f8b" d="M123,78H59l1.5,1.5V20.53L59,22h64l-1.5-1.5V79.47a1.5,1.5,0,0,0,3,0V20.53A1.52,1.52,0,0,0,123,19H59a1.52,1.52,0,0,0-1.5,1.5V79.47A1.52,1.52,0,0,0,59,81h64A1.5,1.5,0,0,0,123,78Z"/><path class="abba1f3a-6fe0-4b8d-9968-fabc7bd30f8b" d="M110.87,37.32v8.15l1.5-1.5H95.65l1.5,1.5V31.86l-1.5,1.5h11.94a1.5,1.5,0,0,0,0-3H95.65a1.52,1.52,0,0,0-1.5,1.5V45.47a1.52,1.52,0,0,0,1.5,1.5h16.72a1.52,1.52,0,0,0,1.5-1.5V37.32a1.5,1.5,0,0,0-3,0Z"/><path class="abba1f3a-6fe0-4b8d-9968-fabc7bd30f8b" d="M111.81,30.64l-6,5.94-.85.86,1.81-.23-3.88-3a1.52,1.52,0,0,0-2.06.54,1.54,1.54,0,0,0,.54,2l3.89,3a1.52,1.52,0,0,0,1.82-.24l5.94-5.94.86-.86a1.5,1.5,0,0,0-2.12-2.12Z"/><path class="abba1f3a-6fe0-4b8d-9968-fabc7bd30f8b" d="M85.59,37.32v8.15l1.5-1.5H70.37l1.5,1.5V31.86l-1.5,1.5H82.31a1.5,1.5,0,0,0,0-3H70.37a1.52,1.52,0,0,0-1.5,1.5V45.47a1.52,1.52,0,0,0,1.5,1.5H87.09a1.52,1.52,0,0,0,1.5-1.5V37.32a1.5,1.5,0,0,0-3,0Z"/><path class="abba1f3a-6fe0-4b8d-9968-fabc7bd30f8b" d="M86.52,30.64l-5.94,5.94-.86.86,1.82-.23-3.89-3a1.51,1.51,0,0,0-2.05.54,1.53,1.53,0,0,0,.54,2l3.89,3a1.5,1.5,0,0,0,1.81-.24l6-5.94.86-.86a1.5,1.5,0,0,0-2.13-2.12Z"/><path class="abba1f3a-6fe0-4b8d-9968-fabc7bd30f8b" d="M110.87,62.79v8.15l1.5-1.5H95.65l1.5,1.5V57.34l-1.5,1.5h11.94a1.5,1.5,0,0,0,0-3H95.65a1.52,1.52,0,0,0-1.5,1.5v13.6a1.52,1.52,0,0,0,1.5,1.5h16.72a1.52,1.52,0,0,0,1.5-1.5V62.79a1.5,1.5,0,0,0-3,0Z"/><path class="abba1f3a-6fe0-4b8d-9968-fabc7bd30f8b" d="M111.81,56.11l-6,5.94-.85.86,1.81-.23-3.88-3a1.52,1.52,0,0,0-2.06.54,1.56,1.56,0,0,0,.54,2.06l3.89,3a1.52,1.52,0,0,0,1.82-.24l5.94-5.94.86-.86a1.5,1.5,0,0,0-2.12-2.12Z"/><path class="abba1f3a-6fe0-4b8d-9968-fabc7bd30f8b" d="M85.59,62.79v8.15l1.5-1.5H70.37l1.5,1.5V57.34l-1.5,1.5H82.31a1.5,1.5,0,0,0,0-3H70.37a1.52,1.52,0,0,0-1.5,1.5v13.6a1.52,1.52,0,0,0,1.5,1.5H87.09a1.52,1.52,0,0,0,1.5-1.5V62.79a1.5,1.5,0,0,0-3,0Z"/><path class="abba1f3a-6fe0-4b8d-9968-fabc7bd30f8b" d="M86.52,56.11l-5.94,5.94-.86.86,1.82-.23-3.89-3a1.51,1.51,0,0,0-2.05.54,1.55,1.55,0,0,0,.54,2.06l3.89,3A1.5,1.5,0,0,0,81.84,65l6-5.94.86-.86a1.5,1.5,0,0,0-2.13-2.12Z"/></g></svg>