<svg xmlns="http://www.w3.org/2000/svg" viewBox="0 0 150 100"><defs><style>.a6d699ef-cba4-42c2-871e-a8cd609ca9a5{fill:#fdbbb9;}.a5ed4af5-0621-4f4f-be0f-43a60cbe04b5,.a6d699ef-cba4-42c2-871e-a8cd609ca9a5{isolation:isolate;}.f9e68ca8-1938-4909-90c7-789fed6772ec{fill:#1e1e21;}</style></defs><title>delivery</title><g id="bea2a511-01b5-4577-8b36-247927080a88" data-name="Diamonds"><rect class="a6d699ef-cba4-42c2-871e-a8cd609ca9a5" x="14.61" y="14.72" width="70.56" height="70.56" transform="translate(-20.74 49.93) rotate(-45)"/></g><g id="eac903e5-2cb4-4c4b-9cc2-c3746aeb2d17" data-name="Layer 1"><path d="M73,59l14.94-6.09L90.06,52a1.54,1.54,0,0,0,.9-2.21l-4.18-7.34a1.49,1.49,0,0,0-1.69-.69l-15,6.08L68,48.71a1.52,1.52,0,0,0-.89,2.2l4.17,7.35a1.5,1.5,0,0,0,2.59-1.52L69.7,49.4l-.9,2.2,15-6.09,2.14-.87L84.19,44l4.18,7.35.9-2.21-15,6.09-2.14.87a1.56,1.56,0,0,0-1.05,1.85A1.52,1.52,0,0,0,73,59Z"/><path d="M64.53,56.05,49.58,50l-2.14-.88.9,2.21L52.51,44l-1.69.69,14.94,6.09,2.15.87L67,49.4l-4.18,7.34c-.95,1.68,1.64,3.2,2.59,1.52l4.18-7.35a1.53,1.53,0,0,0-.9-2.2L53.76,42.62l-2.14-.87a1.5,1.5,0,0,0-1.7.69l-4.17,7.34A1.53,1.53,0,0,0,46.64,52l15,6.08,2.14.88a1.53,1.53,0,0,0,1.85-1.05A1.55,1.55,0,0,0,64.53,56.05Z"/><path d="M63.73,27.57,48.78,33.66l-2.14.87a1.52,1.52,0,0,0-.89,2.2l4.17,7.35a1.53,1.53,0,0,0,1.7.69l14.94-6.09,2.14-.87a1.53,1.53,0,0,0,.9-2.2l-4.18-7.35a1.5,1.5,0,0,0-2.59,1.51L67,37.12l.9-2.2L53,41l-2.14.87,1.69.69-4.17-7.34-.9,2.2,15-6.09,2.14-.87a1.56,1.56,0,0,0,1-1.84A1.51,1.51,0,0,0,63.73,27.57Z"/><path d="M66.9,36.88V49.76a1.5,1.5,0,0,0,3,0V36.88a1.5,1.5,0,0,0-3,0Z"/><path d="M49.82,52.94v7a1.55,1.55,0,0,0,1.1,1.44l14.93,6.09L68,68.3a1.51,1.51,0,0,0,1.9-1.45V49.76a1.5,1.5,0,0,0-3,0V66.85l1.9-1.45L53.87,59.32l-2.15-.88,1.1,1.45v-7a1.5,1.5,0,0,0-3,0Z"/><g class="a5ed4af5-0621-4f4f-be0f-43a60cbe04b5"><path d="M85.49,44.3a1.5,1.5,0,0,0,0-3,1.5,1.5,0,0,0,0,3Z"/></g><g class="a5ed4af5-0621-4f4f-be0f-43a60cbe04b5"><path d="M84,52.89v7l1.1-1.45L70.16,64.53,68,65.4l1.9,1.45V49.76a1.5,1.5,0,0,0-3,0V66.85a1.52,1.52,0,0,0,1.9,1.45l14.94-6.09,2.15-.88A1.55,1.55,0,0,0,87,59.89v-7a1.5,1.5,0,0,0-3,0Z"/></g><path d="M72.18,30.46l14.94,6.09,2.15.87-.9-2.2-4.18,7.34,1.7-.69-15-6.08-2.14-.87.9,2.2,4.17-7.35a1.5,1.5,0,0,0-2.59-1.51l-4.17,7.35a1.52,1.52,0,0,0,.89,2.2l15,6.08,2.14.88a1.5,1.5,0,0,0,1.69-.69L91,36.73a1.53,1.53,0,0,0-.9-2.2L75.12,28.44,73,27.57a1.51,1.51,0,0,0-1.85,1.05A1.52,1.52,0,0,0,72.18,30.46Z"/><path d="M67.8,71.82a20.06,20.06,0,0,0,38.27,8.44,22.44,22.44,0,0,0,1.87-9.49V26.5c0-5.16.18-10.36,0-15.52a1.92,1.92,0,0,1,0-.24,1.5,1.5,0,0,0-3,0V68c0,1.27,0,2.54,0,3.81a17.07,17.07,0,0,1-33.59,4.35,18.09,18.09,0,0,1-.55-4.33,1.5,1.5,0,0,0-3,0Z"/><path class="f9e68ca8-1938-4909-90c7-789fed6772ec" d="M117.66,19,107.24,8.55a1.53,1.53,0,0,0-2.12,0L94.71,19a1.5,1.5,0,0,0,2.12,2.13l10.41-10.42h-2.12l10.42,10.42A1.5,1.5,0,0,0,117.66,19Z"/></g></svg>