<svg xmlns="http://www.w3.org/2000/svg" viewBox="0 0 150 100"><defs><style>.b30657c1-6576-43fc-8e73-6e4bce83b336{fill:#fdbbb9;isolation:isolate;}</style></defs><title>Deploy</title><g id="b0fabda5-6a11-4fcd-adbc-44e5f7ea77ee" data-name="Diamonds"><rect class="b30657c1-6576-43fc-8e73-6e4bce83b336" x="14.61" y="14.72" width="70.56" height="70.56" transform="translate(-20.74 49.93) rotate(-45)"/></g><g id="aedc1304-987a-451c-a0cf-eebbc8254361" data-name="Layer 1"><path d="M69,21.43a18.21,18.21,0,1,0,33.83-9.38A18.22,18.22,0,0,0,69,21.43a1.5,1.5,0,0,0,3,0,15.22,15.22,0,1,1,28.24,7.87A15.22,15.22,0,0,1,72,21.43,1.5,1.5,0,0,0,69,21.43Z"/><path d="M86.14,40.51c.47.27,1,.53,1.44.76a9.86,9.86,0,0,0,1.35.56,2.8,2.8,0,0,0,2.07-.2,2.73,2.73,0,0,0-1.85-5.08,6.59,6.59,0,0,0-1.28.48,18.82,18.82,0,0,0-1.73.89,1.5,1.5,0,1,0,1.52,2.59,16.64,16.64,0,0,1,1.93-1l-.36.15a3.47,3.47,0,0,1,.79-.25l-.4.06a.76.76,0,0,1,.26,0l-.4-.05a1.25,1.25,0,0,1,.32.08l-.36-.15a1.2,1.2,0,0,1,.27.16l-.3-.23a1.15,1.15,0,0,1,.22.22l-.23-.3a1.75,1.75,0,0,1,.16.27l-.15-.36a1.25,1.25,0,0,1,.08.32l0-.4a1.82,1.82,0,0,1,0,.33l0-.39a1.18,1.18,0,0,1-.08.31l.15-.36a1.56,1.56,0,0,1-.16.28l.23-.31a1.2,1.2,0,0,1-.22.23l.3-.24a.92.92,0,0,1-.27.16l.36-.15a1.92,1.92,0,0,1-.32.09l.4-.06a1.13,1.13,0,0,1-.26,0l.4,0a3,3,0,0,1-.79-.25l.36.15a16.64,16.64,0,0,1-1.93-1,1.5,1.5,0,1,0-1.52,2.59Z"/><path d="M86.82,37.92a17.48,17.48,0,0,1-1.93,1l.36-.15a3.16,3.16,0,0,1-.79.25l.4,0a1.22,1.22,0,0,1-.27,0L85,39a1.58,1.58,0,0,1-.31-.09l.36.15a1.12,1.12,0,0,1-.28-.16l.31.24a1.25,1.25,0,0,1-.23-.23l.24.31a1.12,1.12,0,0,1-.16-.28l.15.36A1.81,1.81,0,0,1,85,39l0,.39a1.82,1.82,0,0,1,0-.33l0,.4a1.92,1.92,0,0,1,.09-.32l-.15.36a.92.92,0,0,1,.16-.27l-.24.3a1.2,1.2,0,0,1,.23-.22l-.31.23a1.56,1.56,0,0,1,.28-.16l-.36.15a1.09,1.09,0,0,1,.31-.08l-.4.05a.82.82,0,0,1,.27,0l-.4-.06a3.63,3.63,0,0,1,.79.25l-.36-.15a17.48,17.48,0,0,1,1.93,1,1.5,1.5,0,1,0,1.51-2.59c-.47-.27-1-.52-1.43-.76a9.48,9.48,0,0,0-1.36-.56,2.81,2.81,0,0,0-2.07.2,2.73,2.73,0,0,0,1.86,5.08,5.51,5.51,0,0,0,1.28-.48,16.47,16.47,0,0,0,1.72-.89,1.5,1.5,0,1,0-1.51-2.59Z"/><path d="M86,40.43a9.83,9.83,0,0,0,1.58,5.37,29.76,29.76,0,0,1,2.68,3.75,7,7,0,0,1,.17,5.33,17,17,0,0,1-2.56,3.74,9.92,9.92,0,0,0-.63,10.61c.75,1.3,1.86,2.34,2.65,3.62a6.94,6.94,0,0,1,.75,5.31c-.43,1.72-1.67,3-2.7,4.33A9.94,9.94,0,0,0,86,88.37a1.5,1.5,0,0,0,3,0,7.31,7.31,0,0,1,1.68-4.55,15.45,15.45,0,0,0,2.65-4.17c1.35-3.79,0-7.35-2.34-10.32a7.59,7.59,0,0,1-2-4.2,7,7,0,0,1,1.36-4.9A23.4,23.4,0,0,0,93,56.55a10.3,10.3,0,0,0,.69-6.1,11,11,0,0,0-2.6-5,7.89,7.89,0,0,1-2.06-5c0-1.93-3-1.94-3,0Z"/><path d="M39.86,52.32A18.22,18.22,0,1,0,54.6,34.44,18.45,18.45,0,0,0,39.86,52.32a1.5,1.5,0,0,0,3,0,15.21,15.21,0,1,1,12.2,14.92,15.36,15.36,0,0,1-12.2-14.92A1.5,1.5,0,0,0,39.86,52.32Z"/><path d="M57,71.39c.47.28,1,.53,1.44.76a8.92,8.92,0,0,0,1.35.56,2.73,2.73,0,0,0,2.64-4.62A2.83,2.83,0,0,0,60,67.43a6.59,6.59,0,0,0-1.28.48A18.65,18.65,0,0,0,57,68.8a1.5,1.5,0,1,0,1.51,2.59,18.41,18.41,0,0,1,1.93-1l-.36.15a3.81,3.81,0,0,1,.79-.25l-.4.06a1.22,1.22,0,0,1,.27,0l-.4-.05a1.57,1.57,0,0,1,.31.08l-.36-.15.28.16-.3-.23a2.28,2.28,0,0,1,.22.22l-.24-.3a1.28,1.28,0,0,1,.16.27L60.24,70a1.58,1.58,0,0,1,.09.31l0-.4a1.93,1.93,0,0,1,0,.34l0-.4a1.58,1.58,0,0,1-.09.31l.15-.36a1.12,1.12,0,0,1-.16.28l.24-.3a2.28,2.28,0,0,1-.22.22l.3-.24a1.12,1.12,0,0,1-.28.16l.36-.15a1.58,1.58,0,0,1-.31.09l.4,0a1.22,1.22,0,0,1-.27,0l.4,0a2.9,2.9,0,0,1-.79-.25l.36.15a16.66,16.66,0,0,1-1.93-1A1.5,1.5,0,0,0,57,71.39Z"/><path d="M57.65,68.8a15.77,15.77,0,0,1-1.92,1l.35-.15a2.73,2.73,0,0,1-.78.25l.39,0a1.13,1.13,0,0,1-.26,0l.4,0a1.92,1.92,0,0,1-.32-.09l.36.15a.92.92,0,0,1-.27-.16l.3.24a1.52,1.52,0,0,1-.22-.22l.23.3a2.54,2.54,0,0,1-.16-.28l.15.36a1.09,1.09,0,0,1-.08-.31l0,.4a1.93,1.93,0,0,1,0-.34l0,.4A1.09,1.09,0,0,1,55.9,70l-.15.35c0-.09.1-.18.16-.27l-.23.3a1.52,1.52,0,0,1,.22-.22l-.3.23a1.75,1.75,0,0,1,.27-.16l-.36.15a1.87,1.87,0,0,1,.32-.08l-.4.05a1.13,1.13,0,0,1,.26,0l-.39-.06a3.55,3.55,0,0,1,.78.25l-.35-.15a17.33,17.33,0,0,1,1.92,1,1.53,1.53,0,0,0,2.06-.53,1.55,1.55,0,0,0-.54-2.06c-.47-.27-1-.52-1.44-.76a11.24,11.24,0,0,0-1.35-.55,2.73,2.73,0,0,0-2.64,4.62,2.81,2.81,0,0,0,2.42.66,6.59,6.59,0,0,0,1.28-.48,18.91,18.91,0,0,0,1.73-.9,1.52,1.52,0,0,0,.54-2A1.54,1.54,0,0,0,57.65,68.8Z"/><path d="M56.84,71.31a10.37,10.37,0,0,0,2.42,6.5c1.34,1.71,2.42,3.21,2.42,5.48s-1,3.72-2.35,5.4a10.47,10.47,0,0,0-2.49,6.59c0,1.93,3,1.93,3,0,0-2.28,1.07-3.76,2.42-5.48a9.94,9.94,0,0,0,.08-12.91c-1.38-1.76-2.46-3.25-2.5-5.58,0-1.93-3-1.94-3,0Z"/></g></svg>