<svg xmlns="http://www.w3.org/2000/svg" viewBox="0 0 150 100"><defs><style>.f75180d2-49da-48d6-bae7-7252b2f7dcee{fill:#fdbbb9;isolation:isolate;}.ee3de2d9-3d74-4a43-ac30-b5777acef3ce{fill:#1e1e21;}</style></defs><title>fast</title><g id="ba9854a0-0fba-4c29-8ca7-8bc5fec3a01a" data-name="Diamonds"><rect class="f75180d2-49da-48d6-bae7-7252b2f7dcee" x="14.61" y="14.72" width="70.56" height="70.56" transform="translate(-20.74 49.93) rotate(-45)"/></g><g id="a50395d6-078f-40c7-8122-d27ab8c3020c" data-name="Layer 1"><path d="M43.48,29.48h59a1.5,1.5,0,0,0,0-3h-59a1.5,1.5,0,0,0,0,3Z"/><path d="M74.31,51.5h58.95a1.5,1.5,0,0,0,0-3H74.31a1.5,1.5,0,0,0,0,3Z"/><path d="M43.48,73.52h59a1.5,1.5,0,0,0,0-3h-59a1.5,1.5,0,0,0,0,3Z"/><path class="ee3de2d9-3d74-4a43-ac30-b5777acef3ce" d="M94,83.57l10.41-10.41a1.51,1.51,0,0,0,0-2.12L94,60.62a1.5,1.5,0,0,0-2.12,2.12l10.41,10.42V71L91.9,81.45A1.5,1.5,0,0,0,94,83.57Z"/><path class="ee3de2d9-3d74-4a43-ac30-b5777acef3ce" d="M94,39.57l10.41-10.41a1.51,1.51,0,0,0,0-2.12L94,16.62a1.5,1.5,0,0,0-2.12,2.12l10.41,10.42V27L91.9,37.45A1.5,1.5,0,0,0,94,39.57Z"/><path class="ee3de2d9-3d74-4a43-ac30-b5777acef3ce" d="M125,61.57l10.41-10.41a1.51,1.51,0,0,0,0-2.12L125,38.62a1.5,1.5,0,0,0-2.12,2.12l10.41,10.42V49L122.9,59.45A1.5,1.5,0,0,0,125,61.57Z"/></g></svg>