<svg xmlns="http://www.w3.org/2000/svg" viewBox="0 0 150 100"><defs><style>.a4bede5b-db50-4399-8dcc-614d413649f6{fill:#fdbbb9;isolation:isolate;}.fd8bff99-935d-49f1-bbd2-4b82ed33c73e{fill:#1e1e21;}</style></defs><title>globe</title><g id="f94ff16e-8a4e-4e4c-aadc-1e015a427045" data-name="Diamonds"><rect class="a4bede5b-db50-4399-8dcc-614d413649f6" x="14.61" y="14.72" width="70.56" height="70.56" transform="translate(-20.74 49.93) rotate(-45)"/></g><g id="ab588303-8b71-48be-bc49-5e0d899d82d4" data-name="Layer 1"><path class="fd8bff99-935d-49f1-bbd2-4b82ed33c73e" d="M119.5,50a31.42,31.42,0,1,1-.38-5,31.82,31.82,0,0,1,.38,5,1.5,1.5,0,0,0,3,0A34.51,34.51,0,1,0,58.41,67.8a34.51,34.51,0,0,0,63.66-12.38A37.84,37.84,0,0,0,122.5,50,1.5,1.5,0,0,0,119.5,50Z"/><path class="fd8bff99-935d-49f1-bbd2-4b82ed33c73e" d="M86.49,17V82a1.5,1.5,0,0,0,3,0V17a1.5,1.5,0,0,0-3,0Z"/><path class="fd8bff99-935d-49f1-bbd2-4b82ed33c73e" d="M86.92,18.05A43.35,43.35,0,0,1,99.66,36.82a40.06,40.06,0,0,1-5.39,36,41.64,41.64,0,0,1-7.35,8c-1.48,1.24.65,3.35,2.13,2.12a44.89,44.89,0,0,0,14.52-23.29A43.57,43.57,0,0,0,96,23.5a44.34,44.34,0,0,0-6.91-7.57c-1.47-1.24-3.6.87-2.13,2.12Z"/><path class="fd8bff99-935d-49f1-bbd2-4b82ed33c73e" d="M85.92,15.93A46.31,46.31,0,0,0,72.3,36.34,42.93,42.93,0,0,0,78,74.24,44.77,44.77,0,0,0,85.92,83c1.47,1.23,3.6-.88,2.12-2.12A42.25,42.25,0,0,1,74.38,59.28c-3.09-12,0-24.51,7.29-34.36A40.7,40.7,0,0,1,88,18.05c1.48-1.25-.65-3.36-2.12-2.12Z"/><path class="fd8bff99-935d-49f1-bbd2-4b82ed33c73e" d="M120,48.47H55a1.5,1.5,0,0,0,0,3h65a1.5,1.5,0,0,0,0-3Z"/><path class="fd8bff99-935d-49f1-bbd2-4b82ed33c73e" d="M118.9,48.91a43.44,43.44,0,0,1-18.77,12.74,40.1,40.1,0,0,1-36-5.4,41.86,41.86,0,0,1-8-7.34c-1.24-1.48-3.35.65-2.12,2.12A45,45,0,0,0,77.23,65.56a43.57,43.57,0,0,0,36.22-7.62A44.37,44.37,0,0,0,121,51c1.23-1.47-.88-3.6-2.13-2.12Z"/><path class="fd8bff99-935d-49f1-bbd2-4b82ed33c73e" d="M121,47.9a46.37,46.37,0,0,0-20.42-13.61A42.89,42.89,0,0,0,62.71,40a44.77,44.77,0,0,0-8.77,7.89c-1.23,1.48.88,3.61,2.12,2.13A42.27,42.27,0,0,1,77.67,36.36c12-3.08,24.51,0,34.36,7.3A39.89,39.89,0,0,1,118.9,50c1.25,1.47,3.36-.66,2.13-2.13Z"/></g></svg>