<svg xmlns="http://www.w3.org/2000/svg" viewBox="0 0 150 100"><defs><style>.a954cfa7-80c8-41c3-a4f9-d2ad9eef03c4{fill:#fdbbb9;isolation:isolate;}.b062cd48-88cd-4872-8de9-dfff56150f4c{fill:#1e1e21;}</style></defs><title>handshake</title><g id="ba8f2a77-4b50-4b49-9a2e-ad4e39ba19db" data-name="Diamonds"><rect class="a954cfa7-80c8-41c3-a4f9-d2ad9eef03c4" x="14.61" y="14.72" width="70.56" height="70.56" transform="translate(-20.74 49.93) rotate(-45)"/></g><g id="aa5e1746-2eef-4fec-b744-f500aa991806" data-name="Layer 1"><path class="b062cd48-88cd-4872-8de9-dfff56150f4c" d="M70.77,38.33,68.42,36l-.34-.34A1.56,1.56,0,0,0,67,35.18a1.54,1.54,0,0,0-1.06.44,1.47,1.47,0,0,0-.44,1.06A1.52,1.52,0,0,0,66,37.74l2.35,2.37.34.34a1.5,1.5,0,0,0,2.56-1.06,1.61,1.61,0,0,0-.44-1.06Z"/><path class="b062cd48-88cd-4872-8de9-dfff56150f4c" d="M74.89,46.76l13.28,13.4,2.59,2.61c.12.13.26.25.37.38a1.76,1.76,0,0,1-1,2.95c-1.47.21-2.9-1.92-3.79-2.82L84.11,61,76.9,53.74c-1.36-1.38-3.48.74-2.12,2.12l7,7.07,2.38,2.4c1.32,1.33,2.71,3.22,4.63,3.66a4.78,4.78,0,0,0,5.39-6.62A9.75,9.75,0,0,0,92,59.78l-8.27-8.35L77,44.64a1.5,1.5,0,0,0-2.13,2.12Z"/><path class="b062cd48-88cd-4872-8de9-dfff56150f4c" d="M77.65,68.07l2.61,2.63c1.09,1.1,2.13,2.4,3.66,2.88a4.81,4.81,0,0,0,6.15-4.73,4.94,4.94,0,0,0-1.44-3.25c-.38-.4-.77-.78-1.16-1.18l-3-3.07a1.51,1.51,0,0,0-2.12,0,1.53,1.53,0,0,0,0,2.12l2.29,2.31,1.49,1.5.42.42a.23.23,0,0,0,.07.07l.13.15c.12.11,0,0,0,0l.14.21s.21.42.15.27.05.18.06.23l.06.24c0,.17,0-.07,0-.09,0,.14,0,.28,0,.43s0,.12,0,.18c0-.31,0-.12,0,0s-.06.23-.1.35-.08.22,0,0,0,.07-.06.11a2.92,2.92,0,0,1-.24.37c.16-.21,0,0-.1.09s-.27.24-.15.14-.16.1-.21.13a2.39,2.39,0,0,1-.22.12c-.18.1.2,0,0,0s-.24.08-.36.1-.31,0-.1,0,0,0,0,0h-.36s-.24,0,0,0-.12,0-.16,0l-.35-.11c.26.09,0,0-.15-.09s-.32-.23-.22-.14L84,70.26,83.81,70,82.5,68.7,79.78,66a1.5,1.5,0,1,0-2.13,2.12Z"/><path class="b062cd48-88cd-4872-8de9-dfff56150f4c" d="M65.5,65.1C69.37,69,73.22,73,77.13,76.84A4.77,4.77,0,1,0,84,70.26c-1.75-1.88-3.62-3.65-5.42-5.48l-6.35-6.41a1.5,1.5,0,0,0-2.13,2.12L81.36,71.82c.7.71,1.4,1.46.91,2.54a1.82,1.82,0,0,1-3.07.31c-2-2-3.91-4-5.87-5.93L67.62,63c-1.36-1.37-3.48.75-2.12,2.13Z"/><path class="b062cd48-88cd-4872-8de9-dfff56150f4c" d="M73,72.67c1.41,1.43,2.84,2.84,4.24,4.29l.13.14c-.16-.18.12.18.13.19s.21.44.1.18c.06.13.08.28.13.42.12.38,0-.23,0,.15v.41c0,.18,0,.18,0,0a1.38,1.38,0,0,1-.06.26s-.14.4-.06.21-.11.2-.11.19-.27.38-.08.15c-.09.11-.2.2-.29.3-.26.28.21-.1-.1.09l-.33.19c-.33.19.26,0-.11,0l-.47.11c.37-.06,0,0-.09,0a2.26,2.26,0,0,1-.37,0c.37,0,0,0-.09,0l-.23-.07c-.37-.11.22.15-.11,0l-.32-.19c-.33-.2.17.2-.1-.09l-.11-.1-.86-.87L71.29,76a1.5,1.5,0,1,0-2.13,2.12l2.47,2.49c.33.33.65.67,1,1a4.76,4.76,0,0,0,7.27-.6,4.74,4.74,0,0,0,.64-4.24,9.8,9.8,0,0,0-2.71-3.46l-2.69-2.73A1.5,1.5,0,1,0,73,72.67Z"/><path class="b062cd48-88cd-4872-8de9-dfff56150f4c" d="M62.73,67.34l-.55-.55-.08-.08a1.11,1.11,0,0,0-.48-.31,1.15,1.15,0,0,0-.58-.13,1.11,1.11,0,0,0-.57.13,1.21,1.21,0,0,0-.49.31l-.23.3a1.48,1.48,0,0,0-.21.76l.06.4a1.51,1.51,0,0,0,.38.66l.55.55.08.08a1.14,1.14,0,0,0,.48.31,1.36,1.36,0,0,0,1.16,0,1.14,1.14,0,0,0,.48-.31l.24-.3a1.57,1.57,0,0,0,.2-.76l-.05-.4a1.49,1.49,0,0,0-.39-.66Z"/><path class="b062cd48-88cd-4872-8de9-dfff56150f4c" d="M53.51,58,50.2,54.7l-.47-.48a1.5,1.5,0,0,0-2.12,2.12l3.3,3.33.48.48a1.51,1.51,0,0,0,2.12,0,1.53,1.53,0,0,0,0-2.12Z"/><path class="b062cd48-88cd-4872-8de9-dfff56150f4c" d="M58.12,62.68l-.55-.54-.08-.08a1,1,0,0,0-.48-.31,1.06,1.06,0,0,0-.58-.13,1.08,1.08,0,0,0-.58.13,1.14,1.14,0,0,0-.48.31l-.23.3a1.48,1.48,0,0,0-.21.76l.06.4a1.57,1.57,0,0,0,.38.66l.55.55.08.08a1.17,1.17,0,0,0,.48.31,1.36,1.36,0,0,0,1.16,0,1.24,1.24,0,0,0,.48-.31l.23-.31a1.42,1.42,0,0,0,.21-.75l-.05-.4a1.56,1.56,0,0,0-.39-.67Z"/><path class="b062cd48-88cd-4872-8de9-dfff56150f4c" d="M67.32,72l-.53-.54-.07-.07a1.23,1.23,0,0,0-.49-.32,1.14,1.14,0,0,0-.58-.12,1.13,1.13,0,0,0-.57.12,1.23,1.23,0,0,0-.49.32l-.23.3a1.52,1.52,0,0,0-.21.76l.06.39a1.54,1.54,0,0,0,.38.67l.53.53.08.08a1.24,1.24,0,0,0,.48.31,1.36,1.36,0,0,0,1.16,0,1.11,1.11,0,0,0,.48-.31l.24-.3a1.57,1.57,0,0,0,.2-.76l-.05-.4a1.44,1.44,0,0,0-.39-.66Z"/><path class="b062cd48-88cd-4872-8de9-dfff56150f4c" d="M90.18,59.63l9.46-9.37L101,48.91a1.5,1.5,0,0,0-2.12-2.12l-9.46,9.37L88.06,57.5a1.5,1.5,0,0,0,2.12,2.13Z"/><path class="b062cd48-88cd-4872-8de9-dfff56150f4c" d="M82.36,27.82a3.64,3.64,0,0,0-1-.33l.9,2.2h0l-.23.3a1.9,1.9,0,0,1,.19-.21H80.14l.35.35.05.05a1.24,1.24,0,0,0,.48.31,1.36,1.36,0,0,0,1.16,0,1.24,1.24,0,0,0,.48-.31l.24-.31a1.5,1.5,0,0,0,.2-.75l0-.4a1.47,1.47,0,0,0-.39-.67l-.35-.34,0-.05a1.14,1.14,0,0,0-.48-.31,1.08,1.08,0,0,0-.58-.13l-.4.05a1.39,1.39,0,0,0-.66.39,5.4,5.4,0,0,0-.43.52,1.45,1.45,0,0,0-.21.76A1.72,1.72,0,0,0,79.94,30a1.57,1.57,0,0,0,.66.38,2.66,2.66,0,0,1,.55.16l-.36-.15,0,0a1.16,1.16,0,0,0,.56.18,1.22,1.22,0,0,0,.6,0,1.06,1.06,0,0,0,.51-.27,1.13,1.13,0,0,0,.39-.42l.15-.36a1.51,1.51,0,0,0,0-.79l-.15-.36A1.55,1.55,0,0,0,82.36,27.82Z"/><path class="b062cd48-88cd-4872-8de9-dfff56150f4c" d="M94.32,43a9,9,0,0,1-13.2-1.89,1.52,1.52,0,0,0-2.35-.31L72,47.51c-1.09,1.08-2.16,2.16-3.26,3.22-1.82,1.76-5.09,1.15-5.34-1.67-.13-1.37.69-2.23,1.58-3.08l3-2.87,9.09-8.71,6.07-5.81c1.4-1.34-.73-3.46-2.12-2.12L65.5,41.33c-2.35,2.25-5.48,4.45-5.06,8.13a6,6,0,0,0,8,5,11.34,11.34,0,0,0,3.8-3l8.61-8.52-2.36-.3a12.09,12.09,0,0,0,17.91,2.5c1.48-1.24-.65-3.35-2.12-2.12Z"/><path class="b062cd48-88cd-4872-8de9-dfff56150f4c" d="M116.61,42.12,95.2,20.51l-3-3.06a1.52,1.52,0,0,0-2.12,0L79.84,27.56a1.52,1.52,0,0,0,0,2.12l16.83,17,2.41,2.43a1.51,1.51,0,0,0,1.46.39L116,44.63c1.84-.58,1-3.48-.8-2.89L99.74,46.6l1.46.39L84.37,30,82,27.56v2.12L92.17,19.57H90.05l21.41,21.61,3,3.06C115.85,45.62,118,43.5,116.61,42.12Z"/><circle class="b062cd48-88cd-4872-8de9-dfff56150f4c" cx="106.98" cy="41.28" r="1.16"/><path class="b062cd48-88cd-4872-8de9-dfff56150f4c" d="M61.77,81.45a4.7,4.7,0,0,0,3.8,1.38,5,5,0,0,0,3.07-1.51c1.16-1.15,2.6-2.26,3-3.91a4.76,4.76,0,0,0-4.56-6,4.89,4.89,0,0,0-3.41,1.43l-1.43,1.41a6.05,6.05,0,0,0-1.72,2.56,4.83,4.83,0,0,0,1.2,4.64,1.52,1.52,0,0,0,2.13,0,1.54,1.54,0,0,0,0-2.12.86.86,0,0,1-.13-.14c-.19-.18.06.06,0,.09s-.17-.26-.2-.31-.15-.44,0,0c0-.12-.08-.23-.11-.34a1.8,1.8,0,0,0-.08-.35c.11.22,0,.29,0,.13v-.18a2,2,0,0,1,0-.35c0-.13.08-.17,0,.13a1,1,0,0,0,0-.17c0-.12.07-.23.1-.35s0,.08-.05.11.05-.11.08-.17a3.14,3.14,0,0,1,.18-.31c.11-.18,0,.07-.07.08s.14-.16.16-.18.24-.24.36-.36l1.35-1.34c.12-.12.23-.24.36-.35s.12-.11.17-.17-.24.17-.08.06l.15-.1.28-.16c.22-.12-.07,0-.11,0a2.67,2.67,0,0,0,.26-.09l.3-.07c.36-.08-.32,0,0,0a2.16,2.16,0,0,1,.36,0h.13c.32,0-.35-.09,0,0l.34.09.13,0c.19,0-.28-.14-.11,0a2.59,2.59,0,0,1,.33.17l.15.1c.15.08-.27-.25,0,0l.21.2.13.14c.08.08.08.18-.06-.09,0,.09.12.18.18.27l.09.16c.11.21,0,0,0-.07,0,.22.12.48.19.69,0,0,0-.38,0-.13V76a2.64,2.64,0,0,1,0,.4c0,.25,0-.1,0-.13a1,1,0,0,0,0,.17c0,.12-.06.23-.1.35s-.08,0,0-.11a1.3,1.3,0,0,0-.08.17,3.14,3.14,0,0,1-.18.31c-.12.21,0,0,.07-.08a.88.88,0,0,0-.12.15l-.14.14-.13.12-1.32,1.31c-.16.17-.33.34-.5.5l-.08.08s-.12.09-.15.13.25-.18,0,0l-.36.21c-.14.08-.1,0,.11,0a.86.86,0,0,0-.21.07,2.79,2.79,0,0,1-.39.1c-.16,0-.09-.06.13,0a.81.81,0,0,0-.22,0,2.64,2.64,0,0,1-.4,0c-.18,0,0-.08.13,0a.78.78,0,0,0-.22,0c-.07,0-.32-.14-.38-.12s.33.16.11,0a1.24,1.24,0,0,1-.2-.1l-.16-.1c-.25-.16,0,0,0,0s-.25-.22-.28-.26a1.5,1.5,0,0,0-2.13,2.12Z"/><path class="b062cd48-88cd-4872-8de9-dfff56150f4c" d="M57.13,76.87A4.73,4.73,0,0,0,61,78.25,5,5,0,0,0,64,76.74c1.17-1.16,2.62-2.28,3.07-3.94a4.8,4.8,0,0,0-4.59-6,4.88,4.88,0,0,0-3.42,1.44c-.49.47-1,1-1.44,1.42a5.9,5.9,0,0,0-1.73,2.58,4.85,4.85,0,0,0,1.2,4.66,1.52,1.52,0,0,0,2.13,0,1.54,1.54,0,0,0,0-2.12l-.14-.14c-.19-.19.07,0,.06.08a3.15,3.15,0,0,0-.2-.31c-.08-.13-.16-.44,0,0,0-.12-.09-.23-.12-.35s0-.26-.07-.35c.11.21,0,.29,0,.13s0-.12,0-.18,0-.23,0-.35.08-.17,0,.13c0-.06,0-.12,0-.18a2.3,2.3,0,0,1,.1-.35c.06-.23,0,.08-.06.11a.53.53,0,0,0,.08-.17c.06-.11.13-.21.19-.31s0,.08-.07.07.14-.16.16-.18l.36-.36,1.36-1.35.36-.36.18-.16c.14-.14-.24.16-.08.06l.16-.11.28-.16c.21-.12-.08,0-.11,0l.26-.09.3-.07c.36-.08-.32,0,0,0a2.16,2.16,0,0,1,.36,0h.13c.31,0-.35-.09,0,0l.35.09.12,0c.19,0-.28-.14-.1,0l.32.17.16.1c.15.09-.27-.24,0,0l.21.2a.86.86,0,0,1,.13.14c.09.08.08.18,0-.09a2.2,2.2,0,0,0,.18.28l.09.16c.1.21,0,0,0-.07.05.22.12.48.19.69,0,0,0-.38,0-.13a.66.66,0,0,0,0,.14c0,.13,0,.26,0,.4s0-.1,0-.13l0,.17a3.57,3.57,0,0,1-.1.35c-.05.17-.08,0,0-.1,0,0-.07.14-.08.16s-.12.21-.18.32,0,0,.06-.08l-.12.15-.14.14-.12.13-1.34,1.32-.5.5-.09.08s-.12.09-.14.13.24-.18,0,0-.24.14-.36.21-.09,0,.11,0a1,1,0,0,0-.22.08l-.39.1c-.16,0-.08-.07.13,0a.81.81,0,0,0-.22,0,2.64,2.64,0,0,1-.4,0c-.18,0,0-.08.13,0a1.42,1.42,0,0,0-.22-.05c-.07,0-.33-.14-.39-.12s.34.17.11,0l-.21-.11L59.51,75c-.26-.17,0,0,0,0a2.44,2.44,0,0,0-.28-.26,1.5,1.5,0,0,0-2.13,2.12Z"/><path class="b062cd48-88cd-4872-8de9-dfff56150f4c" d="M52.53,72.22a4.73,4.73,0,0,0,3.82,1.38,5,5,0,0,0,3.08-1.51c1.17-1.16,2.63-2.28,3.07-3.94a4.78,4.78,0,0,0-4.58-6,4.89,4.89,0,0,0-3.43,1.44L53.05,65a6.08,6.08,0,0,0-1.73,2.58,4.86,4.86,0,0,0,1.21,4.66,1.51,1.51,0,0,0,2.12,0,1.53,1.53,0,0,0,0-2.12L54.52,70c-.19-.19.07.05,0,.08s-.18-.27-.2-.31-.15-.44,0,0c0-.12-.08-.23-.11-.35a2,2,0,0,0-.08-.35c.11.21,0,.29,0,.13a1.09,1.09,0,0,0,0-.18c0-.12,0-.23,0-.35s.08-.17,0,.13l0-.18c0-.12.07-.23.1-.35s0,.08-.05.11.05-.11.08-.17a2,2,0,0,1,.19-.31c.11-.19,0,.08-.07.07s.13-.16.15-.18l.36-.36L56.3,66l.36-.36.18-.16c.14-.14-.25.16-.08.06l.15-.11.28-.16c.22-.12-.07,0-.11,0a2,2,0,0,0,.26-.09l.31-.07c.36-.08-.33,0,0,0h.49c.32,0-.34-.09,0,0l.35.09.13,0c.18,0-.28-.14-.11,0l.33.17.15.1c.15.09-.27-.24,0,0l.22.2.13.14c.08.08.08.18-.06-.09,0,.1.13.18.18.28l.09.16c.11.21,0,0,0-.07.06.22.12.48.19.69,0,0,0-.38,0-.13,0,0,0,.09,0,.14s0,.26,0,.4,0-.1,0-.13,0,.12,0,.17a2,2,0,0,1-.1.35c0,.17-.08,0,.06-.1,0,0-.07.14-.08.16l-.19.32c-.12.21,0,0,.07-.08a.88.88,0,0,0-.12.15,1.85,1.85,0,0,0-.14.14,1.59,1.59,0,0,0-.13.13l-1.33,1.32-.51.5-.08.08s-.12.09-.15.13.25-.18,0,0-.24.14-.36.21-.09,0,.11,0a.9.9,0,0,0-.21.08l-.39.1c-.17,0-.09-.07.13,0a.91.91,0,0,0-.23,0,2.71,2.71,0,0,1-.4,0c-.18,0,0-.08.13,0a1.42,1.42,0,0,0-.22,0c-.07,0-.33-.14-.39-.12s.34.17.11,0l-.2-.11-.16-.09c-.26-.17.05,0,0,0s-.26-.23-.29-.26a1.51,1.51,0,0,0-2.12,0A1.53,1.53,0,0,0,52.53,72.22Z"/><path class="b062cd48-88cd-4872-8de9-dfff56150f4c" d="M47.92,67.57A4.73,4.73,0,0,0,51.74,69a5,5,0,0,0,3.09-1.51c1.17-1.16,2.62-2.28,3.07-3.94a4.8,4.8,0,0,0-4.59-6,4.92,4.92,0,0,0-3.43,1.44l-1.43,1.42a5.9,5.9,0,0,0-1.73,2.58,4.83,4.83,0,0,0,1.2,4.66A1.5,1.5,0,0,0,50,65.45a.86.86,0,0,0-.13-.14c-.19-.19.07,0,.06.08a3.15,3.15,0,0,0-.2-.31c-.08-.13-.16-.44-.05,0,0-.12-.09-.23-.12-.35s0-.26-.07-.35c.1.21,0,.29,0,.13s0-.12,0-.18,0-.23,0-.35.08-.17,0,.13c0-.06,0-.12,0-.18a2.3,2.3,0,0,1,.1-.35c.06-.23,0,.08-.06.11a.53.53,0,0,0,.08-.17c.06-.11.13-.21.19-.31s0,.08-.07.07.14-.16.16-.18l.36-.36,1.36-1.35.36-.36.18-.16c.14-.14-.24.16-.08.06l.16-.11.28-.16c.21-.12-.08,0-.11,0l.25-.09.31-.07c.36-.08-.32,0,.05,0h.49c.31,0-.35-.09,0,0l.34.09.13,0c.19.05-.28-.14-.1,0l.32.17.16.1c.15.09-.27-.24,0,0l.21.2a.86.86,0,0,1,.13.14c.08.08.08.18,0-.09a2.2,2.2,0,0,0,.18.28.8.8,0,0,1,.08.16c.11.21,0,0,0-.07,0,.22.12.48.19.69,0,0,0-.38,0-.13v.14a2.71,2.71,0,0,1,0,.4c0,.25,0-.1,0-.13a1,1,0,0,0,0,.17,3.57,3.57,0,0,1-.1.35c0,.17-.08,0,.05-.1,0,0-.07.14-.08.16a2.69,2.69,0,0,1-.19.32c-.12.21,0,0,.07-.08l-.12.15a1.85,1.85,0,0,1-.14.14l-.12.13L53.07,65l-.5.5-.09.08s-.12.09-.14.13.24-.18,0,0l-.36.21c-.15.09-.09,0,.11,0a.83.83,0,0,0-.22.08l-.39.1c-.16,0-.08-.07.13,0a.81.81,0,0,0-.22,0,2.64,2.64,0,0,1-.4,0c-.18,0,0-.08.13,0a1.42,1.42,0,0,0-.22,0c-.07,0-.33-.14-.39-.12s.34.17.11.05l-.21-.11-.16-.09c-.25-.17.05,0,0,0a1.94,1.94,0,0,0-.29-.26,1.51,1.51,0,0,0-2.12,0A1.53,1.53,0,0,0,47.92,67.57Z"/><path class="b062cd48-88cd-4872-8de9-dfff56150f4c" d="M33.06,52.13,56.44,29l3.35-3.31H57.67L67.78,35.88V33.75L49.33,52l-2.59,2.56,1.46-.38L32.4,49.62a1.51,1.51,0,0,0-.8,2.9L47.4,57.1a1.49,1.49,0,0,0,1.46-.39L67.32,38.44l2.59-2.56a1.55,1.55,0,0,0,0-2.13L59.79,23.54a1.52,1.52,0,0,0-2.12,0L34.29,46.7,30.94,50A1.5,1.5,0,0,0,33.06,52.13Z"/><circle class="b062cd48-88cd-4872-8de9-dfff56150f4c" cx="41.62" cy="48.23" r="1.16"/></g></svg>