<svg xmlns="http://www.w3.org/2000/svg" viewBox="0 0 150 100"><defs><style>.a85a9b6d-d879-4f7f-ae73-0a57d12c160a{fill:#fdbbb9;isolation:isolate;}.b31d0baa-bea1-4ea3-a630-a83f59839e62{font-size:14.73px;font-family:Overpass-Bold, Overpass;font-weight:700;}.b30533ff-8f74-4f2a-b90f-c0c7a0216b53{letter-spacing:0em;}.b1645435-3443-4fd9-991f-c7e237bce096{letter-spacing:-0.01em;}.aeb68cd9-d009-4e05-ae25-fa0b52ef5a1d{letter-spacing:0em;}</style></defs><title>no_devops_1</title><g id="e3efa829-118d-4273-b64f-f450c8e0bf3d" data-name="Diamonds"><rect class="a85a9b6d-d879-4f7f-ae73-0a57d12c160a" x="14.61" y="14.72" width="70.56" height="70.56" transform="translate(-20.74 49.93) rotate(-45)"/></g><g id="ab32ff4f-0813-4ebb-a9d7-8b451079384e" data-name="Layer 1"><text class="b31d0baa-bea1-4ea3-a630-a83f59839e62" transform="translate(51.46 56.04)"><tspan class="b30533ff-8f74-4f2a-b90f-c0c7a0216b53">De</tspan><tspan class="b1645435-3443-4fd9-991f-c7e237bce096" x="18.29" y="0">v</tspan><tspan x="26.02" y="0">O</tspan><tspan class="aeb68cd9-d009-4e05-ae25-fa0b52ef5a1d" x="36.83" y="0">p</tspan><tspan x="45.17" y="0">s</tspan></text><path d="M101.5,73.89A33.78,33.78,0,0,1,44,46.75,33.81,33.81,0,1,1,101.5,73.89,1.5,1.5,0,0,0,103.62,76,36.77,36.77,0,0,0,74.19,13.38a36.78,36.78,0,0,0-17,67.24,37.07,37.07,0,0,0,42-.82A40.18,40.18,0,0,0,103.62,76C105,74.65,102.88,72.53,101.5,73.89Z"/><path d="M85.82,43.91l15.59-15.58,2.21-2.22A1.5,1.5,0,0,0,101.5,24L85.92,39.57,83.7,41.79a1.5,1.5,0,0,0,2.12,2.12Z"/><path d="M53.72,76,68.46,61.27l2.1-2.09a1.5,1.5,0,0,0-2.12-2.12L53.7,71.79l-2.1,2.1A1.5,1.5,0,0,0,53.72,76Z"/></g></svg>