<svg xmlns="http://www.w3.org/2000/svg" viewBox="0 0 150 100"><defs><style>.e09db982-618a-4bec-bfd8-d858e4343c29{fill:#fdbbb9;isolation:isolate;}.f412fa13-ee70-492a-bc00-b98b6b47a585{fill:#1e1e21;}</style></defs><title>oversee</title><g id="fc9ff3c0-d186-4d72-9f65-abebd44e9ddb" data-name="Diamonds"><rect class="e09db982-618a-4bec-bfd8-d858e4343c29" x="14.61" y="14.72" width="70.56" height="70.56" transform="translate(-20.74 49.93) rotate(-45)"/></g><g id="e6899c5e-a21a-4b84-8323-796c7637e7f0" data-name="Layer 1"><path class="f412fa13-ee70-492a-bc00-b98b6b47a585" d="M92.53,35.59a8.92,8.92,0,1,1-7.32-8.78,9,9,0,0,1,7.32,8.78,1.5,1.5,0,0,0,3,0,11.92,11.92,0,1,0-9.66,11.69,12.09,12.09,0,0,0,9.66-11.69A1.5,1.5,0,0,0,92.53,35.59Z"/><path class="f412fa13-ee70-492a-bc00-b98b6b47a585" d="M105.4,34.29a104.57,104.57,0,0,1-17,9.07,17.93,17.93,0,0,1-4.39,1.3,9.88,9.88,0,0,1-3.93-.79A71.36,71.36,0,0,1,69,38.53c-2.43-1.35-4.84-2.75-7.19-4.24v2.59a105.26,105.26,0,0,1,16.94-9.07,18.34,18.34,0,0,1,4.39-1.29,9.93,9.93,0,0,1,3.94.79,70.74,70.74,0,0,1,11.1,5.33c2.43,1.36,4.84,2.76,7.2,4.24,1.64,1,3.14-1.56,1.51-2.59A107.33,107.33,0,0,0,89,24.83a17.08,17.08,0,0,0-5-1.31,11.66,11.66,0,0,0-4.51.82A71.83,71.83,0,0,0,68,29.79c-2.6,1.43-5.16,2.92-7.67,4.5a1.52,1.52,0,0,0,0,2.59A107,107,0,0,0,78.2,46.35a17.49,17.49,0,0,0,5,1.31,12.06,12.06,0,0,0,4.52-.82,73.1,73.1,0,0,0,11.57-5.45c2.59-1.44,5.15-2.93,7.66-4.51C108.54,35.86,107,33.26,105.4,34.29Z"/><path class="f412fa13-ee70-492a-bc00-b98b6b47a585" d="M87,40.27a5.21,5.21,0,1,1-5.21-5.21H82a2.54,2.54,0,0,0-.11.78,3,3,0,0,0,3,3,3.13,3.13,0,0,0,1.71-.52A5.09,5.09,0,0,1,87,40.27Z"/><path class="f412fa13-ee70-492a-bc00-b98b6b47a585" d="M61.72,51.19,43.94,69,41.41,71.5a1.5,1.5,0,0,0,2.13,2.12L61.31,55.84l2.53-2.53a1.5,1.5,0,0,0-2.12-2.12Z"/><path class="f412fa13-ee70-492a-bc00-b98b6b47a585" d="M80,51.19,62.17,69,59.64,71.5a1.5,1.5,0,0,0,2.12,2.12L79.54,55.84l2.53-2.53A1.5,1.5,0,0,0,80,51.19Z"/><path class="f412fa13-ee70-492a-bc00-b98b6b47a585" d="M98.17,51.19,80.39,69,77.86,71.5A1.5,1.5,0,0,0,80,73.62L97.76,55.84l2.53-2.53a1.5,1.5,0,0,0-2.12-2.12Z"/><path class="f412fa13-ee70-492a-bc00-b98b6b47a585" d="M116.4,51.19,98.62,69,96.09,71.5a1.5,1.5,0,0,0,2.12,2.12L116,55.84l2.53-2.53a1.5,1.5,0,0,0-2.12-2.12Z"/></g></svg>