<svg xmlns="http://www.w3.org/2000/svg" viewBox="0 0 150 100"><defs><style>.e6a787ec-53d6-45af-a8e2-676dc2479f50{fill:#fdbbb9;isolation:isolate;}.bcd780a7-f3cc-47af-8878-cb16491e61f9{fill:#1e1e21;}</style></defs><title>permissions</title><g id="e87c4968-66fc-4015-9758-c96c1d270919" data-name="Diamonds"><rect class="e6a787ec-53d6-45af-a8e2-676dc2479f50" x="14.61" y="14.72" width="70.56" height="70.56" transform="translate(-20.74 49.93) rotate(-45)"/></g><g id="b15ec37f-bee2-41f1-8cd1-21b67adbbcdd" data-name="Layer 1"><path class="bcd780a7-f3cc-47af-8878-cb16491e61f9" d="M59.48,62.68c-2.9,0-2.24-3.88-2.24-5.75V48.37a2.47,2.47,0,0,1,1.56-2.68,2.27,2.27,0,0,1,2.91,2.23c.08,2.56,0,5.13,0,7.7v4.27c0,1.43-.6,2.73-2.23,2.79-1.93.07-1.94,3.07,0,3a5.33,5.33,0,0,0,5.23-5.25c0-1.07,0-2.15,0-3.23,0-3.1.07-6.2,0-9.3a5.23,5.23,0,0,0-10.43-.63,29.3,29.3,0,0,0,0,3.11V56c0,1.45,0,2.91,0,4.37a5.32,5.32,0,0,0,5.24,5.31A1.5,1.5,0,0,0,59.48,62.68Z"/><path class="bcd780a7-f3cc-47af-8878-cb16491e61f9" d="M63.78,53.77h3.45a1.5,1.5,0,0,0,1.5-1.5,1.52,1.52,0,0,0-1.5-1.5H63.78a1.52,1.52,0,0,0-1.06.44,1.5,1.5,0,0,0,1.06,2.56Z"/><path class="bcd780a7-f3cc-47af-8878-cb16491e61f9" d="M62.81,60.52a10.38,10.38,0,0,1,6.77,7.83,24.58,24.58,0,0,1,.17,4.54V83.27l1.5-1.5H47.7l1.5,1.5V72.41a17.28,17.28,0,0,1,.45-5.17,10.36,10.36,0,0,1,6.5-6.73c1.81-.63,1-3.53-.8-2.89A13.5,13.5,0,0,0,46.2,70.25c0,3.07,0,6.14,0,9.2v3.82a1.52,1.52,0,0,0,1.5,1.5H71.25a1.52,1.52,0,0,0,1.5-1.5V72a17.19,17.19,0,0,0-.84-6.37,13.58,13.58,0,0,0-8.31-8c-1.82-.65-2.6,2.25-.79,2.89Z"/><path class="bcd780a7-f3cc-47af-8878-cb16491e61f9" d="M102.23,62.68c-2.9,0-2.24-3.88-2.24-5.75V48.37c0-1.16.3-2.27,1.56-2.68a2.27,2.27,0,0,1,2.91,2.23c.08,2.56,0,5.13,0,7.7v4.27c0,1.43-.61,2.73-2.23,2.79-1.93.07-1.94,3.07,0,3a5.33,5.33,0,0,0,5.23-5.25c0-1.07,0-2.15,0-3.23,0-3.1.07-6.2,0-9.3A5.23,5.23,0,0,0,97,47.27a29.3,29.3,0,0,0,0,3.11V56c0,1.45,0,2.91,0,4.37a5.32,5.32,0,0,0,5.24,5.31A1.5,1.5,0,0,0,102.23,62.68Z"/><path class="bcd780a7-f3cc-47af-8878-cb16491e61f9" d="M106.53,53.77H110a1.5,1.5,0,0,0,1.5-1.5,1.52,1.52,0,0,0-1.5-1.5h-3.45a1.52,1.52,0,0,0-1.06.44,1.5,1.5,0,0,0-.44,1.06,1.53,1.53,0,0,0,1.5,1.5Z"/><path class="bcd780a7-f3cc-47af-8878-cb16491e61f9" d="M105.56,60.52a10.38,10.38,0,0,1,6.77,7.83,24.58,24.58,0,0,1,.17,4.54V83.27l1.5-1.5H90.45l1.5,1.5V72.41a17.28,17.28,0,0,1,.45-5.17,10.36,10.36,0,0,1,6.5-6.73c1.81-.63,1-3.53-.8-2.89A13.5,13.5,0,0,0,89,70.25c0,3.07,0,6.14,0,9.2v3.82a1.52,1.52,0,0,0,1.5,1.5H114a1.52,1.52,0,0,0,1.5-1.5V72a17.4,17.4,0,0,0-.84-6.37,13.58,13.58,0,0,0-8.31-8c-1.82-.65-2.6,2.25-.79,2.89Z"/><path class="bcd780a7-f3cc-47af-8878-cb16491e61f9" d="M80.85,38.41c-2.89,0-2.23-3.88-2.23-5.75V24.1c0-1.16.3-2.27,1.55-2.68a2.26,2.26,0,0,1,2.91,2.23c.08,2.56,0,5.13,0,7.7v4.27c0,1.43-.6,2.73-2.23,2.79-1.92.07-1.93,3.07,0,3a5.33,5.33,0,0,0,5.23-5.25c0-1.07,0-2.15,0-3.23,0-3.1.08-6.2,0-9.3A5.23,5.23,0,0,0,75.66,23a29.53,29.53,0,0,0,0,3.12v5.62c0,1.45,0,2.91,0,4.37a5.31,5.31,0,0,0,5.23,5.31A1.5,1.5,0,0,0,80.85,38.41Z"/><path class="bcd780a7-f3cc-47af-8878-cb16491e61f9" d="M85.16,29.5H88.6a1.54,1.54,0,0,0,1.06-.44A1.5,1.5,0,0,0,88.6,26.5H85.16a1.5,1.5,0,0,0-1.5,1.5,1.52,1.52,0,0,0,1.5,1.5Z"/><path class="bcd780a7-f3cc-47af-8878-cb16491e61f9" d="M70.58,46a10.41,10.41,0,0,1,6.94-9.73,1.53,1.53,0,0,0,1-1.84,1.51,1.51,0,0,0-1.85-1A13.45,13.45,0,0,0,67.58,46a1.5,1.5,0,0,0,3,0Z"/><path class="bcd780a7-f3cc-47af-8878-cb16491e61f9" d="M84.18,36.25a10.5,10.5,0,0,1,5,3.72,10.36,10.36,0,0,1,1.93,6,1.5,1.5,0,0,0,3,0A13.46,13.46,0,0,0,85,33.36a1.5,1.5,0,1,0-.8,2.89Z"/><path class="bcd780a7-f3cc-47af-8878-cb16491e61f9" d="M54.51,33.67l5,5,.71.71a1.5,1.5,0,0,0,2.12-2.12l-5-5-.71-.7a1.5,1.5,0,1,0-2.12,2.12Z"/><path class="bcd780a7-f3cc-47af-8878-cb16491e61f9" d="M60.19,31.55l-5,5-.7.71a1.51,1.51,0,0,0,0,2.12,1.53,1.53,0,0,0,2.12,0l5-5,.71-.71a1.5,1.5,0,1,0-2.12-2.12Z"/><path class="bcd780a7-f3cc-47af-8878-cb16491e61f9" d="M97.77,33.67l5,5,.71.71a1.51,1.51,0,0,0,2.12,0,1.53,1.53,0,0,0,0-2.12l-5-5-.7-.7a1.5,1.5,0,0,0-2.13,2.12Z"/><path class="bcd780a7-f3cc-47af-8878-cb16491e61f9" d="M103.46,31.55l-5,5-.71.71a1.5,1.5,0,0,0,2.13,2.12l5-5,.71-.71a1.5,1.5,0,1,0-2.12-2.12Z"/><path class="bcd780a7-f3cc-47af-8878-cb16491e61f9" d="M86,7.67,81,12.6l-.71.71,1.81-.23L78.9,10.62a1.49,1.49,0,0,0-2.05.54,1.55,1.55,0,0,0,.53,2.05l3.23,2.46a1.52,1.52,0,0,0,1.82-.24l4.93-4.93.71-.71a1.51,1.51,0,0,0,0-2.12,1.53,1.53,0,0,0-2.12,0Z"/></g></svg>