<svg xmlns="http://www.w3.org/2000/svg" viewBox="0 0 150 100"><defs><style>.b40eb1b2-c12b-46f3-807f-d17fcb3aa104{fill:#fdbbb9;isolation:isolate;}</style></defs><title>project_cards</title><g id="eb290e2a-53c6-4917-8360-0189dc184de6" data-name="Diamonds"><rect class="b40eb1b2-c12b-46f3-807f-d17fcb3aa104" x="14.61" y="14.72" width="70.56" height="70.56" transform="translate(-20.74 49.93) rotate(-45)"/></g><g id="fc51fb4e-f9db-489a-9971-8c2605e84572" data-name="Layer 1"><path d="M117.11,73.51h-75l1.5,1.5V25l-1.5,1.5h75l-1.5-1.5V75a1.5,1.5,0,0,0,3,0V25a1.52,1.52,0,0,0-1.5-1.5h-75a1.52,1.52,0,0,0-1.5,1.5V75a1.52,1.52,0,0,0,1.5,1.5h75A1.5,1.5,0,0,0,117.11,73.51Z"/><path d="M65.42,44.65H51.23l1.5,1.5V34.61l-1.5,1.5H65.42l-1.5-1.5V46.15a1.5,1.5,0,0,0,3,0V34.61a1.52,1.52,0,0,0-1.5-1.5H51.23a1.52,1.52,0,0,0-1.5,1.5V46.15a1.52,1.52,0,0,0,1.5,1.5H65.42A1.5,1.5,0,0,0,65.42,44.65Z"/><path d="M86.7,44.65H72.51l1.5,1.5V34.61l-1.5,1.5H86.7l-1.5-1.5V46.15a1.5,1.5,0,0,0,3,0V34.61a1.52,1.52,0,0,0-1.5-1.5H72.51a1.52,1.52,0,0,0-1.5,1.5V46.15a1.52,1.52,0,0,0,1.5,1.5H86.7A1.5,1.5,0,0,0,86.7,44.65Z"/><path d="M108,44.65H93.79l1.5,1.5V34.61l-1.5,1.5H108l-1.5-1.5V46.15a1.5,1.5,0,0,0,3,0V34.61a1.52,1.52,0,0,0-1.5-1.5H93.79a1.52,1.52,0,0,0-1.5,1.5V46.15a1.52,1.52,0,0,0,1.5,1.5H108A1.5,1.5,0,0,0,108,44.65Z"/><path d="M65.42,63.89H51.23l1.5,1.5V53.85l-1.5,1.5H65.42l-1.5-1.5V65.39a1.5,1.5,0,0,0,3,0V53.85a1.52,1.52,0,0,0-1.5-1.5H51.23a1.52,1.52,0,0,0-1.5,1.5V65.39a1.52,1.52,0,0,0,1.5,1.5H65.42A1.5,1.5,0,0,0,65.42,63.89Z"/><path d="M86.7,63.89H72.51l1.5,1.5V53.85l-1.5,1.5H86.7l-1.5-1.5V65.39a1.5,1.5,0,0,0,3,0V53.85a1.52,1.52,0,0,0-1.5-1.5H72.51a1.52,1.52,0,0,0-1.5,1.5V65.39a1.52,1.52,0,0,0,1.5,1.5H86.7A1.5,1.5,0,0,0,86.7,63.89Z"/><path d="M108,63.89H93.79l1.5,1.5V53.85l-1.5,1.5H108l-1.5-1.5V65.39a1.5,1.5,0,0,0,3,0V53.85a1.52,1.52,0,0,0-1.5-1.5H93.79a1.52,1.52,0,0,0-1.5,1.5V65.39a1.52,1.52,0,0,0,1.5,1.5H108A1.5,1.5,0,0,0,108,63.89Z"/></g></svg>