<svg xmlns="http://www.w3.org/2000/svg" viewBox="0 0 150 100"><defs><style>.a7b8f062-a489-40d5-8fd4-8d3207273b81{fill:#fdbbb9;isolation:isolate;}</style></defs><title>server</title><g id="ee43587b-4cff-44d2-91bd-d53ade24838f" data-name="Diamonds"><rect class="a7b8f062-a489-40d5-8fd4-8d3207273b81" x="14.61" y="14.72" width="70.56" height="70.56" transform="translate(-20.74 49.93) rotate(-45)"/></g><g id="ba6f201a-e445-4596-8895-946227669f21" data-name="Layer 1"><path d="M107.5,31.25c0,2.53-3.15,4.41-5.35,5.5a42.86,42.86,0,0,1-13.42,3.64,75.84,75.84,0,0,1-17.56.22,47.73,47.73,0,0,1-14.23-3.35c-2.34-1-5.74-2.72-6.37-5.38a3.33,3.33,0,0,1,.7-2.73,10.12,10.12,0,0,1,3.22-2.67c3.85-2.25,8.38-3.34,12.73-4.07a74.63,74.63,0,0,1,17.22-.73A51.12,51.12,0,0,1,101,25.2a16.54,16.54,0,0,1,4.83,2.92,4.7,4.7,0,0,1,1.71,3.13c0,1.93,3,1.93,3,0-.07-3.51-3-6-5.84-7.57-4.53-2.53-9.81-3.73-14.91-4.44A78,78,0,0,0,70.32,19,49.14,49.14,0,0,0,54.6,23c-2.92,1.4-6.37,3.68-7,7.13s1.89,6.21,4.58,8c4.08,2.67,9.1,4,13.84,4.78a76.92,76.92,0,0,0,19.29.84c6.06-.49,12.26-1.57,17.81-4.15,3.36-1.56,7.29-4.23,7.37-8.35C110.54,29.32,107.54,29.32,107.5,31.25Z"/><path d="M107.5,68.75a4.29,4.29,0,0,1-1.32,2.74,13.73,13.73,0,0,1-3.91,2.7,42.31,42.31,0,0,1-13.54,3.7,76.26,76.26,0,0,1-17.35.24A48.4,48.4,0,0,1,57,74.8a16.54,16.54,0,0,1-4.83-2.92,4.7,4.7,0,0,1-1.71-3.13c0-1.93-3-1.93-3,0,.07,3.51,3,6,5.84,7.57C57.81,78.82,63,80,68,80.73a78.48,78.48,0,0,0,19.43.32,50.12,50.12,0,0,0,15.66-4c3.36-1.56,7.29-4.23,7.37-8.35,0-1.93-3-1.93-3,0Z"/><path d="M107.5,50a4.29,4.29,0,0,1-1.32,2.74,13.73,13.73,0,0,1-3.91,2.7,42.31,42.31,0,0,1-13.54,3.7,76.26,76.26,0,0,1-17.35.24A48.4,48.4,0,0,1,57,56.05a16.54,16.54,0,0,1-4.83-2.92A4.7,4.7,0,0,1,50.5,50c0-1.93-3-1.93-3,0,.07,3.51,3,6,5.84,7.57C57.81,60.07,63,61.27,68,62a78.48,78.48,0,0,0,19.43.32,50.12,50.12,0,0,0,15.66-3.95c3.36-1.56,7.29-4.23,7.37-8.35,0-1.93-3-1.93-3,0Z"/><path d="M50.5,68.75V31.25a1.5,1.5,0,0,0-3,0v37.5a1.5,1.5,0,0,0,3,0Z"/><path d="M107.5,31.25v37.5a1.5,1.5,0,0,0,3,0V31.25a1.5,1.5,0,0,0-3,0Z"/></g></svg>