<svg xmlns="http://www.w3.org/2000/svg" viewBox="0 0 150 100"><defs><style>.ad492db2-066c-487e-944c-6f8531d2cfd2{fill:#fdbbb9;isolation:isolate;}.bda2f5f1-d17b-40f5-b50c-709509ef7bf6{fill:#1e1e21;}</style></defs><title>three_arrows</title><g id="f84bfebb-e38b-4a11-89e7-02a9aef3f5e1" data-name="Diamonds"><rect class="ad492db2-066c-487e-944c-6f8531d2cfd2" x="14.61" y="14.72" width="70.56" height="70.56" transform="translate(-20.74 49.93) rotate(-45)"/></g><g id="aec8a168-88c5-4603-8fdb-6ac231dd4c62" data-name="Layer 1"><path class="bda2f5f1-d17b-40f5-b50c-709509ef7bf6" d="M102.15,26.9A28.83,28.83,0,1,1,79.81,37.49c1.21-1.49-.9-3.62-2.12-2.12A31.83,31.83,0,1,0,102.15,23.9a1.5,1.5,0,0,0,0,3Z"/><path class="bda2f5f1-d17b-40f5-b50c-709509ef7bf6" d="M78.3,26.9A28.83,28.83,0,1,1,56,37.49c1.21-1.49-.9-3.62-2.12-2.12A31.82,31.82,0,1,0,78.3,23.9a1.5,1.5,0,0,0,0,3Z"/><path class="bda2f5f1-d17b-40f5-b50c-709509ef7bf6" d="M56.43,26.9A28.83,28.83,0,1,1,34.09,37.49c1.21-1.49-.9-3.62-2.12-2.12A31.82,31.82,0,0,0,53.65,87.44,31.83,31.83,0,1,0,56.43,23.9a1.5,1.5,0,0,0,0,3Z"/><path class="bda2f5f1-d17b-40f5-b50c-709509ef7bf6" d="M112,35.67l-11.4-11.4v2.12L112,15a1.5,1.5,0,0,0-2.12-2.12l-11.4,11.4a1.51,1.51,0,0,0,0,2.12l11.4,11.4A1.5,1.5,0,0,0,112,35.67Z"/><path class="bda2f5f1-d17b-40f5-b50c-709509ef7bf6" d="M89.18,35.67,77.79,24.27v2.12L89.18,15a1.5,1.5,0,0,0-2.12-2.12l-11.4,11.4a1.53,1.53,0,0,0,0,2.12l11.4,11.4a1.5,1.5,0,0,0,2.12-2.12Z"/><path class="bda2f5f1-d17b-40f5-b50c-709509ef7bf6" d="M66.38,35.67,55,24.27v2.12L66.38,15a1.5,1.5,0,0,0-2.12-2.12l-11.4,11.4a1.53,1.53,0,0,0,0,2.12l11.4,11.4a1.5,1.5,0,0,0,2.12-2.12Z"/></g></svg>