<svg xmlns="http://www.w3.org/2000/svg" viewBox="0 0 150 100"><defs><style>.b3b1a191-7f76-4d8c-ab6f-b1f871124b96{fill:#fdbbb9;isolation:isolate;}.ed5a93d4-d219-463d-b1a3-f7a0aab4aab3{fill:#1e1e21;}</style></defs><title>uo_down</title><g id="af8c2cd0-cc8f-4bba-934c-d2ba497f13d5" data-name="Diamonds"><rect class="b3b1a191-7f76-4d8c-ab6f-b1f871124b96" x="14.61" y="14.72" width="70.56" height="70.56" transform="translate(-20.74 49.93) rotate(-45)"/></g><g id="a77d61ee-ce1b-43bf-8edb-f84b0a0fe0b0" data-name="Layer 1"><path d="M81.74,65.86V11.91a1.5,1.5,0,0,0-3,0v54a1.5,1.5,0,0,0,3,0Z"/><path d="M89.3,36.85v52a1.5,1.5,0,0,0,3,0V36.85a1.5,1.5,0,0,0-3,0Z"/><path class="ed5a93d4-d219-463d-b1a3-f7a0aab4aab3" d="M91.23,18.15,80.82,7.73a1.53,1.53,0,0,0-2.12,0L68.28,18.15a1.5,1.5,0,0,0,2.12,2.12L80.82,9.85H78.7L89.11,20.27a1.5,1.5,0,0,0,2.12-2.12Z"/><path class="ed5a93d4-d219-463d-b1a3-f7a0aab4aab3" d="M78.7,81.85,89.11,92.27a1.53,1.53,0,0,0,2.12,0l10.42-10.42a1.5,1.5,0,0,0-2.12-2.12L89.11,90.15h2.12L80.82,79.73a1.5,1.5,0,0,0-2.12,2.12Z"/></g></svg>