<svg xmlns="http://www.w3.org/2000/svg" viewBox="0 0 150 100"><defs><style>.ada7d269-1000-49dc-9163-1104924ac71f{fill:#fdbbb9;isolation:isolate;}</style></defs><title>website</title><g id="fe966628-5f58-4097-9f30-ef4c2fea69a2" data-name="Diamonds"><rect class="ada7d269-1000-49dc-9163-1104924ac71f" x="14.61" y="14.72" width="70.56" height="70.56" transform="translate(-20.74 49.93) rotate(-45)"/></g><g id="f1642c5d-ad75-491f-8650-2d2b562e0411" data-name="Layer 1"><path d="M113.43,68H46l1.5,1.5V25L46,26.51h67.45l-1.5-1.5V69.52a1.5,1.5,0,0,0,3,0V25a1.52,1.52,0,0,0-1.5-1.5H46a1.52,1.52,0,0,0-1.5,1.5V69.52A1.52,1.52,0,0,0,46,71h67.45A1.5,1.5,0,0,0,113.43,68Z"/><path d="M38.47,76.49h82.47a1.52,1.52,0,0,0,1.5-1.5V69.52a1.52,1.52,0,0,0-1.5-1.5H38.47a1.52,1.52,0,0,0-1.5,1.5V75a1.5,1.5,0,0,0,3,0V69.52L38.47,71h82.47l-1.5-1.5V75l1.5-1.5H38.47A1.5,1.5,0,0,0,38.47,76.49Z"/><path d="M104.15,60.65H55.26l1.5,1.5V33.48L55.26,35h48.89l-1.5-1.5V62.15a1.5,1.5,0,0,0,3,0V33.48a1.52,1.52,0,0,0-1.5-1.5H55.26a1.52,1.52,0,0,0-1.5,1.5V62.15a1.52,1.52,0,0,0,1.5,1.5h48.89A1.5,1.5,0,0,0,104.15,60.65Z"/><circle cx="99.62" cy="37.68" r="1.3"/><circle cx="93.85" cy="37.68" r="1.3"/><circle cx="88.08" cy="37.68" r="1.3"/><path d="M55.6,43.34h47.82a1.5,1.5,0,0,0,0-3H55.6a1.5,1.5,0,0,0,0,3Z"/><path d="M80.26,55.84H60.07l1.5,1.5v-10l-1.5,1.5H80.26l-1.5-1.5v10a1.5,1.5,0,0,0,3,0v-10a1.52,1.52,0,0,0-1.5-1.5H60.07a1.52,1.52,0,0,0-1.5,1.5v10a1.52,1.52,0,0,0,1.5,1.5H80.26A1.5,1.5,0,0,0,80.26,55.84Z"/><path d="M87,48.85H99.49a1.5,1.5,0,0,0,0-3H87a1.5,1.5,0,0,0,0,3Z"/><path d="M87,53.66H99.49a1.5,1.5,0,0,0,0-3H87a1.5,1.5,0,0,0,0,3Z"/><path d="M87,58.47H99.49a1.5,1.5,0,0,0,0-3H87a1.5,1.5,0,0,0,0,3Z"/></g></svg>