<?xml version="1.0" encoding="utf-8"?>
<!-- Generator: Adobe Illustrator 23.0.1, SVG Export Plug-In . SVG Version: 6.00 Build 0)  -->
<svg version="1.1" id="Layer_1" xmlns="http://www.w3.org/2000/svg" xmlns:xlink="http://www.w3.org/1999/xlink" x="0px" y="0px"
	 viewBox="0 0 35 40" style="enable-background:new 0 0 35 40;" xml:space="preserve">
<style type="text/css">
	.st0{fill-rule:evenodd;clip-rule:evenodd;fill:#008ECE;}
</style>
<g>
</g>
<path class="st0" d="M24,6.6c0,0-2.3-1-3.6-1.8c0,0-1.7-1-4.5-4.7c0,0,0.1,4.2-4.4,6.4C4.4,9.3,0,15.2,0,22.7C0,32.2,7.8,40,17.3,40
	c9.6,0,17.3-7.8,17.3-17.3C34.7,11.1,24,6.6,24,6.6z M4.8,16.1c-2.7,0.6-2.5-0.8-2-2c0.2-0.7,0.9-1.5,0.9-1.5c1.8-2.9,5.8-5,5.8-5
	l0,0c0.5-0.2,1.4-0.7,2.2-1.1c1.6-0.9,2-1.4,2-1.4c2.3-2.2,2.1-4.9,2.1-5c0,0,0,0,0,0c0,0,0,0,0,0v0c0,0,0,0,0,0
	c2,4-0.4,5.8-0.4,5.8c0.6,0.6,0.4,1.2,0.4,1.2C12.7,13.8,4.8,16.1,4.8,16.1z M25.7,37.1c-0.2,0.1-2.7,1.3-5.6,1.3
	c-1.6,0-3.3-0.4-4.8-1.4c-0.5-0.4-0.7-1.1-0.4-1.6c0.1-0.2,0.7-0.9,2.1,0l0,0c0.1,0.1,3.4,2.3,8.5-0.5c0.4-0.2,0.9-0.1,1.1,0.3
	C26.9,35.6,27,36.4,25.7,37.1z M18.7,32.9l0.1-0.1c0.1-0.1,1.8-2.3,4.3-2c0.4,0,1.8,0.1,2.7,1.8c0.1,0.2,0.3,0.9-0.1,1.4
	c-0.2,0.2-0.5,0.4-1.1,0.2c-0.4-0.1-0.6-0.5-0.6-0.7l0,0c-0.1-0.3-0.2-0.5-1.2-0.6c-0.8-0.1-1.3,0.3-1.9,0.8
	c-0.3,0.3-0.7,0.6-1.1,0.7c-0.1,0.1-0.2,0.1-0.4,0.1c-0.2,0-0.4-0.1-0.6-0.2C18.5,34,18.4,33.6,18.7,32.9z M30.1,33.1
	c0,0-0.9,0.3-1.8-0.7c0,0-2.7-3.1-4-3.6c0,0-0.8-0.3-1.8,0.1c0,0-0.7,0.1-3.4,1.9c0,0-4.6,2.9-6.9,2.5c0,0-5.2,0.1-4.5-5.4
	c0,0,1.1-6.2,8.3-4.8c0,0,1.6,0.3,4.5,2.6c0,0,2,1.5,3,1.5c0,0,0.8,0.1,2.6-1c0,0,3.5-2.7,4.8-2.6c0,0,0,0,0,0
	c0.2,0,2.5-0.1,2.5,3.7C33.3,27.2,33.4,31.6,30.1,33.1z"/>
</svg>
