<?xml version="1.0" encoding="utf-8"?>
<!-- Generator: Adobe Illustrator 23.0.1, SVG Export Plug-In . SVG Version: 6.00 Build 0)  -->
<svg version="1.1" id="レイヤー_1" xmlns="http://www.w3.org/2000/svg" xmlns:xlink="http://www.w3.org/1999/xlink" x="0px"
	 y="0px" viewBox="0 0 402 559.5" style="enable-background:new 0 0 402 559.5;" xml:space="preserve">
<style type="text/css">
	.st0{fill:#6AD7E5;}
	.st1{fill:#F6D2A2;}
	.st2{fill:#FFFFFF;}
	.st3{fill-rule:evenodd;clip-rule:evenodd;fill:#F6D2A2;}
	.st4{fill-rule:evenodd;clip-rule:evenodd;}
	.st5{fill-rule:evenodd;clip-rule:evenodd;fill:#FFFFFF;}
	.st6{fill:none;}
</style>
<g>
	<path class="st0" d="M313.4,44.9C282.2,18,239.1,13.1,193.8,13.1C149.6,16.6,107.5,24.7,78,50.6C30.5,20-13.4,93.4,42.4,112
		c-15.7,60.6,2.2,122.5-0.3,184.3c-2.2,55.5-16.8,129.7,14,179.6c5.4,8.8,12.2,16.4,19.9,23c8.6,7.4,18.4,13.5,28.9,18.4
		c25.2,11.8,54.3,17,80.3,17.9c37,1.3,78.9-3.8,112.1-21.8c9.6-5.2,18.5-11.5,26.3-19c8.6-8.2,15.9-17.8,21.5-29.1
		c24.9-49.8,20.8-110.7,17.2-165.8c-0.3-5.4-0.7-10.8-1-16c-0.2-3.3-0.4-6.6-0.5-9.9c-2.3-56.3,2.7-113.4-11.8-167.7
		C403.8,86.7,360.9,11.8,313.4,44.9z"/>
	<path class="st1" d="M339.6,535.5c18.1-10.9-3.8-33.5-15.9-41.1c-7.8,7.5-16.7,13.8-26.3,19C312.5,518.4,322.2,551.4,339.6,535.5z"
		/>
</g>
<path class="st2" d="M82.8,104c5.1,19.9,23.9,37.8,54.5,33c21-3.3,42.9-19.3,41.3-46.8c-1.1-17.6-10-31-25.1-37.7
	c-17.8-7.9-40.8-5-56,7.1C84.4,70.2,79.2,85.9,82.8,104z"/>
<path class="st2" d="M205.9,94c3,17.3,13.5,29.9,29.6,35.5c18.4,6.4,40.8,2.1,54.6-10.3c11.6-10.4,15.8-25.3,11.9-41.9
	c-6.5-27.7-31.1-37-52.6-33.8C227.3,46.7,204.1,63.9,205.9,94z"/>
<path class="st1" d="M386.8,281.4c-7.4-5.3-16.8-7.9-25.9-7.8c0.1,3.3,0.3,6.6,0.5,9.9c0.3,5.3,0.7,10.6,1,16
	c1.2,0.4,2.8,1.1,4.8,2.4c7.1,4.9,22.9,12.2,23.6-3.5C399.3,294.6,391.2,284.5,386.8,281.4z"/>
<path class="st2" d="M194.4,172.8c-0.5,6.4-1,13-0.3,19.7c-3.5,4.5-8.5,9-13,6.4c-5.7-3.3-8.5-16.1-6.3-25.7
	c3.6-0.5,7.3-1.8,10.9-3.1c3.2-1.1,6.3-2.2,9.1-2.7C194.6,169.2,194.5,171,194.4,172.8z"/>
<path class="st2" d="M215.8,195.4c-1.3,2.3-3.6,3.1-6.1,4c-0.8,0.3-1.6,0.6-2.3,0.9c-4.1-0.8-7.6-3.5-9.3-7.4
	c-0.8-6.5-0.3-12.8,0.2-19.5c0.2-2.1,0.3-4.2,0.4-6.4c0.2,0,0.4,0,0.6,0l0.2,0c4.6,0.1,8.9,1.9,13.1,3.7c1,0.4,1.9,0.8,2.9,1.2
	c0.1,2.1,0.2,4.3,0.4,6.5C216.3,184.1,216.7,189.9,215.8,195.4z"/>
<path class="st1" d="M73.8,499.2c-11,8.1-32.2,20.1-21.8,36.4c2.7,2.7,2.6,1.2,4.3,2c1,1.8,5.3,10.6,16.5,3.9
	c11.9-6.5,19.9-19.4,34.1-21.6c-0.7-0.9-1.4-1.8-2.1-2.7c-10.5-4.9-20.3-11-28.9-18.4C75.3,499,74.6,499.1,73.8,499.2z"/>
<path class="st3" d="M9,300.5c0.8,15.8,16.5,8.5,23.6,3.5c6.8-4.7,8.7-0.8,9.3-10c0.4-6.1,1.1-12.1,0.7-18.2
	c-10.2-0.9-21.4,1.5-29.7,7.6C8.6,286.5,0.5,296.6,9,300.5"/>
<path class="st4" d="M47.8,91.7c-8-4.2-13.8-9.9-8.9-19.1c4.5-8.5,12.9-7.6,20.8-3.4L47.8,91.7z"/>
<path class="st4" d="M336,83.7c8-4.2,13.8-9.9,8.9-19.1c-4.5-8.5-12.9-7.6-20.8-3.4L336,83.7z"/>
<g>
	<path d="M253.4,135.3c-6.4,0-12.8-1-18.8-3.1c-17.2-5.9-28.4-19.4-31.5-37.8l0-0.2c-0.9-14.3,3.6-27.1,13-37
		c8.4-8.8,20.1-14.7,33-16.6c12.3-1.8,24.5,0.3,34.3,5.9c11,6.3,18.5,16.7,21.6,30.1c4.1,17.7-0.4,33.5-12.8,44.7
		C282.1,130.3,267.7,135.3,253.4,135.3z M205.9,94c3,17.3,13.5,29.9,29.6,35.5c18.4,6.4,40.8,2.1,54.6-10.3
		c11.6-10.4,15.8-25.3,11.9-41.9c-6.5-27.7-31.1-37-52.6-33.8C227.3,46.7,204.1,63.9,205.9,94z"/>
</g>
<g>
	<path d="M128.3,140.5c-9.2,0-18-2.1-25.6-6.2c-11.4-6.2-19.2-16.4-22.6-29.6l0-0.1c-3.8-19.2,1.8-35.9,15.8-47.1
		c15.9-12.7,40.1-15.8,58.9-7.5c16.1,7.2,25.6,21.4,26.7,40.1c1.8,29.2-21.4,46.3-43.7,49.7C134.6,140.3,131.4,140.5,128.3,140.5z
		 M82.8,104c5.1,19.9,23.9,37.8,54.5,33c21-3.3,42.9-19.3,41.3-46.8c-1.1-17.6-10-31-25.1-37.7c-17.8-7.9-40.8-5-56,7.1
		C84.4,70.2,79.2,85.9,82.8,104z"/>
</g>
<g>
	<ellipse class="st4" cx="105.6" cy="95.4" rx="14.8" ry="16.1"/>
	<ellipse class="st5" cx="112.4" cy="99" rx="3.5" ry="4.1"/>
</g>
<g>
	<ellipse class="st4" cx="229.9" cy="91.4" rx="14.6" ry="16.1"/>
	<ellipse class="st5" cx="236.5" cy="95" rx="3.4" ry="4.1"/>
</g>
<g>
	<path class="st6" d="M74.5,500.6c-1.2,0.8-2.4,1.7-3.7,2.7c-11.5,8.1-25.8,18.2-17.5,31.4c1.2,1.2,1.5,1.2,1.7,1.2c0,0,0.1,0,0.2,0
		c0.7-3.6,2.7-6.5,4.6-9.3c1.2-1.8,2.3-3.5,3.1-5.3c0.3-0.8,1.2-1.1,2-0.8c0.8,0.3,1.1,1.2,0.8,2c-0.9,2-2.2,3.9-3.4,5.7
		c-2,2.9-3.8,5.7-4.3,9.1c0.8,1.4,2.4,4.1,5.5,4.9c2.4,0.7,5.4,0,8.7-2c4.4-2.4,8.3-5.7,12.1-9c5.9-5.1,12.1-10.3,20.1-12.3
		c-0.1-0.2-0.2-0.3-0.4-0.5c-10.8-5.1-20.3-11.1-28.4-18C75.1,500.5,74.8,500.5,74.5,500.6z"/>
	<path class="st6" d="M313.8,525.7c5.4,6.3,10.4,12.2,16,12.6c2.6,0.2,5.2-0.9,7.9-3.2c-0.7-1.5-1.3-3.1-1.8-4.6
		c-1.4-3.7-2.7-7.2-5.5-9.9c-0.6-0.6-0.6-1.5,0-2.1c0.6-0.6,1.5-0.6,2.1,0c3.3,3.1,4.8,7.1,6.2,11c0.5,1.3,1,2.6,1.5,3.8
		c3.2-2.3,4.8-5.2,4.8-8.7c0.1-9.9-12.2-22.3-21.1-28.2c-7.1,6.6-14.9,12.2-23.2,16.9C305.5,515.9,309.7,520.9,313.8,525.7z"/>
</g>
<g>
	<path class="st6" d="M75.5,500.5c-0.3,0-0.7,0.1-1,0.2c-1.2,0.8-2.4,1.7-3.7,2.7c-11.5,8.1-25.8,18.2-17.5,31.4
		c1.2,1.2,1.5,1.2,1.7,1.2c0,0,0.1,0,0.2,0c0.7-3.6,2.7-6.5,4.6-9.3c1.2-1.8,2.3-3.5,3.1-5.3c0.3-0.8,1.2-1.1,2-0.8
		c0.8,0.3,1.1,1.2,0.8,2c-0.9,2-2.2,3.9-3.4,5.7c-2,2.9-3.8,5.7-4.3,9.1c0.8,1.4,2.4,4.1,5.5,4.9c2.4,0.7,5.4,0,8.7-2
		c4.4-2.4,8.3-5.7,12.1-9c5.9-5.1,12.1-10.3,20.1-12.3c-0.1-0.2-0.2-0.3-0.4-0.5C93.1,513.4,83.6,507.4,75.5,500.5z"/>
	<path class="st6" d="M300.6,513.3c4.8,2.7,9.1,7.6,13.2,12.5c5.4,6.3,10.4,12.2,16,12.6c2.6,0.2,5.2-0.9,7.9-3.2
		c-0.7-1.5-1.3-3.1-1.8-4.6c-1.4-3.7-2.7-7.2-5.5-9.9c-0.6-0.6-0.6-1.5,0-2.1c0.6-0.6,1.5-0.6,2.1,0c3.3,3.1,4.8,7.1,6.2,11
		c0.5,1.3,1,2.6,1.5,3.8c3.2-2.3,4.8-5.2,4.8-8.7c0.1-9.9-12.2-22.3-21.1-28.2C316.7,503,308.9,508.6,300.6,513.3z"/>
	<path class="st6" d="M363.8,298.5c1.2,0.5,2.5,1.1,4.2,2.3c5.8,4,13.6,7.2,17.7,5.1c1.9-1,3.1-3.1,3.4-6.4c-2-0.7-4.3-1.5-5.9-3.7
		c-0.5-0.7-0.4-1.6,0.3-2.1c0.7-0.5,1.6-0.4,2.1,0.3c1.1,1.4,2.7,2,4.6,2.7c0.1,0,0.3,0.1,0.4,0.1c1.4-0.8,2.2-1.8,2.3-3.1
		c0.4-3.6-3.9-8.9-7-11.1c-6.4-4.7-14.8-7.3-23.5-7.5c0.1,2.8,0.3,5.6,0.4,8.4C363.2,288.4,363.5,293.5,363.8,298.5z"/>
	<g>
		<path class="st6" d="M13.8,284.6c-3.1,2.2-7.4,7.5-7,11.1c0.1,1.3,0.9,2.3,2.3,3.1c0.1,0,0.3-0.1,0.4-0.1c1.9-0.7,3.5-1.2,4.6-2.7
			c0.5-0.7,1.4-0.8,2.1-0.3c0.7,0.5,0.8,1.4,0.3,2.1c-1.6,2.1-3.9,2.9-5.9,3.7c0.3,3.3,1.5,5.5,3.4,6.4c4.2,2,11.9-1.1,17.7-5.1
			c2.4-1.7,4.3-2.3,5.7-2.8c2.2-0.8,2.7-0.9,3-6.1c0.1-1.4,0.2-2.8,0.3-4.2c0-0.4,0.1-0.9,0.1-1.3c0.1-3.8,0-7.5,0-11.3
			c-0.8,0-1.6-0.1-2.5-0.1C29.2,277.1,20.5,279.8,13.8,284.6z"/>
		<path class="st6" d="M75.5,500.5c-0.3,0-0.7,0.1-1,0.2c-1.2,0.8-2.4,1.7-3.7,2.7c-11.5,8.1-25.8,18.2-17.5,31.4
			c1.2,1.2,1.5,1.2,1.7,1.2c0,0,0.1,0,0.2,0c0.7-3.6,2.7-6.5,4.6-9.3c1.2-1.8,2.3-3.5,3.1-5.3c0.3-0.8,1.2-1.1,2-0.8
			c0.8,0.3,1.1,1.2,0.8,2c-0.9,2-2.2,3.9-3.4,5.7c-2,2.9-3.8,5.7-4.3,9.1c0.8,1.4,2.4,4.1,5.5,4.9c2.4,0.7,5.4,0,8.7-2
			c4.4-2.4,8.3-5.7,12.1-9c5.9-5.1,12.1-10.3,20.1-12.3c-0.1-0.2-0.2-0.3-0.4-0.5C93.1,513.4,83.6,507.4,75.5,500.5z"/>
		<path class="st6" d="M44.2,275.7c0.2,4.3,0,8.7-0.3,12.9c0,2.5-0.1,5.1-0.2,7.6c-0.4,11.1-1.4,22.9-2.4,35.3
			c-3.9,48.8-8.3,104,16.1,143.5c3.5,5.6,9.5,13.8,19.3,22.3c1.2,1,2.4,2,3.7,3c5.4,4.3,11.7,8.6,19.1,12.6c2.1,1.1,4.2,2.2,6.5,3.3
			c19.3,9.2,45.1,16.3,79.3,17.5c24.3,0.9,71.7-0.7,110.5-21.2c2.4-1.3,4.8-2.6,7.1-4.1c5.4-3.3,10.7-7.1,15.6-11.3
			c1.6-1.4,3.2-2.8,4.7-4.3c8.1-7.8,15.2-17.2,20.7-28.2c24.6-49.1,20.6-110,17.1-163.8c0-0.1,0-0.1,0-0.2c-0.1-1.1-0.1-2.3-0.2-3.4
			c-0.3-4.6-0.6-9.1-0.8-13.6c-0.2-2.8-0.3-5.7-0.4-8.5c0-1-0.1-2-0.1-3c-0.6-15-0.7-30.2-0.8-44.9c-0.2-40.2-0.4-81.7-11-120.9
			l-0.4-1.3l1.3-0.5c14.6-5.1,23.3-14.9,24.5-27.4c1.3-13.2-6.3-27.4-18.4-34.5c-7.2-4.2-22-9.3-40.3,3.4l-1,0.7l-0.9-0.8
			c-32.1-27.6-77.9-31.4-118.5-31.4c-39.5,3.1-84,10-114.9,37.1l-0.8,0.7l-1-0.6c-7.3-4.7-15-7.1-22.5-7.1c-6.6,0-13,1.8-18.9,5.5
			c-12,7.5-19.3,21.5-17.8,34.2c1.4,12,10.3,21.3,24.9,26.1l1.3,0.4l-0.4,1.4c-9.7,37.4-6.4,76.2-3.2,113.7
			c1.3,15.9,2.7,32.1,3.1,48.4l0.4,0L44.2,275.7z"/>
		<path class="st6" d="M300.6,513.3c4.8,2.7,9.1,7.6,13.2,12.5c5.4,6.3,10.4,12.2,16,12.6c2.6,0.2,5.2-0.9,7.9-3.2
			c-0.7-1.5-1.3-3.1-1.8-4.6c-1.4-3.7-2.7-7.2-5.5-9.9c-0.6-0.6-0.6-1.5,0-2.1c0.6-0.6,1.5-0.6,2.1,0c3.3,3.1,4.8,7.1,6.2,11
			c0.5,1.3,1,2.6,1.5,3.8c3.2-2.3,4.8-5.2,4.8-8.7c0.1-9.9-12.2-22.3-21.1-28.2C316.7,503,308.9,508.6,300.6,513.3z"/>
		<path class="st6" d="M386,282.6c-6.4-4.7-14.8-7.3-23.5-7.5c0.1,2.8,0.3,5.6,0.4,8.4c0.3,5,0.6,10,0.9,15.1
			c1.2,0.5,2.5,1.1,4.2,2.3c5.8,4,13.6,7.2,17.7,5.1c1.9-1,3.1-3.1,3.4-6.4c-2-0.7-4.3-1.5-5.9-3.7c-0.5-0.7-0.4-1.6,0.3-2.1
			c0.7-0.5,1.6-0.4,2.1,0.3c1.1,1.4,2.7,2,4.6,2.7c0.1,0,0.3,0.1,0.4,0.1c1.4-0.8,2.2-1.8,2.3-3.1C393.3,290.1,389,284.9,386,282.6z
			"/>
		<path d="M40.8,288.5c0.3-3.7,0.5-7.5,0.4-11.3c-0.1,0-0.3,0-0.4,0C40.9,280.9,40.9,284.7,40.8,288.5z"/>
		<path d="M387.7,280.2c-7-5.1-16-7.9-25.4-8.1c-0.6-15-0.7-30.2-0.8-44.9c-0.2-39.9-0.4-81.1-10.7-120.3
			c20.1-7.6,24.4-21.7,25.2-29.5c1.4-14.3-6.8-29.7-19.9-37.3c-13-7.6-28.5-6.5-42.6,2.9c-14.5-12.2-32.3-20.6-54.3-25.5
			c-17.9-4-38.1-5.8-65.4-5.8l-0.1,0c-39.6,3.1-84.3,10-115.9,37.1c-14.5-8.9-30.4-9.3-43.7-1C21,55.9,13.3,70.8,15,84.8
			c1.5,12.8,10.6,22.8,25.6,28.1c-9.4,37.5-6.1,76-3,113.3c1.3,15.7,2.7,31.8,3.1,47.9c-10.5-0.5-20.9,2.4-28.7,8
			c-2.9,2.1-8.8,8.3-8.2,13.9c0.2,1.6,0.9,3.8,3.7,5.4c0.4,4.6,2.1,7.7,5.1,9.2c1.4,0.7,2.9,1,4.5,1c6.7,0,14.5-5.1,16.3-6.3
			c2.1-1.5,3.7-2,5-2.5c0.7-0.3,1.4-0.5,1.9-0.8c-0.5,9.3-1.3,19.1-2.1,29.3c-3.9,49.2-8.3,105,16.6,145.3c4.9,7.9,10.9,15,18,21.5
			c-1.2,0.9-2.5,1.8-3.8,2.7c-11.2,7.9-28.2,19.9-18.2,35.6l0.2,0.3c1.9,1.9,2.8,2.2,4.1,2.2c0.1,0,0.2,0,0.3,0
			c0.9,1.6,3.1,5.2,7.3,6.3c0.9,0.2,1.8,0.3,2.7,0.3c2.6,0,5.3-0.9,8.3-2.6c4.6-2.5,8.6-6,12.5-9.3c6.5-5.5,12.6-10.8,21.1-12.1
			l2.5-0.4l0,0c1,0.4,1.9,0.8,2.9,1.2c26.8,10.8,54.3,13.8,72.6,14.5c3.1,0.1,6.6,0.2,10.4,0.2c26.3,0,67.4-3.5,101.9-21.9
			c5,1.9,9.7,7.4,14.1,12.6c5.5,6.5,11.2,13.2,18.1,13.6c0.2,0,0.5,0,0.7,0c3.4,0,6.7-1.5,10.1-4.6c4.9-3,7.5-7.1,7.5-12.1
			c0.1-11.8-13.7-24.7-21.9-30.4c8-7.9,15-17.2,20.5-28.2c24.7-49.4,21-110.3,17.5-164.1c0.7,0.3,1.4,0.8,2.3,1.4
			c1.8,1.2,9.6,6.3,16.3,6.3c1.6,0,3.1-0.3,4.5-1c3-1.5,4.7-4.6,5.1-9.2c2.8-1.6,3.6-3.8,3.7-5.4
			C396.5,288.5,390.6,282.3,387.7,280.2z M37.4,300c-1.4,0.5-3.2,1.1-5.7,2.8c-5.8,4-13.6,7.2-17.7,5.1c-1.9-1-3.1-3.1-3.4-6.4
			c2-0.7,4.3-1.5,5.9-3.7c0.5-0.7,0.4-1.6-0.3-2.1c-0.7-0.5-1.6-0.4-2.1,0.3c-1.1,1.4-2.7,2-4.6,2.7c-0.1,0-0.3,0.1-0.4,0.1
			c-1.4-0.8-2.2-1.8-2.3-3.1c-0.4-3.6,3.9-8.9,7-11.1c6.7-4.9,15.4-7.5,24.5-7.5c0.8,0,1.6,0,2.5,0.1c0.1,0,0.3,0,0.4,0
			c0.1,3.7-0.1,7.5-0.4,11.3c0,0.4-0.1,0.9-0.1,1.3c-0.1,1.4-0.2,2.8-0.3,4.2C40.1,299,39.6,299.2,37.4,300z M84.1,531.3
			c-3.8,3.2-7.7,6.6-12.1,9c-3.3,2-6.3,2.7-8.7,2c-3.1-0.8-4.7-3.6-5.5-4.9c0.4-3.4,2.3-6.1,4.3-9.1c1.2-1.8,2.5-3.7,3.4-5.7
			c0.3-0.8,0-1.6-0.8-2c-0.8-0.3-1.6,0-2,0.8c-0.8,1.8-1.9,3.5-3.1,5.3c-1.9,2.8-3.9,5.7-4.6,9.3c-0.1,0-0.1,0-0.2,0
			c-0.3,0-0.5,0-1.7-1.2c-8.3-13.3,6-23.3,17.5-31.4c1.3-0.9,2.6-1.8,3.7-2.7c0.3-0.1,0.7-0.1,1-0.2c8.1,6.9,17.6,12.9,28.4,18
			c0.1,0.2,0.2,0.3,0.4,0.5C96.2,521,90.1,526.2,84.1,531.3z M345,524.6c0,3.5-1.6,6.4-4.8,8.7c-0.5-1.2-1-2.5-1.5-3.8
			c-1.4-3.9-2.9-7.9-6.2-11c-0.6-0.6-1.5-0.6-2.1,0c-0.6,0.6-0.6,1.5,0,2.1c2.8,2.7,4.1,6.2,5.5,9.9c0.6,1.5,1.1,3.1,1.8,4.6
			c-2.7,2.3-5.3,3.3-7.9,3.2c-5.6-0.3-10.7-6.3-16-12.6c-4.1-4.8-8.4-9.8-13.2-12.5c8.3-4.7,16.1-10.3,23.2-16.9
			C332.8,502.3,345,514.7,345,524.6z M343.8,464.7c-5.5,11-12.6,20.3-20.7,28.2c-1.5,1.5-3.1,2.9-4.7,4.3c-4.9,4.2-10.1,8-15.6,11.3
			c-2.3,1.4-4.7,2.8-7.1,4.1c-38.8,20.5-86.1,22.1-110.5,21.2c-34.3-1.2-60.1-8.4-79.3-17.5c-2.2-1.1-4.4-2.2-6.5-3.3
			c-7.4-4-13.8-8.3-19.1-12.6c-1.3-1-2.5-2-3.7-3c-9.8-8.5-15.8-16.6-19.3-22.3c-24.4-39.5-20-94.8-16.1-143.5
			c1-12.4,1.9-24.1,2.4-35.3c0.1-2.5,0.2-5.1,0.2-7.6c0.1-4.7,0-9.5-0.1-14.3c-0.4-16.3-1.8-32.5-3.1-48.4
			c-3.2-37.5-6.4-76.3,3.2-113.7l0.4-1.4l-1.3-0.4C28.3,105.7,19.4,96.4,18,84.4c-1.5-12.6,5.8-26.7,17.8-34.2
			c5.9-3.7,12.3-5.5,18.9-5.5c7.5,0,15.2,2.4,22.5,7.1l1,0.6l0.8-0.7c30.9-27.1,75.4-33.9,114.9-37.1c40.6,0,86.5,3.7,118.5,31.4
			l0.9,0.8l1-0.7c18.3-12.8,33.1-7.6,40.3-3.4c12.1,7.1,19.7,21.3,18.4,34.5c-1.2,12.5-9.9,22.3-24.5,27.4l-1.3,0.5l0.4,1.3
			c10.5,39.2,10.8,80.7,11,120.9c0.1,14.7,0.2,29.9,0.8,44.9c0,1,0.1,2,0.1,3c0.1,2.8,0.3,5.7,0.4,8.5c0.3,4.5,0.6,9,0.8,13.6
			c0.1,1.1,0.1,2.3,0.2,3.4c0,0.1,0,0.1,0,0.2C364.5,354.7,368.4,415.6,343.8,464.7z M393,293.8c-0.1,1.3-0.9,2.3-2.3,3.1
			c-0.1,0-0.3-0.1-0.4-0.1c-1.9-0.7-3.5-1.2-4.6-2.7c-0.5-0.7-1.4-0.8-2.1-0.3c-0.7,0.5-0.8,1.4-0.3,2.1c1.6,2.1,3.9,2.9,5.9,3.7
			c-0.3,3.3-1.5,5.5-3.4,6.4c-4.2,2.1-11.9-1.1-17.7-5.1c-1.7-1.1-3-1.8-4.2-2.3c-0.3-5.1-0.7-10.1-0.9-15.1
			c-0.2-2.8-0.3-5.6-0.4-8.4c8.7,0.2,17.1,2.8,23.5,7.5C389,284.9,393.3,290.1,393,293.8z"/>
	</g>
</g>
<g>
	<path class="st6" d="M181.2,198.7c4.5,2.6,9.5-1.9,13-6.4c-0.8-6.7-0.2-13.3,0.3-19.7c0.1-1.8,0.3-3.6,0.4-5.4
		c-2.8,0.5-5.9,1.6-9.1,2.7c-3.6,1.2-7.3,2.5-10.9,3.1C172.6,182.7,175.5,195.5,181.2,198.7z"/>
	<path class="st6" d="M198,192.9c1.7,3.9,5.2,6.6,9.3,7.4c0.8-0.3,1.6-0.6,2.3-0.9c2.6-0.9,4.8-1.7,6.1-4c0.9-5.5,0.5-11.3,0.1-16.9
		c-0.2-2.2-0.3-4.4-0.4-6.5c-1-0.4-1.9-0.8-2.9-1.2c-4.2-1.8-8.6-3.6-13.1-3.7l-0.2,0c-0.2,0-0.4,0-0.6,0c-0.1,2.2-0.3,4.3-0.4,6.4
		C197.7,180.1,197.2,186.4,198,192.9z"/>
	<path d="M239.5,156.4c-1.9-8.9-13.1-16.5-23-20.6l-0.3-0.1l-39.5,1.6l-0.1,0c-6.8,0.6-13.1,5-16.6,11.4c-3.1,5.8-3.2,12.2-0.3,17.5
		c3,5.5,7.2,7.2,11.9,7.2c-2.3,11.4,1.8,24.5,8,28.1c1.2,0.7,2.6,1.2,4.3,1.2c3.2,0,7.1-1.8,11.8-7.4c2.3,4.4,6.5,7.4,11.5,8.2
		l0.4,0.1l0.4-0.2c0.8-0.4,1.7-0.7,2.6-1c2.8-1,6-2.1,7.9-5.6l0.1-0.2l0-0.2c1.1-6,0.6-12,0.2-17.9c-0.1-1.8-0.3-3.5-0.3-5.2
		c2.1,0.7,4.2,1.1,6.3,1.1c3.6,0,7.1-1.3,10.6-5.1C239.1,165.1,240.5,160.8,239.5,156.4z M194.4,172.7c-0.5,6.4-1,13-0.3,19.7
		c-3.5,4.5-8.5,9-13,6.4c-5.7-3.3-8.5-16.1-6.3-25.7c3.6-0.5,7.3-1.8,10.9-3.1c3.2-1.1,6.3-2.2,9.1-2.7
		C194.7,169.1,194.5,170.9,194.4,172.7z M215.8,195.4c-1.3,2.3-3.6,3.1-6.1,4c-0.8,0.3-1.6,0.6-2.3,0.9c-4.1-0.8-7.6-3.5-9.3-7.4
		c-0.8-6.5-0.3-12.8,0.2-19.5c0.2-2.1,0.3-4.2,0.4-6.4c0.2,0,0.4,0,0.6,0l0.2,0c4.6,0.1,8.9,1.9,13.1,3.7c1,0.4,1.9,0.8,2.9,1.2
		c0.1,2.1,0.2,4.3,0.4,6.5C216.3,184.1,216.7,189.8,215.8,195.4z M233.2,167.1c-4.7,5.1-9.4,4.7-14.8,2.8c-1.5-0.5-3-1.2-4.7-1.9
		c-4.5-1.9-9.1-3.8-14.2-3.9c-4.5-0.6-9.5,1.2-14.9,3c-4.3,1.5-8.6,3-12.3,3.1c-4.1,0.2-7.6-1.1-10-5.6c-2.4-4.4-2.3-9.7,0.3-14.6
		c2.9-5.5,8.5-9.4,14.1-9.9l38.8-1.6c8.7,3.7,19.3,10.7,20.9,18.4C237.4,160.4,236.2,163.8,233.2,167.1z"/>
</g>
<path class="st1" d="M233.2,167.1c-4.7,5.1-9.4,4.7-14.8,2.8c-1.5-0.5-3-1.2-4.7-1.9c-4.5-1.9-9.1-3.8-14.2-3.9
	c-4.5-0.6-9.5,1.2-14.9,3c-4.3,1.5-8.6,3-12.3,3.1c-4.1,0.2-7.6-1.1-10-5.6c-2.4-4.4-2.3-9.7,0.3-14.6c2.9-5.5,8.5-9.4,14.1-9.9
	l38.8-1.6c8.7,3.7,19.3,10.7,20.9,18.4C237.4,160.4,236.2,163.8,233.2,167.1z"/>
<path class="st4" d="M175.2,138c-0.9-20.9,38.9-23.5,43.6-6C223.6,149.5,177.2,153.5,175.2,138C173.7,125.7,175.2,138,175.2,138z"/>
</svg>
